SplineFontDB: 3.0
FontName: SWIFTDAY3
FullName: SWIFTDAY3
FamilyName: SWIFTDAY3
Weight: Regular
Copyright: Copyright (c) 2015, kelvin,,,
UComments: "2015-2-16: Created with FontForge (http://fontforge.org)"
Version: 001.000
ItalicAngle: 0
UnderlinePosition: -100
UnderlineWidth: 50
Ascent: 770
Descent: 230
InvalidEm: 0
LayerCount: 2
Layer: 0 0 "Back" 1
Layer: 1 0 "Fore" 0
XUID: [1021 664 -1180520147 15462304]
FSType: 0
OS2Version: 0
OS2_WeightWidthSlopeOnly: 0
OS2_UseTypoMetrics: 1
CreationTime: 1424125131
ModificationTime: 1428782253
PfmFamily: 17
TTFWeight: 400
TTFWidth: 5
LineGap: 0
VLineGap: 90
OS2TypoAscent: 820
OS2TypoAOffset: 0
OS2TypoDescent: -430
OS2TypoDOffset: 0
OS2TypoLinegap: 0
OS2WinAscent: 820
OS2WinAOffset: 0
OS2WinDescent: 430
OS2WinDOffset: 0
HheadAscent: 820
HheadAOffset: 0
HheadDescent: -430
HheadDOffset: 0
OS2CapHeight: 638
OS2XHeight: 425
OS2Vendor: 'PfEd'
Lookup: 4 0 1 "Opentype shortcuts" { "'dlig' Discretionary Ligatures lookup 3-1"  } ['liga' ('DFLT' <'dflt' > 'grek' <'dflt' > 'latn' <'dflt' > ) ]
Lookup: 4 0 1 "Old style initialize" { "'dlig' Discretionary Ligatures lookup 4-1"  } ['liga' ('DFLT' <'dflt' > 'grek' <'dflt' > 'latn' <'dflt' > 'math' <'dflt' > ) ]
Lookup: 6 0 0 "Old style chaining" { "'calt' Contextual Alternates lookup 2-1"  } ['calt' ('DFLT' <'dflt' > 'grek' <'dflt' > 'latn' <'dflt' > 'math' <'dflt' > ) ]
Lookup: 6 0 0 "Old style rendering" { "'calt' Contextual Alternates lookup 6-1"  } ['calt' ('DFLT' <'dflt' > 'grek' <'dflt' > 'latn' <'dflt' > 'math' <'dflt' > ) ]
Lookup: 4 0 1 "Old style closing tag" { "Old style closing tag-1"  } ['liga' ('DFLT' <'dflt' > 'grek' <'dflt' > 'latn' <'dflt' > 'math' <'dflt' > ) ]
Lookup: 6 0 0 "Tag warning" { "Tag warning-1"  } ['calt' ('DFLT' <'dflt' > 'grek' <'dflt' > 'latn' <'dflt' > 'math' <'dflt' > ) ]
Lookup: 1 0 0 "onumflag" { "onumflag-1" ("onumflag") } []
Lookup: 1 0 0 "onuminverse" { "onumflag-2" ("onumflag") } []
Lookup: 1 0 0 "onum-fail" { "onum-fail-1"  } []

StartChar: exclam
Encoding: 33 33 1
Width: 250
VWidth: 0
GlyphClass: 3
Flags: HMW
LayerCount: 2
Back
Fore
SplineSet
79 634 m 1
 155 650 l 1
 170 644 l 1
 146 218 l 1
 105 210 l 1
 79 634 l 1
EndSplineSet
Refer: 14 46 N 1 0 0 1 10 0 2
Validated: 1
LCarets2: 5 0 0 0 0 0
Ligature2: "SmallCapsClose subtable" exclam.smcpflag less slash s c greater
Substitution2: "Single Substitution lookup 14 subtable" exclam.smcpflag
EndChar

StartChar: quotedbl
Encoding: 34 34 2
Width: 350
VWidth: -3
GlyphClass: 3
Flags: HMW
LayerCount: 2
Back
Fore
SplineSet
229 634 m 1
 285 650 l 1
 300 644 l 1
 286 462 l 1
 245 454 l 1
 229 634 l 1
50 634 m 1
 106 650 l 1
 121 644 l 1
 107 459 l 1
 66 451 l 1
 50 634 l 1
EndSplineSet
Validated: 1
LCarets2: 5 0 0 0 0 0
Ligature2: "SmallCapsClose subtable" quotedbl.smcpflag less slash s c greater
Substitution2: "Single Substitution lookup 14 subtable" quotedbl.smcpflag
EndChar

StartChar: numbersign
Encoding: 35 35 3
Width: 437
VWidth: 0
GlyphClass: 2
Flags: HMW
LayerCount: 2
Back
SplineSet
10 199 m 1
 10 240 l 1
 379 240 l 1
 379 199 l 1
 10 199 l 1
58 390 m 1
 58 431 l 1
 427 431 l 1
 427 390 l 1
 58 390 l 1
337 593 m 1
 373 586 l 1
 245 32 l 1
 209 39 l 1
 337 593 l 1
197 593 m 1
 233 586 l 1
 105 32 l 1
 69 39 l 1
 197 593 l 1
EndSplineSet
Fore
SplineSet
197 593 m 1
 233 586 l 1
 197 431 l 1
 300 431 l 1
 337 593 l 1
 373 586 l 1
 337 431 l 1
 427 431 l 1
 427 390 l 1
 328 390 l 1
 293 240 l 1
 379 240 l 1
 379 199 l 1
 284 199 l 1
 245 32 l 1
 209 39 l 1
 246 199 l 1
 144 199 l 1
 105 32 l 1
 69 39 l 1
 106 199 l 1
 10 199 l 1
 10 240 l 1
 115 240 l 1
 150 390 l 1
 58 390 l 1
 58 431 l 1
 160 431 l 1
 197 593 l 1
188 390 m 1
 153 240 l 1
 255 240 l 1
 290 390 l 1
 188 390 l 1
EndSplineSet
Validated: 1
EndChar

StartChar: dollar
Encoding: 36 36 4
Width: 454
VWidth: 0
GlyphClass: 2
Flags: HMW
LayerCount: 2
Back
SplineSet
103 77 m 1
 143 54 193 47 219 47 c 3
 276 47 334 80 334 143 c 3
 334 209 293 251 207 286 c 0
 98 331 53 383 53 460 c 3
 53 533 122 608 231 608 c 3
 300 608 345 595 367 586 c 1
 367 479 l 1
 329 477 l 1
 317 555 l 1
 299 565 248 575 221 575 c 3
 169 575 117 546 117 484 c 3
 117 420 158 382 237 351 c 0
 347 307 408 256 408 176 c 3
 408 94 339 12 207 12 c 3
 143 12 98 23 55 40 c 1
 51 159 l 1
 89 161 l 1
 103 77 l 1
207 690 m 1
 237 690 l 1
 237 -86 l 1
 207 -86 l 1
 207 690 l 1
EndSplineSet
Fore
SplineSet
207 690 m 1
 237 690 l 1
 237 608 l 1
 303 607 346 595 367 586 c 1
 367 479 l 1
 329 477 l 1
 317 555 l 1
 302 563 265 571 237 574 c 1
 237 351 l 1
 347 307 408 256 408 176 c 3
 408 100 349 24 237 13 c 1
 237 -86 l 1
 207 -86 l 1
 207 12 l 1
 143 12 98 23 55 40 c 1
 51 159 l 1
 89 161 l 1
 103 77 l 1
 137 57 179 49 207 47 c 1
 207 286 l 1
 98 331 53 383 53 460 c 3
 53 527 112 597 207 607 c 1
 207 690 l 1
207 364 m 1
 207 574 l 1
 160 569 117 540 117 484 c 3
 117 429 148 393 207 364 c 1
237 273 m 1
 237 48 l 1
 288 54 334 87 334 143 c 3
 334 201 303 241 237 273 c 1
EndSplineSet
Validated: 1
Substitution2: "Single Substitution lookup 14 subtable" dollar.smcpflag
Substitution2: "'smcp' Lowercase to Small Capitals lookup 10-1" dollar.smcp
Substitution2: "onumflag-1" dollar.onumflag
Substitution2: "'onum' Oldstyle Figures lookup 0-1" dollar.oldstyleproportional
EndChar

StartChar: percent
Encoding: 37 37 5
Width: 898
VWidth: 0
GlyphClass: 2
Flags: HMW
LayerCount: 2
Back
Fore
SplineSet
663 311 m 3
 630 311 611 304 594 289 c 1
 576 262 565 235 565 173 c 3
 565 78 604 25 660 25 c 3
 693 25 711 33 728 48 c 1
 746 75 754 101 754 163 c 3
 754 258 719 311 663 311 c 3
647 -12 m 3
 587 -12 498 32 498 157 c 3
 498 277 569 347 671 347 c 3
 731 347 821 304 821 179 c 3
 821 59 749 -12 647 -12 c 3
241 602 m 3
 208 602 189 595 172 580 c 1
 154 553 143 526 143 464 c 3
 143 369 182 316 238 316 c 3
 271 316 289 324 306 339 c 1
 324 366 332 392 332 454 c 3
 332 549 297 602 241 602 c 3
225 279 m 3
 165 279 76 323 76 448 c 3
 76 568 147 638 249 638 c 3
 309 638 399 595 399 470 c 3
 399 350 327 279 225 279 c 3
612 637 m 1
 645 617 l 1
 282 -10 l 1
 249 10 l 1
 612 637 l 1
EndSplineSet
Validated: 1
Substitution2: "Single Substitution lookup 14 subtable" percent.smcpflag
Substitution2: "'smcp' Lowercase to Small Capitals lookup 10-1" percent.smcp
Substitution2: "onumflag-1" percent.onumflag
Substitution2: "'onum' Oldstyle Figures lookup 0-1" percent.oldstyleproportional
EndChar

StartChar: ampersand
Encoding: 38 38 6
Width: 700
VWidth: 0
GlyphClass: 3
Flags: HMW
LayerCount: 2
Back
Fore
SplineSet
208 340 m 1
 158 294 119 249 119 178 c 3
 119 96 169 36 253 36 c 3
 322 36 364 73 411 123 c 1
 208 340 l 1
188 360 m 1
 158 392 116 445 116 506 c 3
 116 577 168 650 265 650 c 3
 350 650 384 585 384 530 c 3
 384 459 330 415 271 371 c 1
 454 178 l 1
 495 238 537 347 543 385 c 1
 461 405 l 1
 461 426 l 1
 639 426 l 1
 639 405 l 1
 587 386 l 1
 559 326 520 224 474 157 c 1
 574 57 l 1
 625 21 l 1
 625 0 l 1
 526 0 l 1
 430 102 l 1
 375 44 308 -12 220 -12 c 3
 111 -12 50 63 50 153 c 3
 50 239 116 303 188 360 c 1
251 391 m 1
 299 428 328 467 328 517 c 3
 328 581 300 617 258 617 c 3
 220 617 182 586 182 531 c 3
 182 475 223 423 251 391 c 1
EndSplineSet
Validated: 1
LCarets2: 5 0 0 0 0 0
Ligature2: "SmallCapsClose subtable" ampersand.smcpflag less slash s c greater
Substitution2: "Single Substitution lookup 14 subtable" ampersand.smcpflag
EndChar

StartChar: quotesingle
Encoding: 39 39 7
Width: 152
VWidth: -3
GlyphClass: 3
Flags: HMW
LayerCount: 2
Back
Fore
SplineSet
40 634 m 1
 97 650 l 1
 112 644 l 1
 98 462 l 1
 56 454 l 1
 40 634 l 1
EndSplineSet
Validated: 1
Ligature2: "SmallCapsClose subtable" quotesingle.smcpflag less slash s c greater
Substitution2: "Single Substitution lookup 14 subtable" quotesingle.smcpflag
EndChar

StartChar: parenleft
Encoding: 40 40 8
Width: 310
VWidth: 0
GlyphClass: 3
Flags: HMW
LayerCount: 2
Back
Fore
SplineSet
109 265 m 3
 109 66 183 -64 260 -138 c 1
 245 -159 l 1
 148 -90 50 57 50 265 c 3
 50 473 153 620 245 689 c 1
 260 668 l 1
 183 594 109 464 109 265 c 3
EndSplineSet
Validated: 1
Ligature2: "SmallCapsClose subtable" parenleft.smcpflag less slash s c greater
Substitution2: "Single Substitution lookup 14 subtable" parenleft.smcpflag
EndChar

StartChar: parenright
Encoding: 41 41 9
Width: 310
VWidth: 0
GlyphClass: 3
Flags: HMW
LayerCount: 2
Back
Fore
SplineSet
201 265 m 3
 201 464 127 594 50 668 c 1
 65 689 l 1
 162 620 260 473 260 265 c 3
 260 57 157 -90 65 -159 c 1
 50 -138 l 1
 127 -64 201 66 201 265 c 3
EndSplineSet
Validated: 1
Ligature2: "SmallCapsClose subtable" parenright.smcpflag less slash s c greater
Substitution2: "Single Substitution lookup 14 subtable" parenright.smcpflag
EndChar

StartChar: asterisk
Encoding: 42 42 10
Width: 443
VWidth: 0
GlyphClass: 2
Flags: HMW
LayerCount: 2
Back
Fore
SplineSet
209 516 m 1
 209 650 l 1
 221 662 l 1
 273 652 l 1
 280 637 l 1
 233 511 l 1
 361 551 l 1
 376 544 l 1
 383 491 l 1
 370 480 l 1
 236 486 l 1
 314 376 l 1
 311 359 l 1
 264 336 l 1
 249 345 l 1
 213 475 l 1
 133 367 l 1
 116 364 l 1
 80 402 l 1
 83 419 l 1
 196 493 l 1
 68 536 l 1
 60 551 l 1
 86 598 l 1
 102 599 l 1
 209 516 l 1
EndSplineSet
Validated: 1
EndChar

StartChar: plus
Encoding: 43 43 11
Width: 460
VWidth: 0
GlyphClass: 2
Flags: HMW
LayerCount: 2
Back
Fore
SplineSet
213 425 m 1
 247 425 l 1
 247 254 l 1
 418 254 l 1
 418 220 l 1
 247 220 l 1
 247 49 l 1
 213 49 l 1
 213 220 l 1
 42 220 l 1
 42 254 l 1
 213 254 l 1
 213 425 l 1
EndSplineSet
Validated: 1
EndChar

StartChar: comma
Encoding: 44 44 12
Width: 230
VWidth: -3
GlyphClass: 3
Flags: HMW
LayerCount: 2
Back
Fore
SplineSet
113 102 m 3
 149 102 174 72 174 22 c 3
 174 -44 133 -109 63 -149 c 1
 52 -129 l 1
 98 -101 122 -65 122 -37 c 3
 122 -21 119 -13 115 -4 c 1
 76 -4 57 21 57 49 c 3
 57 78 80 102 113 102 c 3
EndSplineSet
Validated: 1
Ligature2: "SmallCapsClose subtable" comma.smcpflag less slash s c greater
Substitution2: "Single Substitution lookup 14 subtable" comma.smcpflag
Substitution2: "onumflag-1" comma.onumflag
Ligature2: "Old style closing tag-1" comma.onumflag less slash o n u m greater
EndChar

StartChar: hyphen
Encoding: 45 45 13
Width: 300
VWidth: 0
GlyphClass: 3
Flags: HMW
LayerCount: 2
Back
Fore
SplineSet
45 210 m 1
 45 254 l 1
 255 254 l 1
 255 210 l 1
 45 210 l 1
EndSplineSet
Validated: 1
Ligature2: "SmallCapsClose subtable" hyphen.smcpflag less slash s c greater
Substitution2: "Single Substitution lookup 14 subtable" hyphen.smcpflag
Substitution2: "onumflag-1" hyphen.onumflag
Ligature2: "Old style closing tag-1" hyphen.onumflag less slash o n u m greater
EndChar

StartChar: period
Encoding: 46 46 14
Width: 230
VWidth: -3
GlyphClass: 3
Flags: HMW
LayerCount: 2
Back
Fore
SplineSet
115 104 m 3
 145 104 170 79 170 49 c 3
 170 19 145 -6 115 -6 c 3
 85 -6 60 19 60 49 c 3
 60 79 85 104 115 104 c 3
EndSplineSet
Validated: 1
Ligature2: "SmallCapsClose subtable" period.smcpflag less slash s c greater
Substitution2: "Single Substitution lookup 14 subtable" period.smcpflag
Substitution2: "onumflag-1" period.onumflag
Ligature2: "Old style closing tag-1" period.onumflag less slash o n u m greater
EndChar

StartChar: slash
Encoding: 47 47 15
Width: 280
VWidth: 0
GlyphClass: 2
Flags: HMW
LayerCount: 2
Back
Fore
SplineSet
264 686 m 1
 300 675 l 1
 64 -49 l 1
 28 -38 l 1
 264 686 l 1
EndSplineSet
Validated: 1
EndChar

StartChar: zero
Encoding: 48 48 16
Width: 540
VWidth: 0
GlyphClass: 2
Flags: HMW
LayerCount: 2
Back
Fore
SplineSet
280 596 m 3
 226 596 194 577 171 543 c 1
 146 492 140 449 140 324 c 3
 140 137 193 32 268 32 c 3
 322 32 344 52 367 86 c 1
 392 137 399 179 399 304 c 3
 399 491 355 596 280 596 c 3
254 -12 m 3
 170 -12 60 62 60 294 c 3
 60 518 146 638 288 638 c 3
 372 638 480 566 480 334 c 3
 480 110 396 -12 254 -12 c 3
EndSplineSet
Validated: 1
Substitution2: "Single Substitution lookup 14 subtable" zero.smcpflag
Substitution2: "'smcp' Lowercase to Small Capitals lookup 10-1" zero.smcp
Substitution2: "onumflag-1" zero.onumflag
Substitution2: "'onum' Oldstyle Figures lookup 0-1" zero.oldstyleproportional
EndChar

StartChar: one
Encoding: 49 49 17
Width: 370
VWidth: -3
GlyphClass: 2
Flags: HMW
LayerCount: 2
Back
Fore
SplineSet
231 38 m 1
 320 18 l 1
 320 0 l 1
 60 0 l 1
 60 18 l 1
 155 43 l 1
 155 588 l 1
 70 600 l 1
 70 618 l 1
 231 634 l 1
 231 38 l 1
EndSplineSet
Validated: 1
Substitution2: "Single Substitution lookup 14 subtable" one.smcpflag
Substitution2: "'smcp' Lowercase to Small Capitals lookup 10-1" one.smcp
Substitution2: "onumflag-1" one.onumflag
Substitution2: "'onum' Oldstyle Figures lookup 0-1" one.oldstyleproportional
EndChar

StartChar: two
Encoding: 50 50 18
Width: 500
VWidth: 0
GlyphClass: 2
Flags: HMW
LayerCount: 2
Back
Fore
SplineSet
228 586 m 3
 181 586 141 581 101 556 c 1
 86 581 l 1
 142 618 196 638 260 638 c 3
 356 638 414 573 414 468 c 3
 414 312 240 126 149 64 c 1
 402 64 l 9
 429 103 l 1
 450 98 l 1
 433 0 l 1
 56 0 l 1
 50 32 l 1
 205 139 334 291 334 449 c 3
 334 534 292 586 228 586 c 3
EndSplineSet
Validated: 1
Substitution2: "Single Substitution lookup 14 subtable" two.smcpflag
Substitution2: "'smcp' Lowercase to Small Capitals lookup 10-1" two.smcp
Substitution2: "onumflag-1" two.onumflag
Substitution2: "'onum' Oldstyle Figures lookup 0-1" two.oldstyleproportional
EndChar

StartChar: three
Encoding: 51 51 19
Width: 440
VWidth: 0
GlyphClass: 2
Flags: HMW
LayerCount: 2
Back
Fore
SplineSet
390 197 m 3
 390 48 254 -12 54 -12 c 1
 54 23 l 1
 234 23 312 75 313 178 c 0
 313 222 294 253 257 273 c 0
 224 291 189 294 144 295 c 1
 139 327 l 1
 233 369 262 413 262 490 c 3
 262 553 220 588 174 588 c 3
 132 588 104 580 65 556 c 1
 50 581 l 1
 103 618 151 638 213 638 c 3
 291 638 342 588 342 509 c 3
 342 423 271 362 227 339 c 1
 256 338 275 334 297 326 c 0
 357 304 390 265 390 197 c 3
EndSplineSet
Validated: 1
Substitution2: "Single Substitution lookup 14 subtable" three.smcpflag
Substitution2: "'smcp' Lowercase to Small Capitals lookup 10-1" three.smcp
Substitution2: "onumflag-1" three.onumflag
Substitution2: "'onum' Oldstyle Figures lookup 0-1" three.oldstyleproportional
EndChar

StartChar: four
Encoding: 52 52 20
Width: 525
VWidth: -3
GlyphClass: 2
Flags: HMW
LayerCount: 2
Back
Fore
SplineSet
310 629 m 1
 376 623 l 1
 376 202 l 1
 485 202 l 1
 485 154 l 1
 376 154 l 1
 376 34 l 1
 435 18 l 1
 435 0 l 1
 235 0 l 1
 235 18 l 1
 300 43 l 1
 300 154 l 1
 49 154 l 1
 40 175 l 1
 310 629 l 1
300 541 m 1
 100 202 l 1
 300 202 l 1
 300 541 l 1
EndSplineSet
Validated: 1
Substitution2: "Single Substitution lookup 14 subtable" four.smcpflag
Substitution2: "'smcp' Lowercase to Small Capitals lookup 10-1" four.smcp
Substitution2: "onumflag-1" four.onumflag
Substitution2: "'onum' Oldstyle Figures lookup 0-1" four.oldstyleproportional
EndChar

StartChar: five
Encoding: 53 53 21
Width: 433
VWidth: 0
GlyphClass: 2
Flags: HMW
LayerCount: 2
Back
Fore
SplineSet
50 -12 m 1
 50 23 l 1
 221 23 295 80 295 183 c 3
 295 227 280 263 237 284 c 0
 201 302 145 307 67 307 c 1
 57 316 l 1
 102 626 l 1
 328 626 l 1
 335 613 l 1
 325 562 l 1
 132 562 l 1
 106 366 l 1
 185 366 238 362 282 344 c 0
 343 318 373 276 373 207 c 3
 373 56 236 -12 50 -12 c 1
EndSplineSet
Validated: 1
Substitution2: "Single Substitution lookup 14 subtable" five.smcpflag
Substitution2: "'smcp' Lowercase to Small Capitals lookup 10-1" five.smcp
Substitution2: "onumflag-1" five.onumflag
Substitution2: "'onum' Oldstyle Figures lookup 0-1" five.oldstyleproportional
EndChar

StartChar: six
Encoding: 54 54 22
Width: 490
VWidth: 0
GlyphClass: 2
Flags: HMW
LayerCount: 2
Back
SplineSet
134 270 m 1
 134 303 l 1
 164 334 223 361 283 361 c 3
 384 361 440 293 440 194 c 3
 440 77 360 -13 244 -13 c 3
 126 -13 55 62 55 219 c 3
 55 437 217 576 373 638 c 9
 389 611 l 17
 261 550 134 447 134 226 c 3
 134 89 191 29 256 29 c 3
 331 29 367 68 367 162 c 3
 367 264 312 313 251 313 c 3
 206 313 164 296 134 270 c 1
EndSplineSet
Fore
SplineSet
251 313 m 3
 207 313 166 297 136 272 c 1
 135 257 134 242 134 226 c 3
 134 89 191 29 256 29 c 3
 331 29 367 68 367 162 c 3
 367 264 312 313 251 313 c 3
373 638 m 1
 389 611 l 1
 278 558 169 474 141 309 c 1
 173 337 227 361 283 361 c 3
 384 361 440 293 440 194 c 3
 440 77 360 -13 244 -13 c 3
 126 -13 55 62 55 219 c 3
 55 437 217 576 373 638 c 1
EndSplineSet
Validated: 1
Substitution2: "Single Substitution lookup 14 subtable" six.smcpflag
Substitution2: "'smcp' Lowercase to Small Capitals lookup 10-1" six.smcp
Substitution2: "onumflag-1" six.onumflag
Substitution2: "'onum' Oldstyle Figures lookup 0-1" six.oldstyleproportional
EndChar

StartChar: seven
Encoding: 55 55 23
Width: 400
VWidth: 0
GlyphClass: 2
Flags: HMW
LayerCount: 2
Back
Fore
SplineSet
20 579 m 1
 30 626 l 1
 364 626 l 1
 380 607 l 1
 143 -15 l 9
 85 12 l 17
 173 192 252 380 323 562 c 1
 30 562 l 1
 20 579 l 1
EndSplineSet
Validated: 1
Substitution2: "Single Substitution lookup 14 subtable" seven.smcpflag
Substitution2: "'smcp' Lowercase to Small Capitals lookup 10-1" seven.smcp
Substitution2: "onumflag-1" seven.onumflag
Substitution2: "'onum' Oldstyle Figures lookup 0-1" seven.oldstyleproportional
EndChar

StartChar: eight
Encoding: 56 56 24
Width: 500
VWidth: 0
GlyphClass: 2
Flags: HMW
LayerCount: 2
Back
SplineSet
284 334 m 9
 259 351 l 1
 309 381 344 441 344 491 c 3
 344 567 309 603 244 603 c 3
 192 603 149 562 149 505 c 3
 149 340 440 331 440 162 c 3
 440 66 360 -12 244 -12 c 3
 141 -12 60 38 60 141 c 3
 60 223 149 294 212 325 c 9
 232 306 l 17
 165 267 124 228 124 151 c 3
 124 72 173 27 249 27 c 3
 318 27 366 67 366 137 c 3
 366 278 83 308 83 480 c 3
 83 559 144 638 251 638 c 3
 357 638 405 577 405 500 c 3
 405 419 324 356 284 334 c 9
221 299 m 1
 161 262 124 224 124 151 c 3
 124 72 173 27 249 27 c 3
 318 27 366 67 366 137 c 3
 366 209 293 251 221 299 c 1
251 638 m 3
 357 638 405 577 405 500 c 3
 405 423 332 363 290 338 c 1
 364 293 440 248 440 162 c 3
 440 66 360 -12 244 -12 c 3
 141 -12 60 38 60 141 c 3
 60 216 135 282 196 316 c 1
 136 358 83 406 83 480 c 3
 83 559 144 638 251 638 c 3
264 354 m 1
 312 385 344 443 344 491 c 3
 344 567 309 603 244 603 c 3
 192 603 149 562 149 505 c 3
 149 434 203 392 264 354 c 1
EndSplineSet
Fore
SplineSet
221 299 m 1
 161 262 124 224 124 151 c 3
 124 72 173 27 249 27 c 3
 318 27 366 67 366 137 c 3
 366 209 293 251 221 299 c 1
251 638 m 3
 357 638 405 577 405 500 c 3
 405 423 332 363 290 338 c 1
 364 293 440 248 440 162 c 3
 440 66 360 -12 244 -12 c 3
 141 -12 60 38 60 141 c 3
 60 216 135 282 196 316 c 1
 136 358 83 406 83 480 c 3
 83 559 144 638 251 638 c 3
264 354 m 1
 312 385 344 443 344 491 c 3
 344 567 309 603 244 603 c 3
 192 603 149 562 149 505 c 3
 149 434 203 392 264 354 c 1
EndSplineSet
Validated: 1
Substitution2: "Single Substitution lookup 14 subtable" eight.smcpflag
Substitution2: "'smcp' Lowercase to Small Capitals lookup 10-1" eight.smcp
Substitution2: "onumflag-1" eight.onumflag
Substitution2: "'onum' Oldstyle Figures lookup 0-1" eight.oldstyleproportional
EndChar

StartChar: nine
Encoding: 57 57 25
Width: 485
VWidth: 0
GlyphClass: 2
Flags: HMW
LayerCount: 2
Back
SplineSet
351 355 m 1
 351 322 l 1
 321 291 272 269 212 269 c 3
 121 269 55 332 55 431 c 3
 55 548 130 638 246 638 c 3
 364 638 430 563 430 406 c 3
 430 188 273 49 117 -13 c 9
 101 14 l 17
 229 75 351 178 351 399 c 3
 351 536 299 596 234 596 c 3
 159 596 128 557 128 463 c 3
 128 361 178 317 239 317 c 3
 284 317 321 329 351 355 c 1
EndSplineSet
Fore
SplineSet
234 596 m 3
 159 596 128 557 128 463 c 3
 128 361 178 317 239 317 c 3
 283 317 319 328 349 353 c 1
 350 368 351 383 351 399 c 3
 351 536 299 596 234 596 c 3
246 638 m 3
 364 638 430 563 430 406 c 3
 430 188 273 49 117 -13 c 1
 101 14 l 1
 212 67 318 151 345 316 c 1
 315 288 268 269 212 269 c 3
 121 269 55 332 55 431 c 3
 55 548 130 638 246 638 c 3
EndSplineSet
Validated: 1
Substitution2: "Single Substitution lookup 14 subtable" nine.smcpflag
Substitution2: "'smcp' Lowercase to Small Capitals lookup 10-1" nine.smcp
Substitution2: "onumflag-1" nine.onumflag
Substitution2: "'onum' Oldstyle Figures lookup 0-1" nine.oldstyleproportional
EndChar

StartChar: less
Encoding: 60 60 28
Width: 320
VWidth: 0
GlyphClass: 2
Flags: HMW
LayerCount: 2
Back
Fore
SplineSet
230 430 m 1
 254 405 l 1
 82 233 l 1
 255 60 l 1
 230 34 l 1
 32 232 l 1
 230 430 l 1
EndSplineSet
Validated: 1
EndChar

StartChar: equal
Encoding: 61 61 29
Width: 460
VWidth: 0
GlyphClass: 2
Flags: HMW
LayerCount: 2
Back
Fore
SplineSet
42 147 m 1
 42 181 l 1
 418 181 l 1
 418 147 l 1
 42 147 l 1
42 305 m 1
 42 339 l 1
 418 339 l 1
 418 305 l 1
 42 305 l 1
EndSplineSet
Validated: 1
EndChar

StartChar: greater
Encoding: 62 62 30
Width: 320
VWidth: 0
GlyphClass: 2
Flags: HMW
LayerCount: 2
Back
Fore
SplineSet
90 430 m 1
 288 232 l 1
 90 34 l 1
 66 59 l 1
 238 231 l 1
 65 404 l 1
 90 430 l 1
EndSplineSet
Validated: 1
EndChar

StartChar: question
Encoding: 63 63 31
Width: 420
VWidth: 0
GlyphClass: 3
Flags: HMW
LayerCount: 2
Back
Fore
SplineSet
213 650 m 3
 331 650 371 579 371 507 c 3
 371 454 337 403 300 364 c 2
 204 263 l 9
 216 214 l 1
 197 200 l 1
 139 272 l 1
 139 291 l 1
 254 413 l 2
 283 443 293 474 293 509 c 3
 293 572 242 602 197 602 c 3
 125 602 92 573 53 541 c 1
 34 568 l 1
 62 595 128 650 213 650 c 3
EndSplineSet
Refer: 14 46 N 1 0 0 1 80 0 2
Validated: 1
Ligature2: "SmallCapsClose subtable" question.smcpflag less slash s c greater
Substitution2: "Single Substitution lookup 14 subtable" question.smcpflag
EndChar

StartChar: at
Encoding: 64 64 32
Width: 740
VWidth: -3
GlyphClass: 2
Flags: HMW
LayerCount: 2
Back
Fore
SplineSet
412 535 m 3
 591 535 690 428 690 291 c 3
 690 145 569 41 464 41 c 3
 433 41 405 55 413 102 c 2
 425 171 l 1
 384 83 336 39 291 39 c 3
 262 39 220 55 220 131 c 3
 220 245 303 385 458 385 c 3
 481 385 512 381 534 374 c 1
 502 234 l 1
 487 138 l 2
 481 102 493 91 512 91 c 3
 568 91 643 161 643 272 c 3
 643 419 538 502 390 502 c 3
 239 502 110 375 110 188 c 3
 110 -12 251 -88 388 -88 c 3
 453 -88 518 -75 578 -37 c 1
 593 -62 l 1
 539 -105 454 -127 377 -127 c 3
 214 -127 50 -37 50 180 c 3
 50 383 220 535 412 535 c 3
402 340 m 3
 316 340 291 241 291 147 c 3
 291 114 300 96 323 96 c 3
 354 96 415 188 448 295 c 1
 454 331 l 1
 443 335 421 340 402 340 c 3
EndSplineSet
Validated: 33
EndChar

StartChar: A
Encoding: 65 65 33
Width: 652
VWidth: 0
GlyphClass: 3
Flags: HMW
AnchorPoint: "bottom" 529 0 basechar 0
AnchorPoint: "top" 322 638 basechar 0
LayerCount: 2
Back
SplineSet
175 216 m 1
 175 253 l 1
 480 253 l 1
 480 216 l 1
 175 216 l 1
85 39 m 1
 303 650 l 1
 347 650 l 1
 577 35 l 1
 633 18 l 1
 633 0 l 1
 427 0 l 1
 427 18 l 1
 487 38 l 1
 307 541 l 1
 140 40 l 1
 205 18 l 1
 205 0 l 1
 19 0 l 1
 19 18 l 1
 85 39 l 1
EndSplineSet
Fore
SplineSet
303 650 m 1
 347 650 l 1
 577 35 l 1
 633 18 l 1
 633 0 l 1
 427 0 l 1
 427 18 l 1
 487 38 l 1
 423 216 l 1
 199 216 l 1
 140 40 l 1
 205 18 l 1
 205 0 l 1
 19 0 l 1
 19 18 l 1
 85 39 l 1
 303 650 l 1
410 253 m 1
 307 541 l 1
 211 253 l 1
 410 253 l 1
EndSplineSet
Validated: 1
LCarets2: 5 0 0 0 0 0
Ligature2: "SmallCapsClose subtable" A.smcpflag less slash s c greater
Substitution2: "Single Substitution lookup 14 subtable" A.smcpflag
EndChar

StartChar: B
Encoding: 66 66 34
Width: 605
VWidth: 0
GlyphClass: 3
Flags: HMW
LayerCount: 2
Back
Fore
SplineSet
209 312 m 1
 209 41 l 1
 312 41 l 2
 418 41 467 85 467 182 c 3
 467 280 412 312 313 312 c 2
 209 312 l 1
58 638 m 1
 327 638 l 2
 463 638 512 593 512 489 c 3
 512 406 444 349 399 339 c 1
 482 330 550 280 550 187 c 3
 550 70 484 0 316 0 c 2
 55 0 l 1
 55 20 l 1
 132 45 l 1
 132 596 l 1
 58 618 l 1
 58 638 l 1
209 598 m 1
 209 353 l 1
 291 353 l 2
 377 353 429 383 429 484 c 3
 429 573 374 598 290 598 c 2
 209 598 l 1
EndSplineSet
Validated: 1
LCarets2: 5 0 0 0 0 0
Ligature2: "SmallCapsClose subtable" B.smcpflag less slash s c greater
Substitution2: "Single Substitution lookup 14 subtable" B.smcpflag
EndChar

StartChar: C
Encoding: 67 67 35
Width: 653
VWidth: 0
GlyphClass: 3
Flags: HMW
AnchorPoint: "top" 380 638 basechar 0
AnchorPoint: "bottom" 385 0 basechar 0
LayerCount: 2
Back
Fore
SplineSet
384 -12 m 3
 199 -12 87 96 87 311 c 3
 87 506 199 650 400 650 c 3
 488 650 548 632 582 617 c 1
 584 491 l 1
 547 487 l 1
 529 575 l 1
 502 590 437 607 388 607 c 3
 243 607 169 510 169 330 c 3
 169 137 273 35 412 35 c 3
 461 35 505 42 532 53 c 1
 549 153 l 1
 593 150 l 1
 585 30 l 1
 551 15 480 -12 384 -12 c 3
EndSplineSet
Validated: 1
LCarets2: 5 0 0 0 0 0
Ligature2: "SmallCapsClose subtable" C.smcpflag less slash s c greater
Substitution2: "Single Substitution lookup 14 subtable" C.smcpflag
EndChar

StartChar: D
Encoding: 68 68 36
Width: 704
VWidth: 0
GlyphClass: 3
Flags: HMW
AnchorPoint: "bottom" 305 0 basechar 0
AnchorPoint: "top" 334 638 basechar 0
LayerCount: 2
Back
Fore
SplineSet
55 0 m 1
 55 20 l 1
 132 45 l 1
 132 596 l 1
 58 618 l 1
 58 638 l 1
 309 638 l 2
 570 638 630 532 630 335 c 3
 630 115 522 -0 315 0 c 2
 55 0 l 1
209 598 m 1
 209 41 l 9
 315 41 l 2
 468 41 549 111 549 335 c 3
 549 525 490 598 310 598 c 2
 209 598 l 1
EndSplineSet
Validated: 1
LCarets2: 5 0 0 0 0 0
Ligature2: "SmallCapsClose subtable" D.smcpflag less slash s c greater
Substitution2: "Single Substitution lookup 14 subtable" D.smcpflag
EndChar

StartChar: E
Encoding: 69 69 37
Width: 579
VWidth: 0
GlyphClass: 3
Flags: HMW
AnchorPoint: "bottom" 329 0 basechar 0
AnchorPoint: "top" 310 638 basechar 0
LayerCount: 2
Back
Fore
SplineSet
58 638 m 1
 492 638 l 1
 497 510 l 1
 465 507 l 1
 440 596 l 1
 209 596 l 1
 209 353 l 1
 389 353 l 1
 411 409 l 1
 439 409 l 1
 439 256 l 1
 411 256 l 1
 389 312 l 1
 209 312 l 1
 209 44 l 1
 470 44 l 1
 508 133 l 1
 539 128 l 1
 518 0 l 1
 55 0 l 1
 55 20 l 1
 132 45 l 1
 132 596 l 1
 58 618 l 1
 58 638 l 1
EndSplineSet
Validated: 1
LCarets2: 5 0 0 0 0 0
Ligature2: "SmallCapsClose subtable" E.smcpflag less slash s c greater
Substitution2: "Single Substitution lookup 14 subtable" E.smcpflag
EndChar

StartChar: F
Encoding: 70 70 38
Width: 504
VWidth: 0
GlyphClass: 3
Flags: HMW
LayerCount: 2
Back
Fore
SplineSet
55 638 m 1
 479 638 l 1
 484 510 l 1
 452 507 l 1
 427 596 l 1
 206 596 l 1
 206 343 l 1
 376 343 l 1
 398 399 l 1
 426 399 l 1
 426 246 l 1
 398 246 l 1
 376 302 l 1
 206 302 l 1
 206 38 l 1
 292 20 l 1
 292 0 l 1
 55 0 l 1
 55 20 l 1
 129 45 l 1
 129 596 l 1
 55 618 l 1
 55 638 l 1
EndSplineSet
Validated: 1
LCarets2: 5 0 0 0 0 0
Ligature2: "SmallCapsClose subtable" F.smcpflag less slash s c greater
Substitution2: "Single Substitution lookup 14 subtable" F.smcpflag
EndChar

StartChar: G
Encoding: 71 71 39
Width: 687
VWidth: 0
GlyphClass: 3
Flags: HMW
AnchorPoint: "bottom" 385 0 basechar 0
AnchorPoint: "top" 380 638 basechar 0
LayerCount: 2
Back
Fore
SplineSet
520 50 m 1
 520 246 l 17
 436 268 l 1
 436 286 l 1
 645 286 l 1
 645 268 l 1
 597 246 l 9
 597 49 l 1
 540 9 472 -12 384 -12 c 3
 198 -12 87 96 87 311 c 3
 87 506 198 650 400 650 c 3
 488 650 548 632 582 617 c 1
 584 491 l 1
 547 487 l 1
 529 575 l 1
 502 590 437 607 388 607 c 3
 243 607 169 510 169 330 c 3
 169 137 274 33 412 33 c 3
 458 33 507 42 520 50 c 1
EndSplineSet
Validated: 1
LCarets2: 5 0 0 0 0 0
Ligature2: "SmallCapsClose subtable" G.smcpflag less slash s c greater
Substitution2: "Single Substitution lookup 14 subtable" G.smcpflag
EndChar

StartChar: H
Encoding: 72 72 40
Width: 700
VWidth: 0
GlyphClass: 3
Flags: HMW
AnchorPoint: "bottom" 350 0 basechar 0
AnchorPoint: "top" 353 638 basechar 0
LayerCount: 2
Back
Fore
SplineSet
55 638 m 1
 274 638 l 1
 274 618 l 1
 206 596 l 1
 206 352 l 1
 494 352 l 1
 494 596 l 1
 426 618 l 1
 426 638 l 1
 645 638 l 1
 645 618 l 1
 571 596 l 1
 571 39 l 1
 645 20 l 1
 645 0 l 1
 426 0 l 1
 426 20 l 1
 494 45 l 1
 494 309 l 1
 206 309 l 1
 206 39 l 1
 274 20 l 1
 274 0 l 1
 55 0 l 1
 55 20 l 1
 129 45 l 1
 129 596 l 1
 55 618 l 1
 55 638 l 1
EndSplineSet
Validated: 1
LCarets2: 5 0 0 0 0 0
Ligature2: "SmallCapsClose subtable" H.smcpflag less slash s c greater
Substitution2: "Single Substitution lookup 14 subtable" H.smcpflag
EndChar

StartChar: I
Encoding: 73 73 41
Width: 343
VWidth: 0
GlyphClass: 3
Flags: HMW
AnchorPoint: "bottom" 170 -1 basechar 0
AnchorPoint: "top" 176 638 basechar 0
LayerCount: 2
Back
Fore
SplineSet
210 596 m 1
 210 39 l 1
 283 20 l 1
 283 0 l 1
 60 0 l 1
 60 20 l 1
 133 45 l 1
 133 596 l 1
 60 618 l 1
 60 638 l 1
 283 638 l 1
 283 618 l 1
 210 596 l 1
EndSplineSet
Validated: 1
LCarets2: 5 0 0 0 0 0
Ligature2: "SmallCapsClose subtable" I.smcpflag less slash s c greater
Substitution2: "Single Substitution lookup 14 subtable" I.smcpflag
EndChar

StartChar: J
Encoding: 74 74 42
Width: 331
VWidth: 0
GlyphClass: 3
Flags: HMW
AnchorPoint: "bottom" 165 -1 basechar 0
AnchorPoint: "top" 167 638 basechar 0
LayerCount: 2
Back
Fore
SplineSet
203 596 m 1
 203 61 l 2
 203 -26 165 -165 52 -231 c 1
 40 -214 l 1
 113 -150 126 -41 126 22 c 2
 126 596 l 1
 53 618 l 1
 53 638 l 1
 276 638 l 1
 276 618 l 1
 203 596 l 1
EndSplineSet
Validated: 1
LCarets2: 5 0 0 0 0 0
Ligature2: "SmallCapsClose subtable" J.smcpflag less slash s c greater
Substitution2: "Single Substitution lookup 14 subtable" J.smcpflag
EndChar

StartChar: K
Encoding: 75 75 43
Width: 628
VWidth: 0
GlyphClass: 3
Flags: HMW
AnchorPoint: "top" 322 638 basechar 0
AnchorPoint: "bottom" 345 0 basechar 0
LayerCount: 2
Back
Fore
SplineSet
204 596 m 1
 204 39 l 1
 268 20 l 1
 268 0 l 1
 55 0 l 1
 55 20 l 1
 127 45 l 1
 127 596 l 1
 55 618 l 1
 55 638 l 1
 260 638 l 1
 260 618 l 1
 204 596 l 1
509 599 m 1
 299 339 l 1
 537 60 l 9
 588 18 l 1
 588 0 l 1
 477 0 l 1
 223 317 l 1
 266 365 l 1
 450 598 l 1
 402 618 l 1
 402 638 l 1
 578 638 l 1
 578 618 l 1
 509 599 l 1
EndSplineSet
Validated: 1
LCarets2: 5 0 0 0 0 0
Ligature2: "SmallCapsClose subtable" K.smcpflag less slash s c greater
Substitution2: "Single Substitution lookup 14 subtable" K.smcpflag
EndChar

StartChar: L
Encoding: 76 76 44
Width: 552
VWidth: 0
GlyphClass: 3
Flags: HMW
AnchorPoint: "bottom" 311 0 basechar 0
AnchorPoint: "top" 174 638 basechar 0
LayerCount: 2
Back
Fore
SplineSet
209 596 m 9
 209 44 l 25
 463 44 l 17
 501 133 l 1
 532 128 l 1
 511 0 l 1
 55 0 l 1
 55 20 l 1
 132 45 l 1
 132 596 l 1
 59 618 l 1
 59 638 l 1
 282 638 l 1
 282 618 l 1
 209 596 l 9
EndSplineSet
Validated: 1
LCarets2: 5 0 0 0 0 0
Ligature2: "SmallCapsClose subtable" L.smcpflag less slash s c greater
Substitution2: "Single Substitution lookup 14 subtable" L.smcpflag
EndChar

StartChar: M
Encoding: 77 77 45
Width: 860
VWidth: 0
GlyphClass: 3
Flags: HMW
LayerCount: 2
Back
Fore
SplineSet
54 638 m 1
 244 638 l 1
 437 148 l 1
 623 638 l 1
 800 638 l 1
 800 615 l 1
 731 599 l 1
 731 43 l 1
 805 20 l 1
 805 0 l 1
 591 0 l 1
 591 20 l 1
 655 43 l 1
 655 584 l 1
 652 584 l 1
 432 27 l 1
 398 27 l 1
 184 581 l 1
 179 581 l 1
 179 43 l 1
 237 20 l 1
 237 0 l 1
 45 0 l 1
 45 20 l 1
 125 43 l 1
 125 599 l 1
 54 615 l 1
 54 638 l 1
EndSplineSet
Validated: 1
LCarets2: 5 0 0 0 0 0
Ligature2: "SmallCapsClose subtable" M.smcpflag less slash s c greater
Substitution2: "Single Substitution lookup 14 subtable" M.smcpflag
EndChar

StartChar: N
Encoding: 78 78 46
Width: 703
VWidth: 0
GlyphClass: 3
Flags: HMW
AnchorPoint: "bottom" 354 0 basechar 0
AnchorPoint: "top" 359 638 basechar 0
LayerCount: 2
Back
Fore
SplineSet
44 638 m 1
 194 638 l 1
 539 137 l 1
 539 595 l 1
 476 618 l 1
 476 638 l 1
 663 638 l 1
 663 618 l 1
 593 595 l 1
 593 -8 l 1
 539 -8 l 1
 171 536 l 1
 169 536 l 1
 169 43 l 1
 232 20 l 1
 232 0 l 1
 40 0 l 1
 40 20 l 1
 115 43 l 1
 115 601 l 1
 44 617 l 1
 44 638 l 1
EndSplineSet
Validated: 1
LCarets2: 5 0 0 0 0 0
Ligature2: "SmallCapsClose subtable" N.smcpflag less slash s c greater
Substitution2: "Single Substitution lookup 14 subtable" N.smcpflag
EndChar

StartChar: O
Encoding: 79 79 47
Width: 707
VWidth: 0
GlyphClass: 3
Flags: HMW
AnchorPoint: "bottom" 341 0 basechar 0
AnchorPoint: "top" 354 638 basechar 0
LayerCount: 2
Back
Fore
SplineSet
364 608 m 3
 292 608 240 585 209 551 c 1
 176 507 143 455 143 330 c 3
 143 143 248 32 348 32 c 3
 420 32 470 56 501 90 c 1
 534 134 563 185 563 310 c 3
 563 497 464 608 364 608 c 3
329 -12 m 3
 217 -12 60 68 60 300 c 3
 60 524 185 650 374 650 c 3
 486 650 647 572 647 340 c 3
 647 116 518 -12 329 -12 c 3
EndSplineSet
Validated: 1
LCarets2: 5 0 0 0 0 0
Ligature2: "SmallCapsClose subtable" O.smcpflag less slash s c greater
Substitution2: "Single Substitution lookup 14 subtable" O.smcpflag
EndChar

StartChar: P
Encoding: 80 80 48
Width: 523
VWidth: 0
GlyphClass: 3
Flags: HMW
LayerCount: 2
Back
Fore
SplineSet
205 600 m 9
 205 38 l 1
 287 20 l 1
 287 0 l 1
 55 0 l 1
 55 20 l 1
 129 45 l 1
 129 596 l 1
 55 618 l 1
 55 638 l 1
 298 638 l 2
 444 638 503 582 503 465 c 3
 503 343 419 256 256 256 c 2
 239 256 l 1
 239 288 l 1
 255 288 l 2
 370 288 420 352 420 457 c 3
 420 559 364 600 265 600 c 2
 205 600 l 9
EndSplineSet
Validated: 1
LCarets2: 5 0 0 0 0 0
Ligature2: "SmallCapsClose subtable" P.smcpflag less slash s c greater
Substitution2: "Single Substitution lookup 14 subtable" P.smcpflag
EndChar

StartChar: Q
Encoding: 81 81 49
Width: 707
VWidth: 0
GlyphClass: 3
Flags: HMW
LayerCount: 2
Back
Fore
SplineSet
300 -16 m 1
 544 -71 l 1
 544 -86 l 1
 515 -145 l 1
 289 -44 l 1
 300 -16 l 1
EndSplineSet
Refer: 47 79 N 1 0 0 1 0 0 2
Validated: 1
LCarets2: 5 0 0 0 0 0
Ligature2: "SmallCapsClose subtable" Q.smcpflag less slash s c greater
Substitution2: "Single Substitution lookup 14 subtable" Q.smcpflag
EndChar

StartChar: R
Encoding: 82 82 50
Width: 584
VWidth: 0
GlyphClass: 3
Flags: HMW
AnchorPoint: "bottom" 334 0 basechar 0
AnchorPoint: "top" 282 638 basechar 0
LayerCount: 2
Back
Fore
SplineSet
205 600 m 9
 205 38 l 1
 271 20 l 1
 271 0 l 1
 54 0 l 1
 54 20 l 1
 128 45 l 1
 128 596 l 1
 54 618 l 1
 54 638 l 1
 312 638 l 2
 438 638 494 587 494 487 c 3
 494 375 394 323 323 310 c 1
 518 63 l 1
 560 18 l 1
 560 0 l 1
 462 0 l 1
 230 316 l 1
 230 327 l 17
 345 327 409 371 409 482 c 3
 409 561 367 600 287 600 c 2
 205 600 l 9
EndSplineSet
Validated: 1
LCarets2: 5 0 0 0 0 0
Ligature2: "SmallCapsClose subtable" R.smcpflag less slash s c greater
Substitution2: "Single Substitution lookup 14 subtable" R.smcpflag
EndChar

StartChar: S
Encoding: 83 83 51
Width: 490
VWidth: 0
GlyphClass: 3
Flags: HMW
AnchorPoint: "bottom" 244 0 basechar 0
AnchorPoint: "top" 247 638 basechar 0
LayerCount: 2
Back
Fore
SplineSet
106 56 m 1
 151 34 206 27 235 27 c 3
 298 27 363 63 363 133 c 3
 363 206 318 251 223 290 c 0
 102 340 51 400 51 486 c 3
 51 567 127 650 248 650 c 3
 325 650 374 636 399 626 c 1
 399 507 l 1
 362 504 l 1
 344 595 l 1
 324 604 267 613 237 613 c 3
 179 613 122 581 122 512 c 3
 122 441 175 397 263 362 c 0
 385 313 445 259 445 170 c 3
 445 79 369 -12 220 -12 c 3
 149 -12 101 0 53 19 c 1
 48 151 l 1
 85 154 l 1
 106 56 l 1
EndSplineSet
Validated: 1
LCarets2: 5 0 0 0 0 0
Ligature2: "SmallCapsClose subtable" S.smcpflag less slash s c greater
Substitution2: "Single Substitution lookup 14 subtable" S.smcpflag
EndChar

StartChar: T
Encoding: 84 84 52
Width: 534
VWidth: 0
GlyphClass: 3
Flags: HMW
AnchorPoint: "bottom" 268 0 basechar 0
AnchorPoint: "top" 269 638 basechar 0
LayerCount: 2
Back
Fore
SplineSet
306 598 m 9
 306 39 l 9
 379 20 l 1
 379 0 l 1
 155 0 l 1
 155 20 l 1
 229 45 l 17
 229 598 l 17
 68 598 l 1
 42 503 l 1
 10 505 l 1
 15 643 l 1
 35 643 l 1
 87 638 l 1
 447 638 l 1
 499 643 l 1
 519 643 l 1
 524 505 l 1
 492 503 l 1
 467 598 l 1
 306 598 l 9
EndSplineSet
Validated: 1
LCarets2: 5 0 0 0 0 0
Ligature2: "SmallCapsClose subtable" T.smcpflag less slash s c greater
Substitution2: "Single Substitution lookup 14 subtable" T.smcpflag
EndChar

StartChar: U
Encoding: 85 85 53
Width: 670
VWidth: 0
GlyphClass: 3
Flags: HMW
AnchorPoint: "bottom" 342 0 basechar 0
AnchorPoint: "top" 350 638 basechar 0
LayerCount: 2
Back
Fore
SplineSet
509 245 m 2
 509 596 l 1
 438 618 l 1
 438 638 l 1
 628 638 l 1
 628 618 l 1
 563 596 l 1
 563 246 l 2
 563 90 500 -12 336 -12 c 3
 174 -12 111 68 111 243 c 2
 111 596 l 1
 40 618 l 1
 40 638 l 1
 251 638 l 1
 251 618 l 1
 190 596 l 1
 190 242 l 2
 190 99 248 38 353 38 c 3
 452 38 509 82 509 245 c 2
EndSplineSet
Validated: 1
LCarets2: 5 0 0 0 0 0
Ligature2: "SmallCapsClose subtable" U.smcpflag less slash s c greater
Substitution2: "Single Substitution lookup 14 subtable" U.smcpflag
EndChar

StartChar: V
Encoding: 86 86 54
Width: 626
VWidth: 0
GlyphClass: 3
Flags: HMW
LayerCount: 2
Back
Fore
SplineSet
548 599 m 1
 336 -12 l 1
 302 -12 l 1
 80 601 l 1
 15 617 l 1
 15 638 l 1
 229 638 l 1
 229 617 l 1
 171 598 l 1
 336 113 l 1
 494 598 l 1
 419 617 l 1
 419 638 l 1
 621 638 l 1
 621 617 l 1
 548 599 l 1
EndSplineSet
Validated: 1
LCarets2: 5 0 0 0 0 0
Ligature2: "SmallCapsClose subtable" V.smcpflag less slash s c greater
Substitution2: "Single Substitution lookup 14 subtable" V.smcpflag
EndChar

StartChar: W
Encoding: 87 87 55
Width: 912
VWidth: 0
GlyphClass: 3
Flags: HMW
AnchorPoint: "bottom" 462 0 basechar 0
AnchorPoint: "top" 473 638 basechar 0
LayerCount: 2
Back
Fore
SplineSet
497 598 m 1
 639 129 l 1
 774 598 l 1
 705 617 l 1
 705 638 l 1
 907 638 l 1
 907 617 l 1
 834 599 l 1
 642 -12 l 1
 608 -12 l 1
 458 454 l 1
 458 453 316 -12 316 -12 c 1
 282 -12 l 1
 80 601 l 1
 15 617 l 1
 15 638 l 1
 229 638 l 1
 229 617 l 1
 171 598 l 1
 315 129 l 1
 454 598 l 1
 497 598 l 1
EndSplineSet
Validated: 1
LCarets2: 5 0 0 0 0 0
Ligature2: "SmallCapsClose subtable" W.smcpflag less slash s c greater
Substitution2: "Single Substitution lookup 14 subtable" W.smcpflag
EndChar

StartChar: X
Encoding: 88 88 56
Width: 621
VWidth: 0
GlyphClass: 3
Flags: HMW
LayerCount: 2
Back
SplineSet
293 356 m 1
 325 332 l 1
 163 42 l 1
 215 21 l 1
 215 0 l 1
 35 0 l 1
 35 21 l 1
 105 41 l 1
 293 356 l 1
349 340 m 1
 318 364 l 1
 439 597 l 1
 403 617 l 1
 403 638 l 1
 564 638 l 1
 564 617 l 1
 496 598 l 1
 349 340 l 1
206 601 m 1
 334 369 l 1
 536 34 l 1
 586 21 l 1
 586 0 l 1
 420 0 l 1
 420 21 l 1
 443 32 l 1
 283 314 l 1
 110 603 l 1
 59 617 l 1
 59 638 l 1
 244 638 l 1
 244 617 l 1
 206 601 l 1
EndSplineSet
Fore
SplineSet
59 638 m 1
 244 638 l 1
 244 617 l 1
 206 601 l 1
 327 382 l 1
 439 597 l 1
 403 617 l 1
 403 638 l 1
 564 638 l 1
 564 617 l 1
 496 598 l 1
 350 342 l 1
 536 34 l 1
 586 21 l 1
 586 0 l 1
 420 0 l 1
 420 21 l 1
 443 32 l 1
 299 286 l 1
 163 42 l 1
 215 21 l 1
 215 0 l 1
 35 0 l 1
 35 21 l 1
 105 41 l 1
 275 327 l 1
 110 603 l 1
 59 617 l 1
 59 638 l 1
EndSplineSet
Validated: 1
LCarets2: 5 0 0 0 0 0
Ligature2: "SmallCapsClose subtable" X.smcpflag less slash s c greater
Substitution2: "Single Substitution lookup 14 subtable" X.smcpflag
EndChar

StartChar: Y
Encoding: 89 89 57
Width: 552
VWidth: 0
GlyphClass: 3
Flags: HMW
AnchorPoint: "bottom" 282 0 basechar 0
AnchorPoint: "top" 290 638 basechar 0
LayerCount: 2
Back
SplineSet
477 598 m 1
 290 237 l 1
 268 237 l 1
 76 601 l 1
 15 617 l 1
 15 638 l 1
 209 638 l 1
 209 617 l 1
 170 598 l 1
 300 340 l 1
 423 597 l 1
 368 617 l 1
 368 638 l 1
 542 638 l 1
 542 617 l 1
 477 598 l 1
319 39 m 9
 393 20 l 1
 393 0 l 1
 170 0 l 1
 170 20 l 1
 242 45 l 17
 242 294 l 1
 319 294 l 1
 319 39 l 9
EndSplineSet
Fore
SplineSet
15 638 m 1
 209 638 l 1
 209 617 l 1
 170 598 l 1
 300 340 l 1
 423 597 l 1
 368 617 l 1
 368 638 l 1
 542 638 l 1
 542 617 l 1
 477 598 l 1
 319 293 l 1
 319 39 l 1
 393 20 l 1
 393 0 l 1
 170 0 l 1
 170 20 l 1
 242 45 l 1
 242 286 l 1
 76 601 l 1
 15 617 l 1
 15 638 l 1
EndSplineSet
Validated: 1
LCarets2: 5 0 0 0 0 0
Ligature2: "SmallCapsClose subtable" Y.smcpflag less slash s c greater
Substitution2: "Single Substitution lookup 14 subtable" Y.smcpflag
EndChar

StartChar: Z
Encoding: 90 90 58
Width: 556
VWidth: 0
GlyphClass: 3
Flags: HMW
AnchorPoint: "bottom" 284 0 basechar 0
AnchorPoint: "top" 285 638 basechar 0
LayerCount: 2
Back
Fore
SplineSet
444 44 m 1
 479 143 l 1
 510 138 l 1
 491 0 l 1
 52 0 l 1
 45 18 l 1
 382 594 l 1
 131 594 l 1
 98 500 l 1
 66 502 l 1
 80 643 l 1
 100 643 l 1
 152 638 l 1
 479 638 l 1
 488 621 l 1
 149 44 l 1
 444 44 l 1
EndSplineSet
Validated: 1
LCarets2: 5 0 0 0 0 0
Ligature2: "SmallCapsClose subtable" Z.smcpflag less slash s c greater
Substitution2: "Single Substitution lookup 14 subtable" Z.smcpflag
EndChar

StartChar: bracketleft
Encoding: 91 91 59
Width: 310
VWidth: 0
GlyphClass: 2
Flags: HMW
LayerCount: 2
Back
Fore
SplineSet
242 685 m 1
 242 662 l 1
 165 649 l 25
 165 -111 l 25
 245 -124 l 1
 245 -147 l 1
 110 -147 l 1
 110 685 l 1
 242 685 l 1
EndSplineSet
Validated: 1
EndChar

StartChar: backslash
Encoding: 92 92 60
Width: 280
VWidth: 0
GlyphClass: 2
Flags: HMW
LayerCount: 2
Back
Fore
SplineSet
16 686 m 1
 252 -38 l 1
 216 -49 l 1
 -20 675 l 1
 16 686 l 1
EndSplineSet
Validated: 1
EndChar

StartChar: bracketright
Encoding: 93 93 61
Width: 310
VWidth: 0
GlyphClass: 2
Flags: HMW
LayerCount: 2
Back
Fore
SplineSet
68 685 m 1
 200 685 l 1
 200 -147 l 1
 65 -147 l 1
 65 -124 l 1
 145 -111 l 25
 145 649 l 25
 68 662 l 1
 68 685 l 1
EndSplineSet
Validated: 1
EndChar

StartChar: asciicircum
Encoding: 94 94 62
Width: 480
VWidth: 0
GlyphClass: 2
Flags: HMW
LayerCount: 2
Back
Fore
SplineSet
240 572 m 1
 79 435 l 1
 52 465 l 1
 240 650 l 1
 428 465 l 1
 401 435 l 1
 240 572 l 1
EndSplineSet
Validated: 1
EndChar

StartChar: underscore
Encoding: 95 95 63
Width: 500
VWidth: 0
GlyphClass: 2
Flags: HMW
LayerCount: 2
Back
Fore
SplineSet
0 -230 m 1
 0 -196 l 1
 500 -196 l 1
 500 -230 l 1
 0 -230 l 1
EndSplineSet
Validated: 1
EndChar

StartChar: a
Encoding: 97 97 65
Width: 448
VWidth: -3
GlyphClass: 2
Flags: HMW
AnchorPoint: "bottom" 210 0 basechar 0
AnchorPoint: "top" 218 425 basechar 0
LayerCount: 2
Back
Fore
SplineSet
231 437 m 3
 304 437 357 398 357 289 c 2
 357 87 l 1
 366 36 l 1
 415 32 l 1
 416 15 l 1
 290 -9 l 1
 285 75 l 1
 254 8 195 -12 147 -12 c 3
 72 -12 40 41 40 91 c 3
 40 140 67 191 142 211 c 0
 186 223 253 230 283 234 c 1
 283 269 l 2
 283 354 261 388 202 388 c 3
 160 388 131 380 91 355 c 1
 76 380 l 1
 127 417 170 437 231 437 c 3
283 199 m 1
 253 196 196 190 165 180 c 0
 126 167 118 139 118 110 c 3
 118 72 130 37 181 37 c 3
 225 37 283 78 283 199 c 1
EndSplineSet
Validated: 1
Substitution2: "Single Substitution lookup 14 subtable" a.smcpflag
Substitution2: "'smcp' Lowercase to Small Capitals lookup 10-1" a.smcp
EndChar

StartChar: b
Encoding: 98 98 66
Width: 520
VWidth: -3
GlyphClass: 2
Flags: HMW
LayerCount: 2
Back
Fore
SplineSet
160 693 m 1
 160 352 l 1
 188 393 239 437 318 437 c 3
 402 437 475 379 475 235 c 3
 475 134 412 -12 232 -12 c 3
 187 -12 136 -3 86 15 c 1
 86 647 l 1
 15 659 l 1
 15 677 l 1
 160 693 l 1
275 383 m 3
 227 383 180 346 160 299 c 1
 160 102 l 1
 170 44 l 1
 192 31 217 26 254 26 c 3
 331 26 397 77 397 219 c 3
 397 344 345 383 275 383 c 3
EndSplineSet
Validated: 1
Substitution2: "Single Substitution lookup 14 subtable" b.smcpflag
Substitution2: "'smcp' Lowercase to Small Capitals lookup 10-1" b.smcp
EndChar

StartChar: c
Encoding: 99 99 67
Width: 413
VWidth: -3
GlyphClass: 2
Flags: HMW
AnchorPoint: "top" 233 425 basechar 0
AnchorPoint: "bottom" 243 0 basechar 0
LayerCount: 2
Back
Fore
SplineSet
241 396 m 3
 181 396 115 352 115 232 c 3
 115 111 181 36 261 36 c 3
 299 36 348 48 369 63 c 1
 381 46 l 1
 338 0 277 -12 229 -12 c 3
 142 -12 40 58 40 205 c 3
 40 363 161 437 266 437 c 3
 307 437 340 429 358 422 c 1
 366 317 l 1
 328 311 l 1
 307 385 l 1
 292 391 264 396 241 396 c 3
EndSplineSet
Validated: 1
Substitution2: "Single Substitution lookup 14 subtable" c.smcpflag
Substitution2: "'smcp' Lowercase to Small Capitals lookup 10-1" c.smcp
EndChar

StartChar: d
Encoding: 100 100 68
Width: 529
VWidth: -3
GlyphClass: 2
Flags: HMW
AnchorPoint: "bottom" 291 0 basechar 0
AnchorPoint: "top" 395 678 basechar 0
LayerCount: 2
Back
Fore
SplineSet
434 693 m 1
 434 97 l 1
 443 36 l 1
 492 29 l 1
 493 12 l 1
 360 -9 l 1
 360 48 l 1
 325 11 280 -12 218 -12 c 3
 131 -12 44 49 44 199 c 3
 44 341 132 437 269 437 c 3
 300 437 338 429 360 421 c 1
 360 647 l 1
 289 659 l 1
 289 677 l 1
 434 693 l 1
263 400 m 3
 174 400 122 345 122 218 c 3
 122 80 196 40 254 40 c 3
 301 40 330 51 360 82 c 1
 360 380 l 1
 335 391 305 400 263 400 c 3
EndSplineSet
Validated: 1
Substitution2: "Single Substitution lookup 14 subtable" d.smcpflag
Substitution2: "'smcp' Lowercase to Small Capitals lookup 10-1" d.smcp
EndChar

StartChar: e
Encoding: 101 101 69
Width: 423
VWidth: -3
GlyphClass: 2
Flags: HMW
AnchorPoint: "bottom" 243 0 basechar 0
AnchorPoint: "top" 231 425 basechar 0
LayerCount: 2
Back
SplineSet
226 400 m 3
 153 400 114 352 114 232 c 3
 114 93 181 33 274 33 c 3
 305 33 339 41 368 54 c 1
 375 36 l 1
 347 11 296 -12 240 -12 c 3
 104 -12 40 81 40 211 c 3
 40 352 135 437 239 437 c 3
 332 437 377 392 377 290 c 1
 369 232 l 1
 110 232 l 1
 110 266 l 1
 250 266 l 1
 309 275 l 1
 309 365 284 400 226 400 c 3
EndSplineSet
Fore
SplineSet
114 232 m 1
 114 93 181 33 274 33 c 3
 305 33 339 41 368 54 c 1
 375 36 l 1
 347 11 296 -12 240 -12 c 3
 104 -12 40 81 40 211 c 3
 40 352 135 437 239 437 c 3
 332 437 377 392 377 290 c 1
 369 232 l 1
 114 232 l 1
115 266 m 1
 250 266 l 1
 309 275 l 1
 309 365 284 400 226 400 c 3
 160 400 122 361 115 266 c 1
EndSplineSet
Validated: 1
Substitution2: "Single Substitution lookup 14 subtable" e.smcpflag
Substitution2: "'smcp' Lowercase to Small Capitals lookup 10-1" e.smcp
EndChar

StartChar: f
Encoding: 102 102 70
Width: 317
VWidth: -3
GlyphClass: 2
Flags: HMW
LayerCount: 2
Back
Fore
SplineSet
280 679 m 3
 313 679 333 673 351 667 c 1
 342 607 l 1
 327 601 l 1
 312 606 266 623 246 623 c 3
 222 623 207 620 196 602 c 1
 186 568 185 529 185 464 c 2
 185 425 l 1
 293 425 l 1
 293 387 l 1
 185 387 l 1
 185 34 l 1
 264 18 l 1
 264 0 l 1
 42 0 l 1
 42 18 l 1
 112 43 l 1
 112 387 l 1
 44 387 l 1
 44 403 l 1
 111 425 l 1
 112 425 l 1
 112 604 198 679 280 679 c 3
EndSplineSet
Validated: 1
Substitution2: "Single Substitution lookup 14 subtable" f.smcpflag
Substitution2: "'smcp' Lowercase to Small Capitals lookup 10-1" f.smcp
EndChar

StartChar: g
Encoding: 103 103 71
Width: 466
VWidth: 0
GlyphClass: 2
Flags: HMW
AnchorPoint: "bottom" 229 -230 basechar 0
AnchorPoint: "top" 230 425 basechar 0
LayerCount: 2
Back
SplineSet
218 404 m 3
 158 404 137 369 137 293 c 3
 137 229 165 186 223 186 c 3
 282 186 303 215 303 294 c 3
 303 357 281 404 218 404 c 3
378 302 m 3
 378 214 317 151 216 151 c 3
 115 151 63 199 63 286 c 3
 63 372 124 437 225 437 c 3
 326 437 378 389 378 302 c 3
42 -124 m 3
 42 -61 115 -13 136 -3 c 1
 168 -11 l 1
 120 -49 96 -71 96 -112 c 3
 96 -163 151 -193 227 -193 c 3
 323 -193 358 -155 358 -109 c 3
 358 -67 334 -48 289 -38 c 2
 168 -11 l 1
 136 -3 l 17
 97 8 65 37 65 73 c 3
 65 108 101 149 141 172 c 1
 167 160 l 1
 133 131 128 112 128 100 c 3
 128 81 150 66 182 59 c 2
 311 31 l 2
 390 14 428 -19 428 -85 c 3
 428 -154 356 -230 209 -230 c 3
 114 -230 42 -195 42 -124 c 3
328 383 m 1
 319 408 l 1
 431 452 l 1
 441 442 l 1
 437 403 l 1
 328 383 l 1
EndSplineSet
Fore
SplineSet
431 452 m 1
 441 442 l 1
 437 403 l 1
 353 388 l 1
 370 366 378 337 378 302 c 3
 378 214 317 151 216 151 c 3
 196 151 179 152 163 156 c 1
 133 129 128 111 128 100 c 3
 128 81 150 66 182 59 c 2
 311 31 l 2
 390 14 428 -19 428 -85 c 3
 428 -154 356 -230 209 -230 c 3
 114 -230 42 -195 42 -124 c 3
 42 -61 115 -13 136 -3 c 1
 97 8 65 37 65 73 c 3
 65 105 96 142 132 166 c 1
 86 187 63 228 63 286 c 3
 63 372 124 437 225 437 c 3
 268 437 303 428 328 411 c 1
 431 452 l 1
218 404 m 3
 158 404 137 369 137 293 c 3
 137 229 165 186 223 186 c 3
 282 186 303 215 303 294 c 3
 303 357 281 404 218 404 c 3
168 -11 m 1
 120 -49 96 -71 96 -112 c 3
 96 -163 151 -193 227 -193 c 3
 323 -193 358 -155 358 -109 c 3
 358 -67 334 -48 289 -38 c 2
 168 -11 l 1
EndSplineSet
Validated: 1
Substitution2: "Single Substitution lookup 14 subtable" g.smcpflag
Substitution2: "'smcp' Lowercase to Small Capitals lookup 10-1" g.smcp
EndChar

StartChar: h
Encoding: 104 104 72
Width: 569
VWidth: -3
GlyphClass: 2
Flags: HMW
AnchorPoint: "bottom" 287 0 basechar 0
AnchorPoint: "top" 280 678 basechar 0
LayerCount: 2
Back
Fore
SplineSet
186 693 m 5
 186 343 l 1
 223 391 267 437 345 437 c 3
 431 437 470 384 470 283 c 2
 470 34 l 1
 529 18 l 1
 529 0 l 1
 339 0 l 1
 339 18 l 1
 396 40 l 1
 396 265 l 2
 396 358 363 384 310 384 c 3
 253 384 213 339 186 297 c 1
 186 34 l 1
 240 18 l 1
 240 0 l 1
 45 0 l 1
 45 18 l 1
 112 43 l 1
 112 647 l 5
 41 659 l 5
 41 677 l 5
 186 693 l 5
EndSplineSet
Validated: 1
Substitution2: "Single Substitution lookup 14 subtable" h.smcpflag
Substitution2: "'smcp' Lowercase to Small Capitals lookup 10-1" h.smcp
EndChar

StartChar: i
Encoding: 105 105 73
Width: 278
VWidth: -3
GlyphClass: 2
Flags: HMW
LayerCount: 2
Back
Fore
SplineSet
183 34 m 1
 247 18 l 1
 247 0 l 1
 39 0 l 1
 39 18 l 1
 109 43 l 1
 109 389 l 1
 43 401 l 1
 43 419 l 1
 183 432 l 1
 183 34 l 1
189 616 m 3
 189 589 166 566 139 566 c 3
 112 566 90 589 90 616 c 3
 90 643 112 665 139 665 c 3
 166 665 189 643 189 616 c 3
EndSplineSet
Validated: 1
Substitution2: "Single Substitution lookup 14 subtable" i.smcpflag
Substitution2: "'smcp' Lowercase to Small Capitals lookup 10-1" i.smcp
EndChar

StartChar: j
Encoding: 106 106 74
Width: 282
VWidth: -3
GlyphClass: 2
Flags: HMW
LayerCount: 2
Back
Fore
SplineSet
189 616 m 3
 189 589 166 566 139 566 c 3
 112 566 90 589 90 616 c 3
 90 643 112 665 139 665 c 3
 166 665 189 643 189 616 c 3
45 419 m 5
 185 432 l 5
 185 61 l 6
 185 -26 145 -166 32 -232 c 1
 20 -215 l 1
 93 -151 111 -41 111 22 c 6
 111 389 l 5
 45 401 l 5
 45 419 l 5
EndSplineSet
Validated: 1
Substitution2: "Single Substitution lookup 14 subtable" j.smcpflag
Substitution2: "'smcp' Lowercase to Small Capitals lookup 10-1" j.smcp
EndChar

StartChar: k
Encoding: 107 107 75
Width: 516
VWidth: 0
GlyphClass: 2
Flags: HMW
AnchorPoint: "top" 271 678 basechar 0
AnchorPoint: "bottom" 290 0 basechar 0
LayerCount: 2
Back
Fore
SplineSet
44 677 m 1
 189 693 l 1
 189 34 l 1
 238 18 l 1
 238 0 l 1
 45 0 l 1
 45 18 l 1
 115 43 l 1
 115 647 l 1
 44 659 l 1
 44 677 l 1
340 384 m 9
 310 402 l 1
 310 425 l 1
 455 425 l 1
 455 402 l 1
 388 381 l 17
 265 246 l 1
 439 61 l 1
 486 18 l 1
 486 0 l 1
 395 0 l 1
 198 217 l 1
 340 384 l 9
EndSplineSet
Validated: 1
Substitution2: "Single Substitution lookup 14 subtable" k.smcpflag
Substitution2: "'smcp' Lowercase to Small Capitals lookup 10-1" k.smcp
EndChar

StartChar: l
Encoding: 108 108 76
Width: 284
VWidth: -3
GlyphClass: 2
Flags: HMW
AnchorPoint: "bottom" 158 0 basechar 0
AnchorPoint: "top" 150 678 basechar 0
LayerCount: 2
Back
Fore
SplineSet
44 677 m 1
 189 693 l 1
 189 34 l 1
 253 18 l 1
 253 0 l 1
 45 0 l 1
 45 18 l 1
 115 43 l 1
 115 647 l 1
 44 659 l 1
 44 677 l 1
EndSplineSet
Validated: 1
Substitution2: "Single Substitution lookup 14 subtable" l.smcpflag
Substitution2: "'smcp' Lowercase to Small Capitals lookup 10-1" l.smcp
EndChar

StartChar: m
Encoding: 109 109 77
Width: 826
VWidth: -3
GlyphClass: 2
Flags: HMW
LayerCount: 2
Back
SplineSet
613 437 m 3
 699 437 736 384 736 283 c 2
 736 34 l 1
 795 18 l 1
 795 0 l 1
 605 0 l 1
 605 18 l 1
 662 40 l 1
 662 265 l 2
 662 358 634 384 578 384 c 3
 521 384 485 339 457 296 c 1
 452 336 l 1
 490 387 535 437 613 437 c 3
180 432 m 1
 180 343 l 1
 217 391 257 437 335 437 c 3
 421 437 458 384 458 283 c 2
 458 34 l 1
 512 18 l 1
 512 0 l 1
 327 0 l 1
 327 18 l 1
 384 40 l 1
 384 265 l 2
 384 358 356 384 300 384 c 3
 243 384 207 339 180 297 c 1
 180 34 l 1
 234 18 l 1
 234 0 l 1
 39 0 l 1
 39 18 l 1
 106 43 l 1
 106 389 l 1
 40 401 l 1
 40 419 l 1
 180 432 l 1
EndSplineSet
Fore
SplineSet
335 437 m 7
 404 437 441 403 453 338 c 5
 486 388 536 437 613 437 c 7
 699 437 736 384 736 283 c 6
 736 34 l 1
 795 18 l 1
 795 0 l 1
 605 0 l 1
 605 18 l 1
 662 40 l 1
 662 265 l 6
 662 358 634 384 578 384 c 7
 522 384 486 340 458 297 c 5
 458 34 l 5
 512 18 l 5
 512 0 l 5
 327 0 l 5
 327 18 l 5
 384 40 l 5
 384 265 l 6
 384 358 356 384 300 384 c 7
 243 384 207 339 180 297 c 5
 180 34 l 5
 234 18 l 5
 234 0 l 5
 39 0 l 5
 39 18 l 5
 106 43 l 5
 106 389 l 5
 40 401 l 5
 40 419 l 5
 180 432 l 5
 180 343 l 5
 217 391 257 437 335 437 c 7
EndSplineSet
Validated: 1
Substitution2: "Single Substitution lookup 14 subtable" m.smcpflag
Substitution2: "'smcp' Lowercase to Small Capitals lookup 10-1" m.smcp
EndChar

StartChar: n
Encoding: 110 110 78
Width: 553
VWidth: -3
GlyphClass: 2
Flags: HMW
AnchorPoint: "bottom" 288 0 basechar 0
AnchorPoint: "top" 285 425 basechar 0
LayerCount: 2
Back
Fore
SplineSet
180 432 m 5
 180 343 l 5
 217 391 260 437 338 437 c 7
 424 437 463 384 463 283 c 6
 463 34 l 5
 522 18 l 5
 522 0 l 5
 333 0 l 5
 333 18 l 5
 390 40 l 5
 390 265 l 6
 390 358 359 384 303 384 c 7
 246 384 207 339 180 297 c 5
 180 34 l 5
 234 18 l 5
 234 0 l 5
 39 0 l 5
 39 18 l 5
 106 43 l 5
 106 389 l 5
 40 401 l 5
 40 419 l 5
 180 432 l 5
EndSplineSet
Validated: 1
Substitution2: "Single Substitution lookup 14 subtable" n.smcpflag
Substitution2: "'smcp' Lowercase to Small Capitals lookup 10-1" n.smcp
EndChar

StartChar: o
Encoding: 111 111 79
Width: 484
VWidth: -3
GlyphClass: 2
Flags: HMW
AnchorPoint: "bottom" 238 0 basechar 0
AnchorPoint: "top" 248 425 basechar 0
LayerCount: 2
Back
Fore
SplineSet
246 399 m 7
 154 399 120 337 120 220 c 3
 120 101 172 27 242 27 c 7
 334 27 364 90 364 207 c 7
 364 326 316 399 246 399 c 7
253 437 m 7
 341 437 444 383 444 222 c 7
 444 77 357 -12 230 -12 c 7
 145 -12 40 44 40 205 c 3
 40 350 126 437 253 437 c 7
EndSplineSet
Validated: 1
Substitution2: "Single Substitution lookup 14 subtable" o.smcpflag
Substitution2: "'smcp' Lowercase to Small Capitals lookup 10-1" o.smcp
EndChar

StartChar: p
Encoding: 112 112 80
Width: 529
VWidth: -3
GlyphClass: 2
Flags: HMW
LayerCount: 2
Back
Fore
SplineSet
324 437 m 3
 412 437 484 375 484 227 c 3
 484 131 421 -12 241 -12 c 3
 217 -12 189 -6 171 0 c 1
 171 -196 l 1
 245 -212 l 1
 245 -230 l 1
 30 -230 l 1
 30 -212 l 1
 97 -189 l 1
 97 389 l 1
 31 401 l 1
 31 419 l 1
 171 432 l 1
 171 352 l 1
 199 393 247 437 324 437 c 3
289 383 m 3
 236 383 191 346 171 300 c 1
 171 39 l 1
 196 31 223 24 260 24 c 3
 333 24 404 74 404 216 c 3
 404 342 354 383 289 383 c 3
EndSplineSet
Validated: 1
Substitution2: "Single Substitution lookup 14 subtable" p.smcpflag
Substitution2: "'smcp' Lowercase to Small Capitals lookup 10-1" p.smcp
EndChar

StartChar: q
Encoding: 113 113 81
Width: 529
VWidth: -3
GlyphClass: 2
Flags: HMW
LayerCount: 2
Back
Fore
SplineSet
269 437 m 3
 335 437 410 418 434 409 c 1
 455 410 l 1
 434 333 l 1
 434 -196 l 1
 498 -212 l 1
 498 -230 l 1
 290 -230 l 1
 290 -212 l 1
 360 -187 l 1
 360 48 l 1
 325 11 280 -12 218 -12 c 3
 131 -12 44 49 44 199 c 3
 44 341 132 437 269 437 c 3
263 400 m 3
 174 400 122 345 122 218 c 3
 122 80 196 40 254 40 c 3
 301 40 330 51 360 82 c 1
 360 337 l 1
 350 383 l 1
 325 395 305 400 263 400 c 3
EndSplineSet
Validated: 1
Substitution2: "Single Substitution lookup 14 subtable" q.smcpflag
Substitution2: "'smcp' Lowercase to Small Capitals lookup 10-1" q.smcp
EndChar

StartChar: r
Encoding: 114 114 82
Width: 383
VWidth: -3
GlyphClass: 2
Flags: HMW
AnchorPoint: "bottom" 160 0 basechar 0
AnchorPoint: "top" 227 425 basechar 0
LayerCount: 2
Back
Fore
SplineSet
180 432 m 1
 180 335 l 1
 212 387 249 434 304 434 c 3
 333 434 348 430 365 425 c 1
 357 362 l 1
 342 356 l 1
 318 363 299 367 269 367 c 3
 232 367 206 334 180 288 c 1
 180 35 l 1
 259 18 l 1
 259 0 l 1
 39 0 l 1
 39 18 l 1
 106 43 l 1
 106 389 l 1
 40 401 l 1
 40 419 l 1
 180 432 l 1
EndSplineSet
Validated: 1
Substitution2: "Single Substitution lookup 14 subtable" r.smcpflag
Substitution2: "'smcp' Lowercase to Small Capitals lookup 10-1" r.smcp
EndChar

StartChar: s
Encoding: 115 115 83
Width: 393
VWidth: 0
GlyphClass: 2
Flags: HMW
AnchorPoint: "bottom" 197 0 basechar 0
AnchorPoint: "top" 201 425 basechar 0
LayerCount: 2
Back
Fore
SplineSet
209 437 m 3
 258 437 289 428 318 415 c 1
 320 310 l 1
 286 307 l 1
 267 379 l 1
 252 391 230 402 191 402 c 3
 139 402 114 379 114 343 c 3
 114 298 166 275 219 250 c 0
 302 211 343 185 343 115 c 3
 343 48 293 -12 176 -12 c 3
 123 -12 90 -4 55 11 c 1
 49 119 l 1
 85 122 l 1
 103 50 l 1
 122 35 146 26 186 26 c 3
 248 26 275 46 275 90 c 3
 275 135 235 154 174 182 c 0
 93 219 55 252 55 319 c 3
 55 380 106 437 209 437 c 3
EndSplineSet
Validated: 1
Substitution2: "Single Substitution lookup 14 subtable" s.smcpflag
Substitution2: "'smcp' Lowercase to Small Capitals lookup 10-1" s.smcp
EndChar

StartChar: t
Encoding: 116 116 84
Width: 348
VWidth: 0
GlyphClass: 2
Flags: HMW
AnchorPoint: "top" 162 588 basechar 0
AnchorPoint: "bottom" 190 0 basechar 0
LayerCount: 2
Back
Fore
SplineSet
167 547 m 1
 181 547 l 1
 181 425 l 1
 291 425 l 1
 291 387 l 1
 181 387 l 1
 181 120 l 2
 181 64 194 39 233 39 c 3
 254 39 272 45 291 59 c 1
 304 39 l 1
 267 6 226 -12 179 -12 c 3
 135 -12 107 15 107 107 c 2
 107 387 l 1
 40 387 l 1
 40 403 l 1
 81 425 l 1
 107 425 l 1
 107 508 l 1
 167 547 l 1
EndSplineSet
Validated: 1
Substitution2: "Single Substitution lookup 14 subtable" t.smcpflag
Substitution2: "'smcp' Lowercase to Small Capitals lookup 10-1" t.smcp
EndChar

StartChar: u
Encoding: 117 117 85
Width: 535
VWidth: -3
GlyphClass: 2
Flags: HMW
AnchorPoint: "bottom" 280 0 basechar 0
AnchorPoint: "top" 270 425 basechar 0
LayerCount: 2
Back
Fore
SplineSet
165 429 m 5
 165 160 l 6
 165 67 195 41 251 41 c 7
 308 41 348 86 375 128 c 5
 375 388 l 5
 311 402 l 5
 311 420 l 5
 449 428 l 5
 449 97 l 5
 458 36 l 5
 507 29 l 5
 508 12 l 5
 375 -9 l 5
 375 82 l 5
 338 34 294 -12 216 -12 c 7
 130 -12 91 41 91 142 c 6
 91 389 l 5
 27 403 l 5
 27 421 l 5
 165 429 l 5
EndSplineSet
Validated: 1
Substitution2: "Single Substitution lookup 14 subtable" u.smcpflag
Substitution2: "'smcp' Lowercase to Small Capitals lookup 10-1" u.smcp
EndChar

StartChar: v
Encoding: 118 118 86
Width: 461
VWidth: -3
GlyphClass: 2
Flags: HMW
AnchorPoint: "bottom" 231 0 basechar 0
AnchorPoint: "top" 246 425 basechar 0
LayerCount: 2
Back
Fore
SplineSet
401 389 m 17
 244 -12 l 1
 216 -12 l 1
 55 393 l 1
 2 407 l 1
 2 425 l 1
 184 425 l 1
 184 407 l 1
 140 391 l 1
 250 101 l 1
 353 392 l 9
 298 407 l 1
 298 425 l 1
 464 425 l 1
 464 407 l 1
 401 389 l 17
EndSplineSet
Validated: 1
Substitution2: "Single Substitution lookup 14 subtable" v.smcpflag
Substitution2: "'smcp' Lowercase to Small Capitals lookup 10-1" v.smcp
EndChar

StartChar: w
Encoding: 119 119 87
Width: 710
VWidth: -3
GlyphClass: 2
Flags: HMW
AnchorPoint: "bottom" 352 0 basechar 0
AnchorPoint: "top" 365 425 basechar 0
LayerCount: 2
Back
Fore
SplineSet
391 406 m 1
 503 103 l 1
 602 392 l 9
 547 407 l 1
 547 425 l 1
 713 425 l 1
 713 407 l 1
 650 389 l 17
 498 -12 l 1
 470 -12 l 1
 352 304 l 1
 239 -12 l 1
 211 -12 l 1
 55 393 l 1
 2 407 l 1
 2 425 l 1
 184 425 l 1
 184 407 l 1
 138 391 l 1
 242 108 l 1
 349 406 l 1
 391 406 l 1
EndSplineSet
Validated: 1
Substitution2: "Single Substitution lookup 14 subtable" w.smcpflag
Substitution2: "'smcp' Lowercase to Small Capitals lookup 10-1" w.smcp
EndChar

StartChar: x
Encoding: 120 120 88
Width: 480
VWidth: 0
GlyphClass: 2
Flags: HMW
LayerCount: 2
Back
SplineSet
222 238 m 1
 245 214 l 1
 141 34 l 1
 175 18 l 1
 175 0 l 1
 30 0 l 1
 30 18 l 1
 95 36 l 1
 222 238 l 1
264 222 m 1
 241 246 l 1
 323 393 l 1
 301 407 l 1
 301 425 l 1
 432 425 l 1
 432 407 l 1
 369 391 l 1
 264 222 l 1
183 393 m 1
 264 246 l 1
 394 36 l 1
 450 18 l 1
 450 0 l 1
 296 0 l 1
 296 18 l 1
 309 30 l 1
 215 201 l 1
 97 390 l 1
 41 407 l 1
 41 425 l 1
 201 425 l 1
 201 407 l 1
 183 393 l 1
EndSplineSet
Fore
SplineSet
41 425 m 1
 201 425 l 1
 201 407 l 1
 183 393 l 1
 253 267 l 1
 323 393 l 1
 301 407 l 1
 301 425 l 1
 432 425 l 1
 432 407 l 1
 369 391 l 1
 271 234 l 1
 394 36 l 1
 450 18 l 1
 450 0 l 1
 296 0 l 1
 296 18 l 1
 309 30 l 1
 226 181 l 1
 141 34 l 1
 175 18 l 1
 175 0 l 1
 30 0 l 1
 30 18 l 1
 95 36 l 1
 207 214 l 1
 97 390 l 1
 41 407 l 1
 41 425 l 1
EndSplineSet
Validated: 1
Substitution2: "Single Substitution lookup 14 subtable" x.smcpflag
Substitution2: "'smcp' Lowercase to Small Capitals lookup 10-1" x.smcp
EndChar

StartChar: y
Encoding: 121 121 89
Width: 451
VWidth: -3
GlyphClass: 2
Flags: HMW
AnchorPoint: "bottom" 208 -230 basechar 0
AnchorPoint: "top" 243 425 basechar 0
LayerCount: 2
Back
Fore
SplineSet
34 -154 m 1
 49 -157 86 -168 101 -168 c 3
 124 -168 143 -158 157 -128 c 0
 171 -99 179 -83 207 -8 c 1
 54 393 l 1
 2 407 l 1
 2 425 l 1
 184 425 l 1
 184 407 l 1
 140 391 l 1
 250 95 l 1
 356 392 l 9
 298 407 l 1
 298 425 l 1
 464 425 l 1
 464 407 l 1
 401 389 l 1
 244 -12 l 2
 185 -161 145 -230 89 -230 c 3
 56 -230 39 -228 18 -223 c 1
 24 -161 l 1
 34 -154 l 1
EndSplineSet
Validated: 1
Substitution2: "Single Substitution lookup 14 subtable" y.smcpflag
Substitution2: "'smcp' Lowercase to Small Capitals lookup 10-1" y.smcp
EndChar

StartChar: z
Encoding: 122 122 90
Width: 427
VWidth: 0
GlyphClass: 2
Flags: HMW
AnchorPoint: "bottom" 219 0 basechar 0
AnchorPoint: "top" 225 425 basechar 0
LayerCount: 2
Back
Fore
SplineSet
327 36 m 5
 351 121 l 5
 387 116 l 5
 371 0 l 5
 47 0 l 5
 40 18 l 5
 274 389 l 1
 114 389 l 1
 94 308 l 1
 57 312 l 1
 71 430 l 1
 91 430 l 1
 146 425 l 1
 364 425 l 1
 373 408 l 1
 137 36 l 5
 327 36 l 5
EndSplineSet
Validated: 1
Substitution2: "Single Substitution lookup 14 subtable" z.smcpflag
Substitution2: "'smcp' Lowercase to Small Capitals lookup 10-1" z.smcp
EndChar

StartChar: braceleft
Encoding: 123 123 91
Width: 310
VWidth: 0
GlyphClass: 2
Flags: HMW
LayerCount: 2
Back
Fore
SplineSet
55 259 m 9
 55 279 l 17
 114 288 134 325 127 410 c 10
 118 520 l 18
 109 627 149 680 237 687 c 1
 240 666 l 1
 181 658 166 619 174 530 c 2
 183 434 l 18
 196 321 159 285 117 269 c 1
 159 253 196 217 183 104 c 10
 174 8 l 2
 166 -81 181 -120 240 -128 c 1
 237 -149 l 1
 149 -142 109 -89 118 18 c 10
 127 128 l 18
 134 213 114 250 55 259 c 9
EndSplineSet
Validated: 33
EndChar

StartChar: bar
Encoding: 124 124 92
Width: 204
VWidth: 0
GlyphClass: 2
Flags: HMW
LayerCount: 2
Back
Fore
SplineSet
83 770 m 1
 121 770 l 1
 121 -230 l 1
 83 -230 l 1
 83 770 l 1
EndSplineSet
Validated: 1
EndChar

StartChar: asciitilde
Encoding: 126 126 94
Width: 460
VWidth: 0
GlyphClass: 2
Flags: HMW
LayerCount: 2
Back
Fore
SplineSet
426 271 m 1
 445 249 l 1
 392 193 348 175 309 175 c 3
 242 175 189 227 128 227 c 3
 99 227 69 215 34 181 c 1
 15 203 l 1
 68 259 112 277 151 277 c 3
 218 277 271 225 332 225 c 3
 361 225 391 237 426 271 c 1
EndSplineSet
Validated: 1
EndChar

StartChar: cent
Encoding: 162 162 96
Width: 453
VWidth: 0
GlyphClass: 2
UnlinkRmOvrlpSave: 1
Flags: HMW
LayerCount: 2
Back
Fore
SplineSet
266 513 m 1
 293 510 l 1
 186 -91 l 1
 159 -88 l 1
 266 513 l 1
EndSplineSet
Refer: 67 99 N 1 0 0 1 6 0 2
EndChar

StartChar: sterling
Encoding: 163 163 97
Width: 444
VWidth: -3
GlyphClass: 2
Flags: HMW
LayerCount: 2
Back
Fore
SplineSet
262 606 m 3
 295 606 315 600 333 594 c 1
 324 534 l 1
 309 528 l 1
 294 533 258 550 238 550 c 3
 214 550 199 547 188 529 c 1
 178 495 177 456 177 391 c 2
 177 336 l 1
 286 336 l 1
 286 298 l 1
 177 298 l 1
 177 44 l 1
 361 44 l 1
 395 128 l 1
 426 123 l 1
 409 0 l 1
 37 0 l 1
 37 20 l 1
 104 45 l 1
 104 298 l 1
 33 298 l 1
 33 314 l 1
 104 336 l 1
 104 352 l 2
 104 531 180 606 262 606 c 3
EndSplineSet
Validated: 1
EndChar

StartChar: yen
Encoding: 165 165 98
Width: 552
VWidth: 0
GlyphClass: 2
Flags: HMW
LayerCount: 2
Back
SplineSet
27 594 m 1
 221 594 l 1
 221 573 l 1
 181 554 l 1
 302 319 l 1
 415 553 l 1
 360 573 l 1
 360 594 l 1
 534 594 l 1
 534 573 l 1
 469 554 l 1
 292 217 l 1
 270 217 l 1
 88 557 l 1
 27 573 l 1
 27 594 l 1
245 274 m 1
 321 274 l 1
 321 243 l 1
 403 243 l 1
 403 209 l 1
 321 209 l 1
 321 153 l 1
 403 153 l 1
 403 119 l 1
 321 119 l 1
 321 39 l 1
 395 20 l 1
 395 0 l 1
 172 0 l 1
 172 20 l 1
 245 45 l 1
 245 119 l 1
 150 119 l 1
 150 135 l 1
 201 153 l 1
 245 153 l 1
 245 209 l 1
 150 209 l 1
 150 225 l 1
 201 243 l 1
 245 243 l 1
 245 274 l 1
EndSplineSet
Fore
SplineSet
27 594 m 1
 221 594 l 1
 221 573 l 1
 181 554 l 1
 302 319 l 1
 415 553 l 1
 360 573 l 1
 360 594 l 1
 534 594 l 1
 534 573 l 1
 469 554 l 1
 321 272 l 1
 321 243 l 1
 403 243 l 1
 403 209 l 1
 321 209 l 1
 321 153 l 1
 403 153 l 1
 403 119 l 1
 321 119 l 1
 321 39 l 1
 395 20 l 1
 395 0 l 1
 172 0 l 1
 172 20 l 1
 245 45 l 1
 245 119 l 1
 150 119 l 1
 150 135 l 1
 201 153 l 1
 245 153 l 1
 245 209 l 1
 150 209 l 1
 150 225 l 1
 201 243 l 1
 245 243 l 1
 245 264 l 1
 88 557 l 1
 27 573 l 1
 27 594 l 1
EndSplineSet
Validated: 1
EndChar

StartChar: brokenbar
Encoding: 166 166 99
Width: 204
VWidth: 0
GlyphClass: 2
Flags: HMW
LayerCount: 2
Back
Fore
SplineSet
83 149 m 1
 121 149 l 1
 121 -230 l 1
 83 -230 l 1
 83 149 l 1
83 770 m 1
 121 770 l 1
 121 425 l 1
 83 425 l 1
 83 770 l 1
EndSplineSet
Validated: 1
EndChar

StartChar: section
Encoding: 167 167 100
Width: 454
VWidth: 0
GlyphClass: 2
Flags: HMW
LayerCount: 2
Back
SplineSet
166 361 m 1
 199 337 l 1
 165 319 117 301 117 242 c 3
 117 178 158 135 237 104 c 0
 347 60 408 14 408 -66 c 3
 408 -148 339 -230 207 -230 c 3
 143 -230 98 -219 55 -202 c 1
 51 -83 l 1
 86 -81 l 1
 103 -165 l 1
 143 -188 193 -195 219 -195 c 3
 276 -195 334 -162 334 -99 c 3
 334 -33 293 4 207 39 c 0
 98 84 53 141 53 218 c 3
 53 291 118 340 166 361 c 1
231 650 m 3
 300 650 340 637 362 628 c 1
 362 521 l 1
 327 519 l 1
 312 597 l 1
 294 607 248 617 221 617 c 3
 174 617 127 588 127 526 c 3
 127 462 159 431 237 398 c 0
 342 354 394 304 394 224 c 3
 394 145 323 97 277 78 c 1
 237 104 l 1
 286 117 322 147 322 193 c 3
 322 259 284 300 199 337 c 0
 95 382 63 425 63 502 c 3
 63 575 127 650 231 650 c 3
EndSplineSet
Fore
SplineSet
231 650 m 3
 300 650 340 637 362 628 c 1
 362 521 l 1
 327 519 l 1
 312 597 l 1
 294 607 248 617 221 617 c 3
 174 617 127 588 127 526 c 3
 127 462 159 431 237 398 c 0
 342 354 394 304 394 224 c 3
 394 150 333 103 287 82 c 1
 366 44 408 1 408 -66 c 3
 408 -148 339 -230 207 -230 c 3
 143 -230 98 -219 55 -202 c 1
 51 -83 l 1
 86 -81 l 1
 103 -165 l 1
 143 -188 193 -195 219 -195 c 3
 276 -195 334 -162 334 -99 c 3
 334 -33 293 4 207 39 c 0
 98 84 53 141 53 218 c 3
 53 287 110 334 157 357 c 1
 86 395 63 436 63 502 c 3
 63 575 127 650 231 650 c 3
199 337 m 1
 165 319 117 301 117 242 c 3
 117 178 158 135 237 104 c 1
 286 117 322 147 322 193 c 3
 322 259 284 300 199 337 c 1
EndSplineSet
Validated: 1
EndChar

StartChar: copyright
Encoding: 169 169 102
Width: 721
VWidth: 0
GlyphClass: 2
Flags: HMW
LayerCount: 2
Back
Fore
SplineSet
34 352 m 3
 34 169 172 30 360 30 c 3
 548 30 687 169 687 352 c 3
 687 535 548 674 360 674 c 3
 169 674 34 535 34 352 c 3
4 352 m 3
 4 551 156 704 360 704 c 3
 569 704 717 556 717 352 c 3
 717 153 564 0 360 0 c 3
 156 0 4 153 4 352 c 3
EndSplineSet
Refer: 683 -1 N 1 0 0 1 103 125 2
Validated: 1
EndChar

StartChar: ordfeminine
Encoding: 170 170 103
Width: 354
VWidth: -3
GlyphClass: 2
Flags: HMW
LayerCount: 2
Back
Fore
SplineSet
180 690 m 3
 230 690 271 662 271 586 c 2
 271 470 l 1
 278 419 l 1
 314 416 l 1
 314 394 l 1
 211 377 l 1
 211 432 l 1
 189 392 149 375 115 375 c 3
 63 375 40 417 40 452 c 3
 40 479 57 527 110 537 c 0
 158 547 189 548 210 551 c 1
 210 572 l 2
 210 625 192 649 153 649 c 3
 124 649 108 643 80 625 c 1
 65 650 l 1
 104 676 137 690 180 690 c 3
210 522 m 1
 194 520 180 518 158 515 c 0
 115 509 103 486 103 461 c 3
 103 434 115 421 144 421 c 3
 166 421 210 437 210 522 c 1
EndSplineSet
Validated: 1
EndChar

StartChar: logicalnot
Encoding: 172 172 105
Width: 494
VWidth: 0
GlyphClass: 2
Flags: HMW
LayerCount: 2
Back
Fore
SplineSet
42 254 m 1
 452 254 l 1
 452 49 l 1
 418 49 l 1
 418 220 l 1
 42 220 l 1
 42 254 l 1
EndSplineSet
Validated: 1
EndChar

StartChar: registered
Encoding: 174 174 107
Width: 721
VWidth: 0
GlyphClass: 2
Flags: HMW
LayerCount: 2
Back
Fore
SplineSet
34 352 m 3
 34 169 172 30 360 30 c 3
 548 30 687 169 687 352 c 3
 687 535 548 674 360 674 c 3
 169 674 34 535 34 352 c 3
4 352 m 3
 4 551 156 704 360 704 c 3
 569 704 717 556 717 352 c 3
 717 153 564 0 360 0 c 3
 156 0 4 153 4 352 c 3
EndSplineSet
Refer: 698 -1 N 1 0 0 1 105 125 2
Validated: 1
EndChar

StartChar: degree
Encoding: 176 176 109
Width: 282
VWidth: -3
GlyphClass: 2
Flags: HMW
LayerCount: 2
Back
Fore
SplineSet
142 660 m 3
 119 660 104 653 93 643 c 1
 79 626 72 614 72 581 c 3
 72 521 104 496 142 496 c 3
 165 496 179 503 190 513 c 1
 204 530 210 542 210 575 c 3
 210 635 180 660 142 660 c 3
135 465 m 3
 93 465 30 496 30 571 c 3
 30 643 79 690 146 690 c 3
 188 690 252 660 252 585 c 3
 252 513 202 465 135 465 c 3
EndSplineSet
Validated: 1
EndChar

StartChar: plusminus
Encoding: 177 177 110
Width: 460
VWidth: 0
GlyphClass: 2
Flags: HMW
LayerCount: 2
Back
Fore
SplineSet
42 249 m 1
 42 283 l 1
 213 283 l 1
 213 425 l 1
 247 425 l 1
 247 283 l 1
 418 283 l 1
 418 249 l 1
 247 249 l 1
 247 108 l 1
 213 108 l 1
 213 249 l 1
 42 249 l 1
42 29 m 1
 42 63 l 1
 418 63 l 1
 418 29 l 1
 42 29 l 1
EndSplineSet
Validated: 1
EndChar

StartChar: uni00B2
Encoding: 178 178 111
Width: 400
VWidth: 0
GlyphClass: 3
Flags: HMW
LayerCount: 2
Back
Fore
SplineSet
185 722 m 3
 149 722 134 716 94 693 c 1
 79 718 l 1
 130 754 161 770 212 770 c 3
 274 770 319 723 319 651 c 3
 319 562 243 475 148 414 c 1
 292 414 l 9
 319 453 l 1
 340 448 l 1
 323 358 l 1
 66 358 l 1
 60 390 l 1
 215 487 251 563 251 638 c 3
 251 693 222 722 185 722 c 3
EndSplineSet
Validated: 1
LCarets2: 1 0
Ligature2: "'dlig' Discretionary Ligatures lookup 3-1" asciicircum two
EndChar

StartChar: uni00B3
Encoding: 179 179 112
Width: 368
VWidth: 0
GlyphClass: 3
Flags: HMW
LayerCount: 2
Back
Fore
SplineSet
306 486 m 3
 306 392 203 348 60 348 c 1
 60 380 l 1
 189 380 234 418 234 473 c 3
 234 500 221 522 196 535 c 0
 173 547 161 548 133 549 c 1
 130 570 l 1
 181 597 204 626 204 672 c 3
 204 703 177 730 150 730 c 3
 121 730 100 726 73 712 c 1
 62 733 l 1
 99 757 131 770 174 770 c 3
 232 770 272 737 272 683 c 3
 272 625 228 593 196 578 c 1
 216 577 227 574 242 569 c 0
 283 555 306 530 306 486 c 3
EndSplineSet
Validated: 1
LCarets2: 1 0
Ligature2: "'dlig' Discretionary Ligatures lookup 3-1" asciicircum three
EndChar

StartChar: mu
Encoding: 181 181 114
Width: 535
VWidth: -3
GlyphClass: 2
Flags: HMW
LayerCount: 2
Back
Fore
SplineSet
171 429 m 1
 171 160 l 2
 171 67 202 41 257 41 c 3
 314 41 354 86 381 128 c 1
 381 388 l 1
 317 402 l 1
 317 420 l 1
 455 428 l 1
 455 97 l 1
 464 36 l 1
 513 29 l 1
 514 12 l 1
 381 -9 l 1
 381 82 l 1
 344 34 300 -12 222 -12 c 3
 197 -12 167 -9 154 5 c 1
 175 -202 l 1
 98 -230 l 1
 87 -215 l 1
 97 -38 l 1
 97 389 l 1
 33 403 l 1
 33 421 l 1
 171 429 l 1
EndSplineSet
Validated: 1
EndChar

StartChar: paragraph
Encoding: 182 182 115
Width: 523
VWidth: 0
GlyphClass: 2
Flags: HMW
LayerCount: 2
Back
Fore
SplineSet
289 600 m 1
 289 0 l 1
 244 0 l 1
 244 256 l 1
 111 256 25 318 25 437 c 3
 25 554 92 638 235 638 c 2
 473 638 l 1
 473 618 l 1
 399 596 l 1
 399 0 l 1
 354 0 l 1
 354 600 l 1
 289 600 l 1
EndSplineSet
Validated: 1
EndChar

StartChar: uni00B9
Encoding: 185 185 118
Width: 322
VWidth: -3
GlyphClass: 3
Flags: HMW
LayerCount: 2
Back
Fore
SplineSet
199 394 m 1
 269 378 l 1
 269 359 l 1
 55 359 l 1
 55 378 l 1
 136 403 l 1
 136 717 l 1
 65 729 l 1
 65 749 l 1
 199 764 l 1
 199 394 l 1
EndSplineSet
Validated: 1
LCarets2: 1 0
Ligature2: "'dlig' Discretionary Ligatures lookup 3-1" asciicircum one
EndChar

StartChar: ordmasculine
Encoding: 186 186 119
Width: 362
VWidth: -3
GlyphClass: 2
Flags: HMW
LayerCount: 2
Back
Fore
SplineSet
184 657 m 3
 155 657 147 650 132 637 c 1
 117 613 106 592 106 538 c 3
 106 455 132 409 181 409 c 3
 210 409 218 417 233 430 c 1
 248 454 257 475 257 529 c 3
 257 612 233 657 184 657 c 3
170 376 m 3
 118 376 40 415 40 524 c 3
 40 629 102 690 191 690 c 3
 243 690 323 652 323 543 c 3
 323 438 259 376 170 376 c 3
EndSplineSet
Validated: 1
EndChar

StartChar: AE
Encoding: 198 198 131
Width: 855
VWidth: 0
GlyphClass: 2
Flags: HMW
LayerCount: 2
Back
SplineSet
764 638 m 1
 769 510 l 1
 737 507 l 1
 712 596 l 9
 493 596 l 2
 493 44 l 25
 742 44 l 17
 780 133 l 1
 811 128 l 1
 790 0 l 1
 340 0 l 1
 340 20 l 1
 417 45 l 1
 417 596 l 1
 334 596 l 1
 260 617 l 1
 260 638 l 1
 764 638 l 1
493 312 m 1
 493 353 l 1
 661 353 l 9
 683 409 l 1
 711 409 l 1
 711 256 l 1
 683 256 l 1
 661 312 l 17
 493 312 l 1
180 259 m 1
 447 259 l 1
 447 216 l 1
 175 216 l 1
 180 259 l 1
385 596 m 1
 125 44 l 1
 185 21 l 1
 185 0 l 1
 -10 0 l 1
 -10 21 l 1
 70 43 l 1
 334 596 l 1
 385 596 l 1
EndSplineSet
Fore
SplineSet
260 638 m 1
 764 638 l 1
 769 510 l 1
 737 507 l 1
 712 596 l 1
 493 596 l 1
 493 353 l 1
 661 353 l 1
 683 409 l 1
 711 409 l 1
 711 256 l 1
 683 256 l 1
 661 312 l 1
 493 312 l 1
 493 44 l 1
 742 44 l 1
 780 133 l 1
 811 128 l 1
 790 0 l 1
 340 0 l 1
 340 20 l 1
 417 45 l 1
 417 216 l 1
 206 216 l 1
 125 44 l 1
 185 21 l 1
 185 0 l 1
 -10 0 l 1
 -10 21 l 1
 70 43 l 1
 334 596 l 1
 260 617 l 1
 260 638 l 1
226 259 m 1
 417 259 l 1
 417 596 l 1
 385 596 l 1
 226 259 l 1
EndSplineSet
Validated: 1
Colour: ff9994
EndChar

StartChar: Eth
Encoding: 208 208 141
Width: 733
VWidth: 0
GlyphClass: 2
UnlinkRmOvrlpSave: 1
Flags: HMW
LayerCount: 2
Back
Fore
SplineSet
35 315 m 1
 35 352 l 1
 359 352 l 1
 359 315 l 1
 35 315 l 1
EndSplineSet
Refer: 36 68 N 1 0 0 1 5 0 2
EndChar

StartChar: multiply
Encoding: 215 215 148
Width: 460
VWidth: 0
GlyphClass: 2
Flags: HMW
LayerCount: 2
Back
SplineSet
86 358 m 1
 110 382 l 1
 374 116 l 1
 350 92 l 1
 86 358 l 1
110 92 m 1
 86 116 l 1
 350 382 l 1
 374 358 l 1
 110 92 l 1
EndSplineSet
Fore
SplineSet
110 382 m 1
 230 261 l 1
 350 382 l 1
 374 358 l 1
 254 237 l 1
 374 116 l 1
 350 92 l 1
 230 213 l 1
 110 92 l 1
 86 116 l 1
 206 237 l 1
 86 358 l 1
 110 382 l 1
EndSplineSet
Validated: 1
EndChar

StartChar: Oslash
Encoding: 216 216 149
Width: 707
VWidth: 0
GlyphClass: 2
UnlinkRmOvrlpSave: 1
Flags: HMW
LayerCount: 2
Back
Fore
SplineSet
596 680 m 1
 626 659 l 1
 115 -42 l 1
 85 -21 l 1
 596 680 l 1
EndSplineSet
Refer: 47 79 N 1 0 0 1 0 0 2
EndChar

StartChar: Thorn
Encoding: 222 222 155
Width: 532
VWidth: 0
GlyphClass: 2
Flags: HMW
LayerCount: 2
Back
Fore
SplineSet
60 638 m 1
 274 638 l 1
 274 618 l 1
 210 596 l 1
 210 516 l 1
 302 516 l 2
 443 516 506 465 506 353 c 3
 506 236 423 164 260 164 c 2
 243 164 l 1
 243 196 l 1
 259 196 l 2
 374 196 424 245 424 345 c 3
 424 442 368 478 269 478 c 2
 210 478 l 1
 210 39 l 1
 279 20 l 1
 279 0 l 1
 60 0 l 1
 60 20 l 1
 133 45 l 1
 133 596 l 1
 60 618 l 1
 60 638 l 1
EndSplineSet
Validated: 1
Colour: ff9994
EndChar

StartChar: germandbls
Encoding: 223 223 156
Width: 543
VWidth: -3
GlyphClass: 2
Flags: HMW
LayerCount: 2
Back
Fore
SplineSet
270 684 m 3
 354 684 402 620 402 536 c 3
 402 484 390 450 362 409 c 1
 333 394 307 372 307 338 c 3
 307 293 351 278 402 250 c 0
 470 213 501 180 501 122 c 3
 501 57 464 -12 357 -12 c 3
 307 -12 288 -4 258 5 c 1
 252 108 l 1
 288 111 l 1
 306 44 l 1
 322 32 339 25 367 25 c 3
 408 25 438 49 438 92 c 3
 438 137 416 151 357 182 c 0
 286 219 253 252 253 314 c 3
 253 373 292 411 341 437 c 1
 357 459 364 482 364 531 c 3
 364 606 326 649 258 649 c 3
 226 649 207 632 196 607 c 0
 186 573 185 529 185 464 c 2
 185 0 l 1
 41 0 l 1
 41 18 l 1
 111 43 l 1
 111 43 112 290 112 387 c 1
 39 387 l 1
 39 403 l 1
 111 425 l 1
 112 425 l 1
 112 604 188 684 270 684 c 3
EndSplineSet
Validated: 1
Colour: ff9994
EndChar

StartChar: ae
Encoding: 230 230 163
Width: 648
VWidth: -3
GlyphClass: 2
Flags: HMW
LayerCount: 2
Back
Fore
SplineSet
283 234 m 1
 283 269 l 2
 283 354 257 388 197 388 c 3
 155 388 127 379 91 355 c 1
 76 380 l 1
 127 417 169 437 231 437 c 3
 278 437 331 411 342 361 c 1
 378 411 419 437 481 437 c 3
 556 437 597 393 597 293 c 1
 590 244 l 1
 357 211 l 1
 363 87 423 33 507 33 c 3
 536 33 565 41 594 54 c 1
 601 36 l 1
 573 11 527 -12 473 -12 c 3
 385 -12 330 30 303 96 c 1
 276 42 223 -12 147 -12 c 3
 72 -12 40 47 40 97 c 3
 40 136 65 199 141 214 c 0
 210 228 253 230 283 234 c 1
283 199 m 1
 253 196 207 190 175 184 c 0
 130 175 118 139 118 110 c 3
 118 72 130 37 181 37 c 3
 213 37 268 80 283 146 c 1
 283 199 l 1
463 395 m 3
 392 395 359 335 357 245 c 1
 462 258 l 1
 528 280 l 1
 528 366 506 395 463 395 c 3
EndSplineSet
Validated: 1
Colour: ff9994
EndChar

StartChar: eth
Encoding: 240 240 173
Width: 500
VWidth: 0
GlyphClass: 2
Flags: HMW
LayerCount: 2
Back
SplineSet
193 461 m 1
 171 487 l 1
 359 649 l 1
 381 623 l 1
 193 461 l 1
365 287 m 1
 328 316 287 328 250 328 c 3
 192 328 152 276 152 182 c 3
 152 81 205 24 266 24 c 3
 328 24 361 103 361 183 c 3
 361 409 313 503 199 616 c 9
 217 638 l 17
 366 526 435 416 435 220 c 3
 435 70 357 -12 259 -12 c 3
 151 -12 76 44 76 166 c 3
 76 268 138 359 241 359 c 3
 303 359 331 347 365 322 c 1
 365 287 l 1
EndSplineSet
Fore
SplineSet
359 649 m 1
 381 623 l 1
 308 560 l 1
 395 471 435 371 435 220 c 3
 435 70 357 -12 259 -12 c 3
 151 -12 76 44 76 166 c 3
 76 268 138 359 241 359 c 3
 295 359 323 350 352 331 c 1
 340 414 314 475 274 531 c 1
 193 461 l 1
 171 487 l 1
 253 558 l 1
 237 577 219 596 199 616 c 1
 217 638 l 1
 241 620 263 602 283 584 c 1
 359 649 l 1
250 328 m 3
 192 328 152 276 152 182 c 3
 152 81 205 24 266 24 c 3
 328 24 361 103 361 183 c 3
 361 224 359 261 356 294 c 1
 321 318 284 328 250 328 c 3
EndSplineSet
Validated: 1
EndChar

StartChar: divide
Encoding: 247 247 180
Width: 460
VWidth: 0
GlyphClass: 2
Flags: HMW
LayerCount: 2
Back
Fore
SplineSet
42 254 m 1
 418 254 l 1
 418 220 l 1
 42 220 l 1
 42 254 l 1
EndSplineSet
Refer: 219 729 N 1 0 0 1 30 -481 2
Refer: 219 729 N 1 0 0 1 30 -207 2
Validated: 1
EndChar

StartChar: oslash
Encoding: 248 248 181
Width: 484
VWidth: -3
GlyphClass: 2
UnlinkRmOvrlpSave: 1
Flags: HMW
LayerCount: 2
Back
Fore
SplineSet
408 469 m 1
 438 448 l 1
 82 -42 l 1
 52 -21 l 1
 408 469 l 1
EndSplineSet
Refer: 79 111 N 1 0 0 1 0 0 2
EndChar

StartChar: thorn
Encoding: 254 254 187
Width: 529
VWidth: -3
GlyphClass: 2
Flags: HMW
LayerCount: 2
Back
Fore
SplineSet
171 690 m 1
 171 352 l 1
 199 393 247 437 324 437 c 3
 412 437 484 375 484 227 c 3
 484 131 421 -12 241 -12 c 3
 217 -12 189 -6 171 0 c 1
 171 -196 l 1
 245 -212 l 1
 245 -230 l 1
 30 -230 l 1
 30 -212 l 1
 97 -189 l 1
 97 647 l 1
 31 659 l 1
 31 677 l 1
 171 690 l 1
289 383 m 3
 236 383 191 346 171 300 c 1
 171 39 l 1
 196 31 223 24 260 24 c 3
 333 24 404 74 404 216 c 3
 404 342 354 383 289 383 c 3
EndSplineSet
Validated: 1
Colour: ff9994
EndChar

StartChar: dotlessi
Encoding: 305 305 189
Width: 282
VWidth: -3
GlyphClass: 2
Flags: HMW
AnchorPoint: "bottom" 142 0 basechar 0
AnchorPoint: "top" 139 425 basechar 0
LayerCount: 2
Back
Fore
SplineSet
183 432 m 1
 183 34 l 1
 247 18 l 1
 247 0 l 1
 39 0 l 1
 39 18 l 1
 109 43 l 1
 109 389 l 1
 43 401 l 1
 43 419 l 1
 183 432 l 1
EndSplineSet
Validated: 1
Colour: ff9994
EndChar

StartChar: OE
Encoding: 338 338 190
Width: 869
VWidth: 0
GlyphClass: 2
Flags: HMW
LayerCount: 2
Back
Fore
SplineSet
374 638 m 2
 767 638 l 1
 772 510 l 1
 740 507 l 1
 715 596 l 1
 499 596 l 1
 499 353 l 1
 664 353 l 1
 686 409 l 1
 714 409 l 1
 714 256 l 1
 686 256 l 1
 664 312 l 1
 499 312 l 1
 499 44 l 1
 745 44 l 1
 783 133 l 1
 814 128 l 1
 793 0 l 1
 329 0 l 2
 217 0 63 73 63 300 c 3
 63 519 185 638 374 638 c 2
364 596 m 2
 292 596 241 576 210 542 c 1
 177 498 142 455 142 325 c 3
 142 133 239 44 339 44 c 2
 422 44 l 1
 422 596 l 1
 364 596 l 2
EndSplineSet
Validated: 1
Colour: ff9994
EndChar

StartChar: oe
Encoding: 339 339 191
Width: 729
VWidth: -3
GlyphClass: 2
Flags: HMW
LayerCount: 2
Back
SplineSet
243 399 m 3
 151 399 120 337 120 220 c 3
 120 101 169 27 239 27 c 3
 331 27 358 91 358 208 c 3
 358 327 313 399 243 399 c 3
250 437 m 3
 338 437 431 383 431 222 c 3
 431 77 354 -12 227 -12 c 3
 142 -12 40 44 40 205 c 3
 40 350 123 437 250 437 c 3
560 437 m 3
 642 437 687 392 687 290 c 1
 674 232 l 1
 428 232 l 1
 428 266 l 1
 569 266 l 1
 619 280 l 1
 619 365 594 400 542 400 c 3
 469 400 432 352 432 232 c 3
 432 93 496 33 585 33 c 3
 614 33 646 41 675 54 c 1
 682 36 l 1
 654 11 605 -12 551 -12 c 3
 419 -12 358 78 358 208 c 3
 358 349 452 437 560 437 c 3
EndSplineSet
Fore
SplineSet
250 437 m 3
 307 437 366 414 401 354 c 1
 439 407 497 437 560 437 c 3
 642 437 687 392 687 290 c 1
 674 232 l 1
 432 232 l 1
 432 93 496 33 585 33 c 3
 614 33 646 41 675 54 c 1
 682 36 l 1
 654 11 605 -12 551 -12 c 3
 474 -12 422 18 391 69 c 1
 356 17 300 -12 227 -12 c 3
 142 -12 40 44 40 205 c 3
 40 350 123 437 250 437 c 3
243 399 m 3
 151 399 120 337 120 220 c 3
 120 101 169 27 239 27 c 3
 331 27 358 91 358 208 c 3
 358 327 313 399 243 399 c 3
542 400 m 3
 476 400 440 361 433 266 c 1
 569 266 l 1
 619 280 l 1
 619 365 594 400 542 400 c 3
EndSplineSet
Validated: 1
Colour: ff9994
EndChar

StartChar: longs
Encoding: 383 383 197
Width: 317
VWidth: -3
GlyphClass: 2
Flags: HMW
LayerCount: 2
Back
Fore
SplineSet
270 684 m 3
 303 684 323 678 341 672 c 1
 332 612 l 1
 317 606 l 1
 302 611 266 628 246 628 c 3
 222 628 207 625 196 607 c 1
 186 573 185 534 185 469 c 2
 185 34 l 1
 254 18 l 1
 254 0 l 1
 46 0 l 1
 46 18 l 1
 112 43 l 1
 112 387 l 1
 44 387 l 1
 44 403 l 1
 111 425 l 1
 112 425 l 1
 112 430 l 2
 112 609 188 684 270 684 c 3
EndSplineSet
Validated: 1
EndChar

StartChar: Sigma
Encoding: 931 931 204
Width: 579
VWidth: 0
GlyphClass: 2
Flags: HMW
LayerCount: 2
Back
Fore
SplineSet
275 320 m 1
 58 618 l 1
 63 638 l 1
 492 638 l 1
 497 510 l 1
 465 507 l 1
 440 596 l 9
 161 596 l 1
 340 359 l 1
 340 342 l 1
 132 64 l 9
 470 64 l 17
 508 133 l 1
 539 128 l 1
 518 0 l 1
 57 0 l 1
 52 20 l 1
 275 320 l 1
EndSplineSet
Validated: 1
EndChar

StartChar: endash
Encoding: 8211 8211 206
Width: 500
VWidth: 0
GlyphClass: 3
Flags: HMW
LayerCount: 2
Back
Fore
SplineSet
20 217 m 1
 20 251 l 1
 480 251 l 1
 480 217 l 1
 20 217 l 1
EndSplineSet
Validated: 1
Ligature2: "SmallCapsClose subtable" endash.smcpflag less slash s c greater
Substitution2: "Single Substitution lookup 14 subtable" endash.smcpflag
EndChar

StartChar: emdash
Encoding: 8212 8212 207
Width: 940
VWidth: 0
GlyphClass: 3
Flags: HMW
LayerCount: 2
Back
Fore
SplineSet
20 217 m 1
 20 251 l 1
 920 251 l 1
 920 217 l 1
 20 217 l 1
EndSplineSet
Validated: 1
LCarets2: 5 0 0 0 0 0
Ligature2: "SmallCapsClose subtable" emdash.smcpflag less slash s c greater
Substitution2: "Single Substitution lookup 14 subtable" emdash.smcpflag
EndChar

StartChar: quoteright
Encoding: 8217 8217 209
Width: 167
VWidth: 0
GlyphClass: 3
Flags: HMW
LayerCount: 2
Back
Fore
SplineSet
81 690 m 3
 120 690 142 658 142 605 c 3
 142 542 104 489 40 446 c 1
 27 467 l 1
 74 497 94 536 94 563 c 3
 94 571 93 577 90 582 c 1
 46 582 25 607 25 639 c 3
 25 665 46 690 81 690 c 3
EndSplineSet
Validated: 1
Ligature2: "SmallCapsClose subtable" quoteright.smcpflag less slash s c greater
Substitution2: "Single Substitution lookup 14 subtable" quoteright.smcpflag
EndChar

StartChar: Delta
Encoding: 8710 8710 213
Width: 652
VWidth: 0
GlyphClass: 2
Flags: HMW
LayerCount: 2
Back
Fore
SplineSet
590 0 m 1
 70 0 l 1
 303 650 l 1
 347 650 l 1
 590 0 l 1
128 37 m 1
 490 37 l 1
 307 541 l 1
 128 37 l 1
EndSplineSet
Validated: 1
EndChar

StartChar: summation
Encoding: 8721 8721 214
Width: 750
VWidth: 0
GlyphClass: 2
Flags: HMW
LayerCount: 2
Back
Fore
SplineSet
331 276 m 1
 42 750 l 1
 47 770 l 1
 647 770 l 1
 652 632 l 1
 615 629 l 1
 595 728 l 9
 145 728 l 1
 396 315 l 1
 396 298 l 1
 108 -166 l 9
 617 -166 l 17
 650 -87 l 1
 686 -92 l 1
 665 -230 l 1
 33 -230 l 1
 28 -210 l 1
 331 276 l 1
EndSplineSet
Validated: 1
EndChar

StartChar: minus
Encoding: 8722 8722 215
Width: 460
VWidth: 0
GlyphClass: 2
Flags: HMW
LayerCount: 2
Back
Fore
SplineSet
42 220 m 1
 42 254 l 1
 418 254 l 1
 418 220 l 1
 42 220 l 1
EndSplineSet
Validated: 1
EndChar

StartChar: radical
Encoding: 8730 8730 216
Width: 580
GlyphClass: 2
Flags: HMW
LayerCount: 2
Back
Fore
SplineSet
57 345 m 1
 50 362 l 1
 154 429 l 1
 169 422 l 1
 273 87 l 1
 580 938 l 1
 610 928 l 1
 276 -9 l 1
 237 -9 l 1
 115 362 l 1
 57 345 l 1
EndSplineSet
Validated: 1
EndChar

StartChar: eogonek
Encoding: 281 281 221
Width: 423
VWidth: -3
GlyphClass: 2
UnlinkRmOvrlpSave: 1
Flags: HMW
LayerCount: 2
Back
Fore
SplineSet
375 36 m 1
 265 -38 230 -70 230 -129 c 3
 230 -166 263 -192 300 -192 c 3
 327 -192 346 -188 364 -177 c 1
 374 -196 l 1
 350 -212 314 -230 273 -230 c 3
 217 -230 174 -196 174 -142 c 3
 174 -85 222 -38 290 9 c 1
 375 36 l 1
EndSplineSet
Refer: 69 101 N 1 0 0 1 0 0 2
EndChar

StartChar: aogonek
Encoding: 261 261 313
Width: 448
VWidth: -3
GlyphClass: 2
Flags: HMW
LayerCount: 2
Back
Fore
SplineSet
283 199 m 1
 253 196 196 190 165 180 c 0
 126 167 118 139 118 110 c 3
 118 72 130 37 181 37 c 3
 225 37 283 68 283 199 c 1
231 437 m 3
 304 437 357 398 357 289 c 2
 357 87 l 1
 369 36 l 1
 409 32 l 1
 410 15 l 1
 315 -17 l 2
 265 -41 230 -70 230 -129 c 3
 230 -166 263 -192 300 -192 c 3
 327 -192 346 -188 364 -177 c 1
 374 -196 l 1
 350 -212 314 -230 273 -230 c 3
 217 -230 174 -196 174 -142 c 3
 174 -85 224 -41 291 1 c 1
 290 1 285 75 285 75 c 1
 254 8 195 -12 147 -12 c 3
 72 -12 40 41 40 91 c 3
 40 140 67 191 142 211 c 0
 186 223 253 230 283 234 c 1
 283 269 l 2
 283 354 261 388 202 388 c 3
 160 388 131 380 91 355 c 1
 76 380 l 1
 127 417 170 437 231 437 c 3
EndSplineSet
Validated: 1
Colour: ff9994
EndChar

StartChar: Aogonek
Encoding: 260 260 314
Width: 652
VWidth: 0
GlyphClass: 2
Flags: HMW
LayerCount: 2
Back
SplineSet
303 650 m 1
 347 650 l 1
 577 35 l 1
 623 18 l 1
 623 0 l 1
 562 0 l 2
 464 0 392 -70 392 -129 c 3
 392 -166 425 -192 462 -192 c 3
 489 -192 508 -188 526 -177 c 1
 536 -196 l 1
 512 -212 476 -230 435 -230 c 3
 379 -230 336 -196 336 -142 c 3
 336 -85 383 -41 450 1 c 1
 487 38 l 1
 307 541 l 1
 140 40 l 1
 205 18 l 1
 205 0 l 1
 19 0 l 1
 19 18 l 1
 85 39 l 1
 303 650 l 1
175 253 m 1
 480 253 l 1
 480 216 l 1
 175 216 l 1
 175 253 l 1
EndSplineSet
Fore
SplineSet
303 650 m 1
 347 650 l 1
 577 35 l 1
 623 18 l 1
 623 0 l 1
 562 0 l 2
 464 0 392 -70 392 -129 c 3
 392 -166 425 -192 462 -192 c 3
 489 -192 508 -188 526 -177 c 1
 536 -196 l 1
 512 -212 476 -230 435 -230 c 3
 379 -230 336 -196 336 -142 c 3
 336 -85 383 -41 450 1 c 1
 487 38 l 1
 423 216 l 1
 199 216 l 1
 140 40 l 1
 205 18 l 1
 205 0 l 1
 19 0 l 1
 19 18 l 1
 85 39 l 1
 303 650 l 1
307 541 m 5
 211 253 l 1
 410 253 l 1
 307 541 l 5
EndSplineSet
Validated: 1
Colour: ff9994
EndChar

StartChar: Eogonek
Encoding: 280 280 315
Width: 579
VWidth: 0
GlyphClass: 2
UnlinkRmOvrlpSave: 1
Flags: HMW
LayerCount: 2
Back
Fore
SplineSet
488 0 m 17
 410 -40 361 -79 361 -129 c 3
 361 -166 394 -192 431 -192 c 3
 458 -192 477 -188 495 -177 c 1
 505 -196 l 1
 481 -212 445 -230 404 -230 c 3
 348 -230 305 -196 305 -142 c 3
 305 -85 352 -48 425 0 c 1
 488 0 l 17
EndSplineSet
Refer: 37 69 N 1 0 0 1 0 0 2
EndChar

StartChar: uni0237
Encoding: 567 567 317
Width: 282
VWidth: -3
GlyphClass: 2
Flags: HMW
AnchorPoint: "bottom" 124 -230 basechar 0
AnchorPoint: "top" 135 425 basechar 0
LayerCount: 2
Back
Fore
SplineSet
185 432 m 1
 185 61 l 2
 185 -26 145 -166 32 -232 c 1
 20 -215 l 1
 93 -151 111 -41 111 22 c 2
 111 389 l 1
 45 401 l 1
 45 419 l 1
 185 432 l 1
EndSplineSet
Validated: 1
Colour: ff9994
EndChar

StartChar: Iogonek
Encoding: 302 302 324
Width: 343
VWidth: 0
GlyphClass: 2
UnlinkRmOvrlpSave: 1
Flags: HMW
LayerCount: 2
Back
Fore
SplineSet
114 -13 m 1
 133 45 l 1
 133 596 l 1
 60 618 l 1
 60 638 l 1
 283 638 l 1
 283 618 l 1
 209 596 l 1
 209 39 l 1
 257 20 l 1
 257 0 l 1
 133 0 99 -70 99 -129 c 3
 99 -166 132 -192 169 -192 c 3
 196 -192 215 -188 233 -177 c 1
 243 -196 l 1
 219 -212 183 -230 142 -230 c 3
 86 -230 43 -196 43 -142 c 3
 43 -97 69 -55 114 -13 c 1
EndSplineSet
Colour: ff9994
EndChar

StartChar: iogonek
Encoding: 303 303 325
Width: 278
VWidth: -3
GlyphClass: 2
Flags: HMW
LayerCount: 2
Back
Fore
SplineSet
139 665 m 3
 166 665 189 643 189 616 c 3
 189 589 166 566 139 566 c 3
 112 566 90 589 90 616 c 3
 90 643 112 665 139 665 c 3
183 432 m 1
 183 34 l 1
 247 18 l 1
 247 0 l 1
 123 0 75 -72 75 -131 c 3
 75 -168 108 -194 145 -194 c 3
 172 -194 191 -190 209 -179 c 1
 219 -198 l 1
 195 -214 159 -232 118 -232 c 3
 62 -232 19 -198 19 -144 c 3
 19 -99 45 -57 90 -15 c 1
 109 43 l 1
 109 389 l 1
 43 401 l 1
 43 419 l 1
 183 432 l 1
EndSplineSet
Validated: 1
Colour: ff8f94
EndChar

StartChar: Uogonek
Encoding: 370 370 327
Width: 670
VWidth: 0
GlyphClass: 2
UnlinkRmOvrlpSave: 1
Flags: HMW
LayerCount: 2
Back
Fore
SplineSet
434 36 m 1
 324 -38 289 -70 289 -129 c 3
 289 -166 322 -192 359 -192 c 3
 386 -192 405 -188 423 -177 c 1
 433 -196 l 1
 409 -212 373 -230 332 -230 c 3
 276 -230 233 -196 233 -142 c 3
 233 -85 281 -38 349 9 c 1
 434 36 l 1
EndSplineSet
Refer: 53 85 N 1 0 0 1 0 0 2
EndChar

StartChar: uogonek
Encoding: 371 371 328
Width: 535
VWidth: -3
GlyphClass: 2
Flags: HMW
LayerCount: 2
Back
Fore
SplineSet
165 429 m 1
 165 160 l 2
 165 67 195 41 251 41 c 3
 308 41 348 86 375 128 c 1
 375 388 l 1
 311 402 l 1
 311 420 l 1
 449 428 l 1
 449 87 l 1
 461 36 l 1
 501 32 l 1
 502 15 l 1
 407 -17 l 2
 357 -41 322 -70 322 -129 c 3
 322 -166 355 -192 392 -192 c 3
 419 -192 438 -188 456 -177 c 1
 466 -196 l 1
 442 -212 406 -230 365 -230 c 3
 309 -230 266 -196 266 -142 c 3
 266 -85 316 -41 383 1 c 1
 382 1 375 82 375 82 c 1
 338 34 294 -12 216 -12 c 3
 130 -12 91 41 91 142 c 2
 91 389 l 1
 27 403 l 1
 27 421 l 1
 165 429 l 1
EndSplineSet
Validated: 1
Colour: ff9994
EndChar

StartChar: dcroat
Encoding: 273 273 331
Width: 529
VWidth: -3
GlyphClass: 2
UnlinkRmOvrlpSave: 1
Flags: HMW
LayerCount: 2
Back
Fore
SplineSet
483 524 m 1
 236 524 l 1
 236 540 l 1
 303 562 l 1
 483 562 l 1
 483 524 l 1
EndSplineSet
Refer: 68 100 N 1 0 0 1 0 0 2
EndChar

StartChar: Hbar
Encoding: 294 294 332
Width: 700
VWidth: 0
GlyphClass: 2
UnlinkRmOvrlpSave: 1
Flags: HMW
LayerCount: 2
Back
Fore
SplineSet
642 460 m 1
 59 460 l 1
 59 476 l 1
 115 498 l 1
 642 498 l 1
 642 460 l 1
EndSplineSet
Refer: 40 72 N 1 0 0 1 0 0 2
EndChar

StartChar: hbar
Encoding: 295 295 333
Width: 569
VWidth: -3
GlyphClass: 2
UnlinkRmOvrlpSave: 1
Flags: HMW
LayerCount: 2
Back
Fore
SplineSet
297 524 m 1
 50 524 l 1
 50 540 l 1
 117 562 l 1
 297 562 l 1
 297 524 l 1
EndSplineSet
Refer: 72 104 N 1 0 0 1 0 0 2
EndChar

StartChar: kgreenlandic
Encoding: 312 312 334
Width: 513
VWidth: 0
GlyphClass: 2
Flags: HMW
LayerCount: 2
Back
Fore
SplineSet
189 429 m 5
 189 34 l 5
 238 18 l 5
 238 0 l 5
 49 0 l 5
 49 18 l 5
 115 43 l 5
 115 389 l 5
 51 403 l 5
 51 421 l 5
 189 429 l 5
315 425 m 1
 460 425 l 1
 460 402 l 1
 393 381 l 17
 268 248 l 1
 437 63 l 1
 483 18 l 1
 483 0 l 1
 389 0 l 1
 198 217 l 1
 345 384 l 9
 315 402 l 1
 315 425 l 1
EndSplineSet
Validated: 1
Colour: ff8f94
EndChar

StartChar: lslash
Encoding: 322 322 335
Width: 284
VWidth: -3
GlyphClass: 2
UnlinkRmOvrlpSave: 1
Flags: HMW
LayerCount: 2
Back
Fore
SplineSet
248 373 m 1
 155 326 l 1
 60 270 l 1
 51 275 l 1
 51 309 l 1
 145 357 l 1
 238 412 l 1
 248 408 l 1
 248 373 l 1
EndSplineSet
Refer: 76 108 N 1 0 0 1 0 0 2
EndChar

StartChar: Lslash
Encoding: 321 321 336
Width: 552
VWidth: 0
GlyphClass: 2
UnlinkRmOvrlpSave: 1
Flags: HMW
LayerCount: 2
Back
Fore
SplineSet
282 381 m 1
 174 326 l 1
 64 262 l 1
 55 267 l 1
 55 301 l 1
 164 357 l 1
 272 420 l 1
 282 416 l 1
 282 381 l 1
EndSplineSet
Refer: 44 76 N 1 0 0 1 0 0 2
EndChar

StartChar: eng
Encoding: 331 331 337
Width: 553
VWidth: -3
GlyphClass: 2
Flags: HMW
LayerCount: 2
Back
Fore
SplineSet
338 437 m 3
 424 437 463 384 463 283 c 2
 463 24 l 2
 463 -155 387 -230 305 -230 c 3
 272 -230 252 -224 234 -218 c 1
 243 -158 l 1
 258 -152 l 1
 273 -157 309 -174 329 -174 c 3
 353 -174 368 -171 379 -153 c 1
 389 -119 390 -80 390 -15 c 2
 390 265 l 2
 390 358 359 384 303 384 c 3
 246 384 206 339 179 297 c 1
 179 34 l 1
 233 18 l 1
 233 0 l 1
 39 0 l 1
 39 18 l 1
 106 43 l 1
 106 389 l 1
 40 401 l 1
 40 419 l 1
 179 432 l 1
 179 343 l 1
 216 391 260 437 338 437 c 3
EndSplineSet
Validated: 1
Colour: ff9994
EndChar

StartChar: Eng
Encoding: 330 330 338
Width: 703
VWidth: 0
GlyphClass: 2
Flags: HMW
LayerCount: 2
Back
Fore
SplineSet
44 638 m 1
 194 638 l 1
 539 137 l 1
 539 595 l 1
 476 618 l 1
 476 638 l 1
 663 638 l 1
 663 618 l 1
 593 595 l 1
 593 24 l 2
 593 -155 517 -230 435 -230 c 3
 402 -230 382 -224 364 -218 c 1
 373 -158 l 1
 388 -152 l 1
 403 -157 439 -174 459 -174 c 3
 483 -174 498 -171 509 -153 c 1
 519 -119 520 -79 520 -15 c 2
 520 19 l 1
 171 536 l 1
 169 536 l 1
 169 43 l 1
 232 20 l 1
 232 0 l 1
 40 0 l 1
 40 20 l 1
 115 43 l 1
 115 601 l 1
 44 617 l 1
 44 638 l 1
EndSplineSet
Validated: 1
Colour: ff9994
EndChar

StartChar: Tbar
Encoding: 358 358 339
Width: 534
VWidth: 0
GlyphClass: 2
UnlinkRmOvrlpSave: 1
Flags: HMW
LayerCount: 2
Back
Fore
SplineSet
424 314 m 1
 93 314 l 1
 93 330 l 1
 149 352 l 1
 424 352 l 1
 424 314 l 1
EndSplineSet
Refer: 52 84 N 1 0 0 1 0 0 2
EndChar

StartChar: tbar
Encoding: 359 359 340
Width: 348
VWidth: 0
GlyphClass: 2
UnlinkRmOvrlpSave: 1
Flags: HMW
LayerCount: 2
Back
Fore
SplineSet
290 232 m 1
 40 232 l 1
 40 248 l 1
 96 270 l 1
 290 270 l 1
 290 232 l 1
EndSplineSet
Refer: 84 116 N 1 0 0 1 0 0 2
EndChar

StartChar: quotereversed
Encoding: 8219 8219 348
Width: 168
VWidth: 0
GlyphClass: 2
Flags: HMW
LayerCount: 2
Back
Fore
SplineSet
89 690 m 3
 124 690 143 666 143 640 c 3
 143 607 114 585 78 585 c 1
 74 578 74 571 74 564 c 3
 74 535 93 497 140 467 c 1
 127 446 l 1
 63 489 25 535 25 607 c 3
 25 654 52 690 89 690 c 3
EndSplineSet
Validated: 1
EndChar

StartChar: dagger
Encoding: 8224 8224 349
Width: 460
VWidth: 0
GlyphClass: 2
Flags: HMW
LayerCount: 2
Back
Fore
SplineSet
213 690 m 1
 247 690 l 1
 247 509 l 1
 418 509 l 1
 418 475 l 1
 247 475 l 1
 247 0 l 1
 213 0 l 1
 213 475 l 1
 42 475 l 1
 42 509 l 1
 213 509 l 1
 213 690 l 1
EndSplineSet
Validated: 1
EndChar

StartChar: daggerdbl
Encoding: 8225 8225 350
Width: 460
VWidth: 0
GlyphClass: 2
Flags: HMW
LayerCount: 2
Back
Fore
SplineSet
213 690 m 1
 247 690 l 1
 247 509 l 1
 418 509 l 1
 418 475 l 1
 247 475 l 1
 247 215 l 1
 418 215 l 1
 418 181 l 1
 247 181 l 1
 247 0 l 1
 213 0 l 1
 213 181 l 1
 42 181 l 1
 42 215 l 1
 213 215 l 1
 213 475 l 1
 42 475 l 1
 42 509 l 1
 213 509 l 1
 213 690 l 1
EndSplineSet
Validated: 1
EndChar

StartChar: perthousand
Encoding: 8240 8240 352
Width: 1275
VWidth: 0
GlyphClass: 2
Flags: HMW
LayerCount: 2
Back
Fore
SplineSet
1040 311 m 3
 1007 311 988 304 971 289 c 1
 953 262 942 235 942 173 c 3
 942 78 981 25 1037 25 c 3
 1070 25 1088 33 1105 48 c 1
 1123 75 1131 101 1131 163 c 3
 1131 258 1096 311 1040 311 c 3
1024 -12 m 3
 964 -12 875 32 875 157 c 3
 875 277 946 347 1048 347 c 3
 1108 347 1198 304 1198 179 c 3
 1198 59 1126 -12 1024 -12 c 3
EndSplineSet
Refer: 5 37 N 1 0 0 1 0 0 2
Validated: 1
EndChar

StartChar: uni2031
Encoding: 8241 8241 353
Width: 1652
VWidth: 0
GlyphClass: 2
Flags: HMW
LayerCount: 2
Back
Fore
SplineSet
1417 311 m 3
 1384 311 1365 304 1348 289 c 1
 1330 262 1319 235 1319 173 c 3
 1319 78 1358 25 1414 25 c 3
 1447 25 1465 33 1482 48 c 1
 1500 75 1508 101 1508 163 c 3
 1508 258 1473 311 1417 311 c 3
1401 -12 m 3
 1341 -12 1252 32 1252 157 c 3
 1252 277 1323 347 1425 347 c 3
 1485 347 1575 304 1575 179 c 3
 1575 59 1503 -12 1401 -12 c 3
EndSplineSet
Refer: 352 8240 N 1 0 0 1 0 0 2
Validated: 1
EndChar

StartChar: minute
Encoding: 8242 8242 354
Width: 205
VWidth: -3
GlyphClass: 2
Flags: HMW
LayerCount: 2
Back
Fore
SplineSet
96 684 m 1
 157 676 l 1
 165 652 l 1
 73 466 l 1
 39 480 l 1
 96 684 l 1
EndSplineSet
Validated: 1
EndChar

StartChar: guilsinglleft
Encoding: 8249 8249 355
Width: 292
VWidth: 0
GlyphClass: 2
Flags: HMW
LayerCount: 2
Back
Fore
SplineSet
116 234 m 1
 254 72 l 1
 223 44 l 1
 38 232 l 1
 223 420 l 1
 252 395 l 1
 116 234 l 1
EndSplineSet
Validated: 1
EndChar

StartChar: uni203E
Encoding: 8254 8254 357
Width: 500
VWidth: 0
GlyphClass: 2
Flags: HMW
LayerCount: 2
Back
Fore
SplineSet
0 904 m 1
 0 938 l 1
 500 938 l 1
 500 904 l 1
 0 904 l 1
EndSplineSet
Validated: 1
EndChar

StartChar: fraction
Encoding: 8260 8260 358
Width: 0
VWidth: 0
GlyphClass: 2
Flags: HMW
LayerCount: 2
Back
Fore
SplineSet
234 776 m 1
 267 758 l 1
 -234 -112 l 1
 -267 -94 l 1
 234 776 l 1
EndSplineSet
Validated: 1
EndChar

StartChar: arrowdblright
Encoding: 8658 8658 360
Width: 600
VWidth: 0
GlyphClass: 2
Flags: HMW
LayerCount: 2
Back
SplineSet
40 167 m 1
 40 201 l 1
 492 198 l 1
 472 170 l 1
 40 167 l 1
40 264 m 1
 40 298 l 1
 472 295 l 1
 492 267 l 1
 40 264 l 1
511 232 m 1
 348 394 l 1
 375 420 l 1
 560 232 l 1
 375 44 l 1
 350 67 l 1
 511 232 l 1
EndSplineSet
Fore
SplineSet
375 420 m 1
 560 232 l 1
 375 44 l 1
 350 67 l 1
 450 170 l 1
 40 167 l 1
 40 201 l 1
 478 198 l 1
 511 232 l 1
 476 267 l 1
 40 264 l 1
 40 298 l 1
 447 295 l 1
 348 394 l 1
 375 420 l 1
EndSplineSet
Validated: 1
EndChar

StartChar: uni21C0
Encoding: 8640 8640 361
Width: 600
VWidth: 0
GlyphClass: 2
Flags: HMW
LayerCount: 2
Back
Fore
SplineSet
553 217 m 1
 40 217 l 1
 40 251 l 1
 491 248 l 1
 347 394 l 1
 375 420 l 1
 560 232 l 1
 553 217 l 1
EndSplineSet
Validated: 1
EndChar

StartChar: arrowright
Encoding: 8594 8594 364
Width: 600
VWidth: 0
GlyphClass: 2
Flags: HMW
LayerCount: 2
Back
Fore
SplineSet
40 217 m 1
 40 251 l 1
 498 248 l 1
 348 394 l 1
 375 420 l 1
 560 232 l 1
 375 44 l 1
 350 67 l 1
 499 220 l 1
 40 217 l 1
EndSplineSet
Validated: 1
EndChar

StartChar: uni21C4
Encoding: 8644 8644 365
Width: 600
VWidth: 0
GlyphClass: 2
Flags: HMW
LayerCount: 2
Back
Fore
SplineSet
555 148 m 1
 555 114 l 1
 97 117 l 1
 237 -19 l 1
 210 -45 l 1
 35 133 l 1
 210 311 l 1
 235 288 l 1
 96 145 l 1
 555 148 l 1
45 337 m 1
 45 371 l 1
 503 368 l 1
 363 504 l 1
 390 530 l 1
 565 352 l 1
 390 174 l 1
 365 197 l 1
 504 340 l 1
 45 337 l 1
EndSplineSet
Validated: 1
EndChar

StartChar: uni21CB
Encoding: 8651 8651 366
Width: 600
VWidth: 0
GlyphClass: 2
Flags: HMW
LayerCount: 2
Back
Fore
SplineSet
40 196 m 1
 553 196 l 1
 560 181 l 1
 375 -7 l 1
 347 19 l 1
 491 165 l 1
 40 162 l 1
 40 196 l 1
225 470 m 1
 253 444 l 1
 109 298 l 1
 560 301 l 1
 560 267 l 1
 47 267 l 1
 40 282 l 1
 225 470 l 1
EndSplineSet
Validated: 1
EndChar

StartChar: uni21C6
Encoding: 8646 8646 368
Width: 600
VWidth: 0
GlyphClass: 2
Flags: HMW
LayerCount: 2
Back
Fore
SplineSet
210 534 m 1
 235 511 l 1
 96 368 l 1
 555 371 l 1
 555 337 l 1
 97 340 l 1
 237 204 l 1
 210 178 l 1
 35 356 l 1
 210 534 l 1
390 307 m 1
 565 129 l 1
 390 -49 l 1
 365 -26 l 1
 504 117 l 1
 45 114 l 1
 45 148 l 1
 503 145 l 1
 363 281 l 1
 390 307 l 1
EndSplineSet
Validated: 1
EndChar

StartChar: product
Encoding: 8719 8719 369
Width: 800
VWidth: 0
GlyphClass: 2
Flags: HMW
LayerCount: 2
Back
Fore
SplineSet
745 770 m 1
 745 750 l 1
 671 728 l 1
 671 -191 l 1
 745 -210 l 1
 745 -230 l 1
 516 -230 l 1
 516 -210 l 1
 595 -185 l 1
 595 728 l 1
 205 728 l 1
 205 -191 l 1
 284 -210 l 1
 284 -230 l 1
 55 -230 l 1
 55 -210 l 1
 129 -185 l 1
 129 728 l 1
 55 750 l 1
 55 770 l 1
 745 770 l 1
EndSplineSet
Validated: 1
EndChar

StartChar: infinity
Encoding: 8734 8734 371
Width: 708
VWidth: 0
GlyphClass: 2
Flags: HMW
LayerCount: 2
Back
SplineSet
499 85 m 3
 327 85 324 342 183 342 c 3
 126 342 105 297 105 250 c 3
 105 190 133 123 209 123 c 3
 259 123 303 177 333 227 c 1
 350 202 l 17
 328 162 266 84 190 84 c 3
 114 84 50 129 50 229 c 3
 50 331 130 388 209 388 c 3
 381 388 384 131 525 131 c 3
 582 131 603 176 603 223 c 3
 603 283 574 350 498 350 c 3
 448 350 405 296 375 246 c 1
 358 271 l 17
 380 311 441 389 517 389 c 3
 593 389 658 344 658 244 c 3
 658 142 578 85 499 85 c 3
EndSplineSet
Fore
SplineSet
209 388 m 3
 285 388 328 338 364 282 c 1
 390 324 447 389 517 389 c 3
 593 389 658 344 658 244 c 3
 658 142 578 85 499 85 c 3
 423 85 380 135 344 191 c 1
 318 149 260 84 190 84 c 3
 114 84 50 129 50 229 c 3
 50 331 130 388 209 388 c 3
183 342 m 3
 126 342 105 297 105 250 c 3
 105 190 133 123 209 123 c 3
 256 123 297 170 327 217 c 1
 288 280 252 342 183 342 c 3
498 350 m 3
 451 350 411 303 381 256 c 1
 420 193 456 131 525 131 c 3
 582 131 603 176 603 223 c 3
 603 283 574 350 498 350 c 3
EndSplineSet
Validated: 1
EndChar

StartChar: angle
Encoding: 8736 8736 372
Width: 480
VWidth: 0
GlyphClass: 2
Flags: HMW
LayerCount: 2
Back
Fore
SplineSet
353 437 m 1
 382 412 l 1
 92 34 l 1
 438 34 l 1
 438 0 l 1
 58 0 l 1
 40 22 l 1
 353 437 l 1
EndSplineSet
Validated: 1
EndChar

StartChar: logicalor
Encoding: 8744 8744 374
Width: 460
VWidth: -3
GlyphClass: 2
Flags: HMW
LayerCount: 2
Back
Fore
SplineSet
411 413 m 1
 246 -12 l 1
 218 -12 l 1
 50 412 l 1
 59 425 l 1
 104 425 l 1
 241 62 l 1
 374 430 l 1
 405 430 l 1
 411 413 l 1
EndSplineSet
Validated: 1
EndChar

StartChar: union
Encoding: 8746 8746 376
Width: 436
VWidth: 0
GlyphClass: 2
Flags: HMW
LayerCount: 2
Back
Fore
SplineSet
376 426 m 1
 376 169 l 2
 376 60 332 -12 217 -12 c 3
 104 -12 60 44 60 166 c 2
 60 417 l 1
 72 427 l 1
 109 424 l 1
 109 166 l 2
 109 66 145 23 219 23 c 3
 294 23 339 54 339 168 c 2
 339 419 l 1
 351 429 l 1
 376 426 l 1
EndSplineSet
Validated: 1
EndChar

StartChar: integral
Encoding: 8747 8747 377
Width: 310
VWidth: -3
GlyphClass: 2
Flags: HMW
LayerCount: 2
Back
Fore
SplineSet
187 24 m 2
 187 -155 109 -230 27 -230 c 3
 -6 -230 -21 -224 -39 -218 c 1
 -30 -158 l 1
 -15 -152 l 1
 0 -157 34 -174 54 -174 c 3
 78 -174 88 -171 99 -153 c 1
 109 -119 110 -80 110 -15 c 2
 110 516 l 2
 110 695 188 770 270 770 c 3
 303 770 318 764 336 758 c 1
 327 698 l 1
 312 692 l 1
 297 697 263 714 243 714 c 3
 219 714 209 711 198 693 c 1
 188 659 187 620 187 555 c 2
 187 24 l 2
EndSplineSet
Validated: 1
EndChar

StartChar: congruent
Encoding: 8773 8773 378
Width: 460
VWidth: 0
GlyphClass: 2
Flags: HMW
LayerCount: 2
Back
Fore
SplineSet
42 147 m 1
 42 181 l 1
 418 181 l 1
 418 147 l 1
 42 147 l 1
42 269 m 1
 42 303 l 1
 418 303 l 1
 418 269 l 1
 42 269 l 1
EndSplineSet
Refer: 397 8764 N 1 0 0 1 0 170 2
Validated: 1
EndChar

StartChar: lessequal
Encoding: 8804 8804 379
Width: 330
VWidth: 0
GlyphClass: 2
Flags: HMW
LayerCount: 2
Back
Fore
SplineSet
40 0 m 1
 40 34 l 1
 283 34 l 1
 283 0 l 1
 40 0 l 1
252 390 m 1
 272 361 l 1
 94 233 l 1
 273 104 l 1
 252 74 l 1
 40 232 l 1
 252 390 l 1
EndSplineSet
Validated: 1
EndChar

StartChar: greaterequal
Encoding: 8805 8805 380
Width: 330
VWidth: 0
GlyphClass: 2
Flags: HMW
LayerCount: 2
Back
Fore
SplineSet
40 0 m 1
 40 34 l 1
 283 34 l 1
 283 0 l 1
 40 0 l 1
71 74 m 1
 51 103 l 1
 229 231 l 1
 50 360 l 1
 71 390 l 1
 283 232 l 1
 71 74 l 1
EndSplineSet
Validated: 1
EndChar

StartChar: uni2249
Encoding: 8777 8777 382
Width: 460
VWidth: 0
GlyphClass: 2
UnlinkRmOvrlpSave: 1
Flags: HMW
LayerCount: 2
Back
Fore
SplineSet
280 437 m 1
 311 427 l 1
 179 42 l 1
 148 52 l 1
 280 437 l 1
EndSplineSet
Refer: 381 8776 N 1 0 0 1 0 0 2
EndChar

StartChar: uni2247
Encoding: 8775 8775 383
Width: 460
VWidth: 0
GlyphClass: 2
UnlinkRmOvrlpSave: 1
Flags: HMW
LayerCount: 2
Back
Fore
SplineSet
295 498 m 1
 326 488 l 1
 182 42 l 1
 151 52 l 1
 295 498 l 1
EndSplineSet
Refer: 378 8773 N 1 0 0 1 0 0 2
EndChar

StartChar: uni221B
Encoding: 8731 8731 384
Width: 580
GlyphClass: 2
Flags: HMW
LayerCount: 2
Back
Fore
SplineSet
360 618 m 3
 360 553 298 511 186 511 c 1
 186 538 l 1
 263 538 306 561 306 607 c 3
 306 641 283 666 229 666 c 1
 221 682 l 1
 269 710 283 725 283 763 c 3
 283 786 267 802 249 802 c 3
 228 802 218 799 198 788 c 1
 187 807 l 1
 215 825 238 834 269 834 c 3
 305 834 337 809 337 772 c 3
 337 731 304 705 270 686 c 1
 329 686 360 662 360 618 c 3
EndSplineSet
Refer: 216 8730 N 1 0 0 1 0 0 2
Validated: 1
EndChar

StartChar: uni221C
Encoding: 8732 8732 385
Width: 580
GlyphClass: 2
Flags: HMW
LayerCount: 2
Back
Fore
SplineSet
266 836 m 1
 285 836 l 1
 285 818 l 1
 163 652 l 1
 259 652 l 1
 259 734 l 1
 294 751 l 1
 305 751 l 1
 305 652 l 1
 355 652 l 1
 355 621 l 1
 305 621 l 1
 305 545 l 1
 271 529 l 1
 259 529 l 1
 259 621 l 1
 136 621 l 1
 125 636 l 1
 266 836 l 1
EndSplineSet
Refer: 216 8730 N 1 0 0 1 0 0 2
Validated: 1
EndChar

StartChar: Pi
Encoding: 928 928 386
Width: 680
VWidth: 0
GlyphClass: 2
Flags: HMW
LayerCount: 2
Back
Fore
SplineSet
625 638 m 1
 625 618 l 1
 551 596 l 1
 551 39 l 1
 625 20 l 1
 625 0 l 1
 406 0 l 1
 406 20 l 1
 475 45 l 1
 475 596 l 9
 205 596 l 1
 205 39 l 1
 274 20 l 1
 274 0 l 1
 55 0 l 1
 55 20 l 1
 129 45 l 1
 129 596 l 1
 55 618 l 1
 55 638 l 1
 625 638 l 1
EndSplineSet
Validated: 1
EndChar

StartChar: pi
Encoding: 960 960 387
Width: 540
VWidth: 0
GlyphClass: 2
Flags: HMW
LayerCount: 2
Back
Fore
SplineSet
485 435 m 1
 501 423 l 1
 484 364 l 1
 406 364 l 1
 406 81 l 1
 426 45 l 1
 486 43 l 1
 487 17 l 1
 387 -9 l 1
 369 1 l 2
 351 11 336 29 336 65 c 2
 336 364 l 1
 222 367 l 1
 220 178 205 70 169 -5 c 1
 93 6 l 1
 88 26 l 1
 117 61 174 140 178 297 c 2
 180 367 l 1
 122 367 89 352 58 335 c 1
 40 360 l 1
 83 401 131 425 197 425 c 2
 450 425 l 1
 485 435 l 1
EndSplineSet
Validated: 1
EndChar

StartChar: uni2070
Encoding: 8304 8304 388
Width: 428
VWidth: -3
GlyphClass: 3
Flags: HMW
LayerCount: 2
Back
Fore
SplineSet
218 735 m 3
 186 735 173 726 152 707 c 1
 132 673 123 643 123 566 c 3
 123 447 149 384 214 384 c 3
 246 384 258 394 279 413 c 1
 299 447 305 476 305 553 c 3
 305 672 283 735 218 735 c 3
198 348 m 3
 126 348 55 405 55 546 c 3
 55 686 114 770 228 770 c 3
 300 770 373 714 373 573 c 3
 373 433 312 348 198 348 c 3
EndSplineSet
Validated: 1
LCarets2: 1 0
Ligature2: "'dlig' Discretionary Ligatures lookup 3-1" asciicircum zero
EndChar

StartChar: uni2074
Encoding: 8308 8308 389
Width: 360
VWidth: -3
GlyphClass: 3
Flags: HMW
LayerCount: 2
Back
Fore
SplineSet
218 771 m 1
 269 768 l 1
 269 498 l 1
 340 498 l 1
 340 456 l 1
 269 456 l 1
 269 369 l 1
 227 348 l 1
 206 348 l 1
 206 456 l 1
 28 456 l 1
 20 475 l 1
 218 771 l 1
206 696 m 1
 77 498 l 1
 206 498 l 1
 206 696 l 1
EndSplineSet
Validated: 1
LCarets2: 1 0
Ligature2: "'dlig' Discretionary Ligatures lookup 3-1" asciicircum four
EndChar

StartChar: uni2075
Encoding: 8309 8309 390
Width: 327
VWidth: 0
GlyphClass: 3
Flags: HMW
LayerCount: 2
Back
Fore
SplineSet
50 333 m 1
 50 365 l 1
 170 365 212 405 212 464 c 3
 212 493 201 511 171 525 c 0
 146 536 123 539 68 539 c 1
 55 555 l 1
 87 758 l 1
 242 758 l 1
 251 746 l 1
 242 700 l 1
 110 700 l 1
 95 592 l 1
 150 592 182 589 213 577 c 0
 256 560 277 522 277 477 c 3
 277 379 180 333 50 333 c 1
EndSplineSet
Validated: 1
LCarets2: 1 0
Ligature2: "'dlig' Discretionary Ligatures lookup 3-1" asciicircum five
EndChar

StartChar: uni2076
Encoding: 8310 8310 391
Width: 355
VWidth: 0
GlyphClass: 3
Flags: HMW
LayerCount: 2
Back
SplineSet
113 515 m 5
 113 558 l 5
 134 577 166 594 208 594 c 7
 273 594 315 548 315 482 c 7
 315 403 254 348 177 348 c 7
 97 348 50 402 50 504 c 7
 50 631 139 723 253 770 c 13
 266 741 l 21
 176 695 113 662 113 515 c 7
 113 424 147 381 188 381 c 7
 222 381 253 410 253 457 c 7
 253 525 227 556 188 556 c 7
 160 556 134 541 113 515 c 5
EndSplineSet
Fore
SplineSet
253 770 m 1
 266 741 l 1
 186 700 127 669 115 560 c 1
 136 578 168 594 208 594 c 3
 273 594 315 548 315 482 c 3
 315 403 254 348 177 348 c 3
 97 348 50 402 50 504 c 3
 50 631 139 723 253 770 c 1
188 556 m 3
 160 556 134 541 113 515 c 1
 113 424 147 381 188 381 c 3
 222 381 253 410 253 457 c 3
 253 525 227 556 188 556 c 3
EndSplineSet
Validated: 1
LCarets2: 1 0
Ligature2: "'dlig' Discretionary Ligatures lookup 3-1" asciicircum six
EndChar

StartChar: uni2077
Encoding: 8311 8311 392
Width: 305
VWidth: 0
GlyphClass: 3
Flags: HMW
LayerCount: 2
Back
Fore
SplineSet
20 720 m 1
 30 758 l 1
 269 758 l 1
 285 739 l 1
 134 347 l 1
 74 372 l 1
 156 511 192 590 239 703 c 1
 30 703 l 1
 20 720 l 1
EndSplineSet
Validated: 1
LCarets2: 1 0
Ligature2: "'dlig' Discretionary Ligatures lookup 3-1" asciicircum seven
EndChar

StartChar: uni2078
Encoding: 8312 8312 393
Width: 379
VWidth: 109
GlyphClass: 3
Flags: HMW
LayerCount: 2
Back
SplineSet
214 570 m 13
 193 587 l 5
 228 607 249 642 249 675 c 7
 249 716 223 738 185 738 c 7
 155 738 127 716 127 684 c 7
 127 582 329 576 329 461 c 7
 329 399 272 348 186 348 c 7
 109 348 50 380 50 447 c 7
 50 505 114 550 158 570 c 13
 175 551 l 21
 130 526 108 498 108 454 c 7
 108 405 147 383 189 383 c 7
 230 383 263 401 263 445 c 7
 263 532 66 551 66 668 c 7
 66 719 114 770 190 770 c 7
 266 770 304 731 304 681 c 7
 304 623 242 584 214 570 c 13
EndSplineSet
Fore
SplineSet
165 545 m 1
 127 521 108 495 108 454 c 3
 108 405 147 383 189 383 c 3
 230 383 263 401 263 445 c 3
 263 488 214 515 165 545 c 1
190 770 m 3
 266 770 304 731 304 681 c 3
 304 631 259 596 228 578 c 1
 279 549 329 519 329 461 c 3
 329 399 272 348 186 348 c 3
 109 348 50 380 50 447 c 3
 50 497 98 538 140 561 c 1
 100 588 66 619 66 668 c 3
 66 719 114 770 190 770 c 3
185 738 m 3
 155 738 127 716 127 684 c 3
 127 642 162 616 202 592 c 1
 232 613 249 645 249 675 c 3
 249 716 223 738 185 738 c 3
EndSplineSet
Validated: 1
LCarets2: 1 0
Ligature2: "'dlig' Discretionary Ligatures lookup 3-1" asciicircum eight
EndChar

StartChar: uni2079
Encoding: 8313 8313 394
Width: 355
VWidth: 0
GlyphClass: 3
Flags: HMW
LayerCount: 2
Back
SplineSet
243 591 m 5
 243 556 l 5
 222 537 194 527 157 527 c 7
 87 527 47 573 47 636 c 7
 47 715 111 770 183 770 c 7
 268 770 308 716 308 614 c 7
 308 487 216 395 102 348 c 13
 89 377 l 21
 179 423 243 492 243 591 c 7
 243 702 216 737 172 737 c 7
 136 737 109 705 109 658 c 7
 109 592 138 565 178 565 c 7
 203 565 222 570 243 591 c 5
EndSplineSet
Fore
SplineSet
183 770 m 3
 268 770 308 716 308 614 c 3
 308 487 216 395 102 348 c 1
 89 377 l 1
 167 417 226 474 240 553 c 1
 219 536 192 527 157 527 c 3
 87 527 47 573 47 636 c 3
 47 715 111 770 183 770 c 3
172 737 m 3
 136 737 109 705 109 658 c 3
 109 592 138 565 178 565 c 3
 203 565 222 570 243 591 c 1
 243 702 216 737 172 737 c 3
EndSplineSet
Validated: 1
LCarets2: 1 0
Ligature2: "'dlig' Discretionary Ligatures lookup 3-1" asciicircum nine
EndChar

StartChar: uni0283
Encoding: 643 643 395
Width: 310
VWidth: -3
GlyphClass: 2
Flags: HMW
LayerCount: 2
Back
Fore
SplineSet
185 24 m 2
 185 -155 109 -230 27 -230 c 3
 -6 -230 -21 -224 -39 -218 c 1
 -30 -158 l 1
 -15 -152 l 1
 0 -157 36 -174 56 -174 c 3
 80 -174 90 -171 101 -153 c 1
 111 -119 112 -80 112 -15 c 2
 112 430 l 6
 112 609 188 684 270 684 c 7
 303 684 318 678 336 672 c 5
 327 612 l 5
 312 606 l 5
 297 611 261 628 241 628 c 7
 217 628 207 625 196 607 c 5
 186 573 185 534 185 469 c 6
 185 24 l 2
EndSplineSet
Validated: 1
EndChar

StartChar: notequal
Encoding: 8800 8800 396
Width: 460
VWidth: 0
GlyphClass: 2
UnlinkRmOvrlpSave: 1
Flags: HMW
LayerCount: 2
Back
Fore
SplineSet
277 437 m 1
 308 427 l 1
 182 42 l 1
 151 52 l 1
 277 437 l 1
EndSplineSet
Refer: 29 61 N 1 0 0 1 0 0 2
EndChar

StartChar: similar
Encoding: 8764 8764 397
Width: 460
VWidth: 0
GlyphClass: 2
Flags: HMW
LayerCount: 2
Back
Fore
SplineSet
413 266 m 1
 428 244 l 1
 375 201 340 195 301 195 c 3
 244 195 196 236 145 236 c 3
 116 236 82 226 47 198 c 1
 32 220 l 1
 85 263 120 269 159 269 c 3
 216 269 264 228 315 228 c 3
 344 228 378 238 413 266 c 1
EndSplineSet
Validated: 1
EndChar

StartChar: sigma
Encoding: 963 963 398
Width: 520
VWidth: -3
GlyphClass: 2
Flags: HMW
LayerCount: 2
Back
Fore
SplineSet
231 -12 m 3
 151 -12 40 43 40 194 c 3
 40 344 125 425 264 425 c 2
 459 425 l 1
 494 435 l 1
 510 423 l 1
 493 364 l 1
 362 364 l 1
 414 332 444 275 444 210 c 3
 444 77 358 -12 231 -12 c 3
287 364 m 1
 218 364 l 1
 145 349 115 286 115 209 c 3
 115 90 167 29 242 29 c 3
 284 29 315 39 336 58 c 1
 360 91 372 124 372 201 c 3
 372 280 338 338 287 364 c 1
EndSplineSet
Validated: 1
EndChar

StartChar: theta
Encoding: 952 952 399
Width: 541
VWidth: 0
GlyphClass: 2
Flags: HMW
LayerCount: 2
Back
SplineSet
184 339 m 1
 399 339 l 1
 399 301 l 1
 141 301 l 1
 141 324 l 1
 184 339 l 1
278 596 m 3
 224 596 197 573 174 539 c 1
 151 488 141 449 141 324 c 3
 141 137 191 32 266 32 c 3
 320 32 347 56 370 90 c 1
 393 141 399 179 399 301 c 3
 399 491 353 596 278 596 c 3
252 -12 m 3
 168 -12 60 62 60 294 c 3
 60 518 144 638 286 638 c 3
 370 638 481 566 481 334 c 3
 481 110 394 -12 252 -12 c 3
EndSplineSet
Fore
SplineSet
286 638 m 3
 370 638 481 566 481 334 c 3
 481 110 394 -12 252 -12 c 3
 168 -12 60 62 60 294 c 3
 60 518 144 638 286 638 c 3
278 596 m 3
 224 596 197 573 174 539 c 1
 151 488 141 449 141 324 c 1
 184 339 l 1
 398 339 l 1
 392 505 348 596 278 596 c 3
141 301 m 1
 145 128 194 32 266 32 c 3
 320 32 347 56 370 90 c 1
 393 141 399 179 399 301 c 1
 141 301 l 1
EndSplineSet
Validated: 1
EndChar

StartChar: phi1
Encoding: 981 981 400
Width: 484
VWidth: -3
GlyphClass: 2
Flags: HMW
LayerCount: 2
Back
SplineSet
224 690 m 1
 262 690 l 1
 262 -230 l 1
 224 -230 l 1
 224 690 l 1
192 398 m 1
 108 352 95 297 95 220 c 3
 95 101 167 29 242 29 c 3
 284 29 319 39 340 58 c 1
 367 92 389 130 389 207 c 3
 389 326 321 397 246 397 c 3
 256 437 l 3
 336 437 469 383 469 227 c 3
 469 77 358 -12 226 -12 c 3
 146 -12 15 44 15 200 c 3
 15 299 82 396 186 425 c 1
 192 398 l 1
EndSplineSet
Fore
SplineSet
224 690 m 1
 262 690 l 1
 262 437 l 1
 342 434 469 379 469 227 c 3
 469 91 378 5 262 -10 c 1
 262 -230 l 1
 224 -230 l 1
 224 -12 l 1
 144 -11 15 45 15 200 c 3
 15 299 82 396 186 425 c 1
 192 398 l 1
 108 352 95 297 95 220 c 3
 95 111 156 41 224 30 c 1
 224 690 l 1
262 396 m 5
 262 30 l 1
 295 33 322 42 340 58 c 0
 367 92 389 130 389 207 c 3
 389 317 330 387 262 396 c 5
EndSplineSet
Validated: 1
EndChar

StartChar: uni0251
Encoding: 593 593 406
Width: 523
VWidth: -3
GlyphClass: 2
Flags: HMW
AnchorPoint: "top" 269 425 basechar 0
AnchorPoint: "bottom" 276 0 basechar 0
LayerCount: 2
Back
Fore
SplineSet
354 48 m 1
 319 11 274 -12 212 -12 c 3
 125 -12 38 49 38 199 c 3
 38 341 126 437 263 437 c 3
 315 437 378 432 428 414 c 1
 428 97 l 1
 437 36 l 1
 486 29 l 1
 487 12 l 1
 354 -9 l 1
 354 48 l 1
354 82 m 1
 354 327 l 1
 344 385 l 1
 322 396 294 400 257 400 c 3
 168 400 116 345 116 218 c 3
 116 80 190 40 248 40 c 3
 295 40 324 51 354 82 c 1
EndSplineSet
Validated: 1
EndChar

StartChar: uni0252
Encoding: 594 594 407
Width: 520
VWidth: -3
GlyphClass: 2
Flags: HMW
AnchorPoint: "top" 274 425 basechar 0
AnchorPoint: "bottom" 266 0 basechar 0
LayerCount: 2
Back
Fore
SplineSet
328 437 m 3
 402 437 475 379 475 235 c 3
 475 144 412 -12 232 -12 c 3
 187 -12 136 -3 86 15 c 1
 86 386 l 1
 15 398 l 1
 15 416 l 1
 160 432 l 1
 160 347 l 1
 195 386 246 437 328 437 c 3
170 44 m 1
 192 31 217 26 254 26 c 3
 331 26 397 77 397 219 c 3
 397 344 345 383 285 383 c 3
 222 383 188 337 160 300 c 1
 160 102 l 1
 170 44 l 1
EndSplineSet
Validated: 1
EndChar

StartChar: uni0253
Encoding: 595 595 408
Width: 520
VWidth: -3
GlyphClass: 2
Flags: HMW
LayerCount: 2
Back
Fore
SplineSet
245 684 m 7
 278 684 298 678 316 672 c 1
 307 612 l 1
 292 606 l 1
 277 611 241 628 221 628 c 3
 198 628 182 624 171 607 c 1
 161 573 160 534 160 469 c 2
 160 352 l 1
 188 393 239 437 318 437 c 3
 402 437 475 379 475 235 c 3
 475 134 412 -12 232 -12 c 3
 187 -12 136 -3 86 15 c 1
 86 430 l 2
 86 609 163 684 245 684 c 7
160 299 m 1
 160 102 l 1
 170 44 l 1
 192 31 217 26 254 26 c 3
 331 26 397 77 397 219 c 3
 397 344 345 383 275 383 c 3
 227 383 180 346 160 299 c 1
EndSplineSet
Validated: 1
EndChar

StartChar: uni0254
Encoding: 596 596 409
Width: 433
VWidth: -3
GlyphClass: 2
Flags: HMW
AnchorPoint: "top" 201 425 basechar 0
AnchorPoint: "bottom" 193 0 basechar 0
LayerCount: 2
Back
Fore
SplineSet
100 45 m 1
 117 35 159 29 182 29 c 3
 252 29 318 73 318 203 c 3
 318 324 262 389 177 389 c 3
 139 389 89 377 68 362 c 1
 55 379 l 1
 98 425 161 437 209 437 c 3
 301 437 393 377 393 230 c 3
 393 62 272 -12 157 -12 c 3
 116 -12 70 -1 52 6 c 1
 46 114 l 1
 82 117 l 1
 100 45 l 1
EndSplineSet
Validated: 1
EndChar

StartChar: uni0255
Encoding: 597 597 410
Width: 435
VWidth: -3
GlyphClass: 2
Flags: HMW
LayerCount: 2
Back
SplineSet
266 437 m 7
 307 437 340 429 358 422 c 5
 366 317 l 5
 328 311 l 5
 307 385 l 5
 292 391 264 396 241 396 c 7
 181 396 115 352 115 232 c 7
 115 111 181 36 261 36 c 7
 293 36 324 40 343 53 c 5
 353 68 358 83 358 98 c 7
 358 132 340 166 287 166 c 7
 226 166 200 80 161 -80 c 13
 131 -68 l 21
 178 90 192 196 305 196 c 7
 349 196 399 171 399 113 c 7
 399 87 392 62 371 38 c 4
 331 -7 276 -12 229 -12 c 7
 142 -12 40 58 40 205 c 7
 40 363 161 437 266 437 c 7
EndSplineSet
Fore
SplineSet
266 437 m 3
 307 437 340 429 358 422 c 1
 366 317 l 1
 328 311 l 1
 307 385 l 1
 292 391 264 396 241 396 c 3
 181 396 115 352 115 232 c 3
 115 161 138 106 173 73 c 1
 199 150 230 196 305 196 c 3
 349 196 399 171 399 113 c 3
 399 87 392 62 371 38 c 0
 331 -7 276 -12 229 -12 c 3
 213 -12 196 -10 180 -5 c 1
 174 -28 168 -53 161 -80 c 1
 131 -68 l 1
 139 -42 145 -17 152 6 c 1
 91 35 40 101 40 205 c 3
 40 363 161 437 266 437 c 3
287 166 m 3
 246 166 221 128 197 54 c 1
 216 42 238 36 261 36 c 3
 293 36 324 40 343 53 c 1
 353 68 358 83 358 98 c 3
 358 132 340 166 287 166 c 3
EndSplineSet
Validated: 1
EndChar

StartChar: uni0256
Encoding: 598 598 411
Width: 529
VWidth: -3
GlyphClass: 2
Flags: HMW
LayerCount: 2
Back
Fore
SplineSet
434 693 m 1
 434 -104 l 2
 434 -160 446 -184 480 -184 c 3
 501 -184 519 -178 536 -167 c 1
 549 -187 l 1
 513 -214 481 -230 437 -230 c 3
 390 -230 360 -198 360 -111 c 2
 360 48 l 1
 325 11 280 -12 218 -12 c 3
 131 -12 44 49 44 199 c 3
 44 341 132 437 269 437 c 3
 300 437 338 429 360 421 c 1
 360 647 l 1
 289 659 l 1
 289 677 l 1
 434 693 l 1
263 400 m 3
 174 400 122 345 122 218 c 3
 122 80 196 40 254 40 c 3
 301 40 330 51 360 82 c 1
 360 380 l 1
 335 391 305 400 263 400 c 3
EndSplineSet
Validated: 1
EndChar

StartChar: uni0257
Encoding: 599 599 412
Width: 540
VWidth: -3
GlyphClass: 2
Flags: HMW
LayerCount: 2
Back
Fore
SplineSet
507 684 m 3
 540 684 560 678 578 672 c 1
 569 612 l 1
 554 606 l 1
 539 615 502 632 482 632 c 3
 464 632 455 630 444 613 c 1
 434 579 434 534 434 469 c 2
 434 97 l 1
 443 36 l 1
 492 29 l 1
 493 12 l 1
 360 -9 l 1
 360 48 l 1
 325 11 280 -12 218 -12 c 3
 131 -12 44 49 44 199 c 3
 44 341 132 437 269 437 c 3
 300 437 338 429 360 421 c 1
 360 430 l 2
 360 621 438 684 507 684 c 3
263 400 m 7
 174 400 122 345 122 218 c 3
 122 80 196 40 254 40 c 3
 301 40 330 51 360 82 c 1
 360 380 l 1
 335 391 305 400 263 400 c 7
EndSplineSet
Validated: 1
EndChar

StartChar: uni0258
Encoding: 600 600 413
Width: 433
VWidth: -3
GlyphClass: 2
Flags: HMW
AnchorPoint: "top" 197 425 basechar 0
AnchorPoint: "bottom" 189 0 basechar 0
LayerCount: 2
Back
SplineSet
209 437 m 3
 301 437 393 377 393 230 c 3
 393 62 272 -12 157 -12 c 3
 116 -12 70 -1 52 6 c 1
 46 114 l 1
 82 117 l 1
 100 45 l 1
 118 35 154 29 182 29 c 3
 252 29 318 73 318 203 c 3
 318 324 262 389 177 389 c 3
 107 389 96 356 96 280 c 1
 160 266 l 1
 335 266 l 1
 335 232 l 1
 49 232 l 1
 34 273 l 1
 34 365 97 437 209 437 c 3
EndSplineSet
Fore
SplineSet
209 437 m 3
 301 437 393 377 393 230 c 3
 393 62 272 -12 157 -12 c 3
 116 -12 70 -1 52 6 c 1
 46 114 l 1
 82 117 l 1
 100 45 l 1
 118 35 154 29 182 29 c 3
 252 29 318 73 318 203 c 3
 318 213 318 223 317 232 c 1
 49 232 l 1
 34 273 l 1
 34 365 97 437 209 437 c 3
177 389 m 3
 107 389 96 356 96 280 c 1
 160 266 l 1
 312 266 l 1
 296 346 246 389 177 389 c 3
EndSplineSet
Validated: 1
EndChar

StartChar: uni0259
Encoding: 601 601 414
Width: 442
VWidth: -3
GlyphClass: 2
Flags: HMW
AnchorPoint: "top" 216 425 basechar 0
AnchorPoint: "bottom" 208 0 basechar 0
LayerCount: 2
Back
SplineSet
208 25 m 3
 287 25 326 73 326 193 c 3
 326 328 268 392 180 392 c 3
 151 392 107 384 78 371 c 1
 71 389 l 1
 99 414 160 437 214 437 c 3
 338 437 400 350 400 214 c 3
 400 73 304 -12 195 -12 c 3
 108 -12 44 33 44 135 c 1
 55 193 l 1
 330 193 l 1
 330 159 l 1
 169 159 l 1
 112 150 l 1
 112 55 151 25 208 25 c 3
EndSplineSet
Fore
SplineSet
214 437 m 3
 338 437 400 350 400 214 c 3
 400 73 304 -12 195 -12 c 3
 108 -12 44 33 44 135 c 1
 55 193 l 1
 326 193 l 1
 326 328 268 392 180 392 c 3
 151 392 107 384 78 371 c 1
 71 389 l 1
 99 414 160 437 214 437 c 3
169 159 m 1
 112 150 l 1
 112 55 151 25 208 25 c 3
 279 25 318 64 325 159 c 1
 169 159 l 1
EndSplineSet
Validated: 1
EndChar

StartChar: uni025A
Encoding: 602 602 415
Width: 550
VWidth: -3
GlyphClass: 2
Flags: HMW
AnchorPoint: "top" 212 425 basechar 0
AnchorPoint: "bottom" 204 0 basechar 0
LayerCount: 2
Back
SplineSet
185 -12 m 7
 98 -12 35 38 35 137 c 5
 51 173 l 5
 459 356 l 5
 467 342 l 5
 475 279 490 251 513 251 c 7
 529 251 546 255 556 262 c 5
 564 248 l 5
 540 227 516 220 496 220 c 7
 462 220 433 234 421 301 c 5
 104 158 l 5
 104 85 146 25 198 25 c 7
 282 25 321 73 321 193 c 7
 321 328 263 392 175 392 c 7
 146 392 102 384 73 371 c 5
 66 389 l 5
 94 414 155 437 209 437 c 7
 333 437 395 350 395 214 c 7
 395 73 299 -12 185 -12 c 7
EndSplineSet
Fore
SplineSet
209 437 m 3
 297 437 353 393 379 320 c 1
 459 356 l 1
 467 342 l 1
 475 279 490 251 513 251 c 3
 529 251 546 255 556 262 c 1
 564 248 l 1
 540 227 516 220 496 220 c 3
 462 220 433 234 421 301 c 1
 388 286 l 1
 393 264 395 240 395 214 c 3
 395 73 299 -12 185 -12 c 3
 98 -12 35 38 35 137 c 1
 51 173 l 1
 308 288 l 1
 286 358 239 392 175 392 c 3
 146 392 102 384 73 371 c 1
 66 389 l 1
 94 414 155 437 209 437 c 3
316 254 m 1
 104 158 l 1
 104 85 146 25 198 25 c 3
 282 25 321 73 321 193 c 3
 321 215 319 236 316 254 c 1
EndSplineSet
Validated: 1
EndChar

StartChar: uni025B
Encoding: 603 603 416
Width: 400
VWidth: -3
GlyphClass: 2
Flags: HMW
AnchorPoint: "top" 223 425 basechar 0
AnchorPoint: "bottom" 215 0 basechar 0
LayerCount: 2
Back
Fore
SplineSet
213 -12 m 3
 95 -12 50 35 50 89 c 3
 50 147 100 188 163 209 c 1
 102 225 58 268 58 312 c 3
 58 356 83 437 236 437 c 3
 277 437 319 429 337 422 c 1
 337 316 l 1
 304 311 l 1
 286 385 l 1
 271 391 244 396 221 396 c 3
 149.94140625 396 133 354 133 327 c 3
 133 278.163085938 200 246 235 239 c 1
 238 212 l 1
 161 184 128 159 128 113 c 3
 128 72 155.849609375 36 248 36 c 3
 286 36 331 48 352 63 c 1
 365 46 l 1
 322 0 254 -12 213 -12 c 3
EndSplineSet
Validated: 1
EndChar

StartChar: uni025C
Encoding: 604 604 417
Width: 420
VWidth: 0
GlyphClass: 2
Flags: HMW
AnchorPoint: "top" 199 425 basechar 0
AnchorPoint: "bottom" 197 0 basechar 0
LayerCount: 2
Back
Fore
SplineSet
181 390 m 3
 138 390 103 377 82 362 c 1
 69 379 l 1
 112 425 176 437 213 437 c 3
 301 437 335 399 335 345 c 3
 335 287 283 254 246 239 c 1
 304 234 370 203 370 128 c 3
 370 84 337 -12 174 -12 c 3
 128 -12 68 -2 50 5 c 1
 56 113 l 1
 90 113 l 1
 105 42 l 1
 120 36 158 29 181 29 c 3
 268 29 292 71 292 110 c 3
 292 167 243 195 172 206 c 1
 169 232 l 1
 230 259 258 291 258 327 c 3
 258 367 224 390 181 390 c 3
EndSplineSet
Validated: 1
EndChar

StartChar: uni025D
Encoding: 605 605 418
Width: 500
VWidth: 0
GlyphClass: 2
UnlinkRmOvrlpSave: 1
Flags: HMW
AnchorPoint: "bottom" 197 0 basechar 0
AnchorPoint: "top" 199 425 basechar 0
LayerCount: 2
Back
Fore
SplineSet
245 238 m 1
 261 281 l 1
 409 348 l 1
 417 334 l 1
 425 271 440 243 463 243 c 3
 479 243 496 247 506 254 c 1
 514 240 l 1
 490 219 466 212 446 212 c 3
 412 212 383 226 371 293 c 1
 245 238 l 1
EndSplineSet
Refer: 417 604 N 1 0 0 1 0 0 2
EndChar

StartChar: uni025E
Encoding: 606 606 419
Width: 470
VWidth: -3
GlyphClass: 2
Flags: HMW
AnchorPoint: "bottom" 246 0 basechar 0
AnchorPoint: "top" 248 425 basechar 0
LayerCount: 2
Back
Fore
SplineSet
238 -12 m 3
 141 -12 40 44 40 200 c 3
 40 350 134 437 261 437 c 3
 354 437 395 399 395 345 c 3
 395 287 341 254 296 239 c 1
 354 234 420 203 420 128 c 3
 420 84 382 -12 238 -12 c 3
249 29 m 3
 320 29 342 71 342 110 c 3
 342 167 293 195 222 206 c 1
 219 232 l 1
 284 259 318 291 318 327 c 3
 318 367 289 397 244 397 c 3
 207 397 178 388 157 369 c 1
 135 335 120 297 120 220 c 3
 120 101 169.974609375 29 249 29 c 3
EndSplineSet
Validated: 1
EndChar

StartChar: uni025F
Encoding: 607 607 420
Width: 312
VWidth: -3
GlyphClass: 2
UnlinkRmOvrlpSave: 1
Flags: HMW
LayerCount: 2
Back
Fore
SplineSet
279 232 m 1
 29 232 l 1
 29 248 l 1
 85 270 l 1
 279 270 l 1
 279 232 l 1
EndSplineSet
Refer: 317 567 N 1 0 0 1 15 0 2
EndChar

StartChar: uni0260
Encoding: 608 608 421
Width: 540
VWidth: -3
GlyphClass: 2
Flags: HMW
LayerCount: 2
Back
Fore
SplineSet
507 684 m 3
 540 684 560 678 578 672 c 1
 569 612 l 1
 554 606 l 1
 539 615 502 632 482 632 c 3
 464 632 455 630 444 613 c 1
 434 579 434 534 434 469 c 2
 434 15 l 2
 434 -197 332 -230 228 -230 c 3
 163 -230 97 -223 65 -212 c 1
 76 -145 l 1
 91 -139 l 1
 128 -155 221 -183 263 -183 c 3
 287 -183 316 -181 339 -163 c 1
 358 -136 360 -80 360 -15 c 2
 360 48 l 1
 325 11 280 -12 218 -12 c 3
 131 -12 44 49 44 199 c 3
 44 341 132 437 269 437 c 3
 300 437 338 429 360 421 c 1
 360 430 l 2
 360 621 438 684 507 684 c 3
263 400 m 7
 174 400 122 345 122 218 c 3
 122 80 196 40 254 40 c 3
 301 40 330 51 360 82 c 1
 360 380 l 1
 335 391 305 400 263 400 c 7
EndSplineSet
Validated: 1
EndChar

StartChar: uni0261
Encoding: 609 609 422
Width: 516
VWidth: -3
GlyphClass: 2
Flags: HMW
LayerCount: 2
Back
Fore
SplineSet
269 437 m 3
 321 437 384 432 434 414 c 1
 433 15 l 2
 432 -197 332 -230 228 -230 c 3
 163 -230 97 -223 65 -212 c 1
 76 -145 l 1
 91 -139 l 1
 128 -155 221 -183 263 -183 c 3
 287 -183 316 -181 339 -163 c 1
 358 -136 360 -80 360 -15 c 2
 360 48 l 1
 325 11 280 -12 218 -12 c 3
 131 -12 44 49 44 199 c 3
 44 341 132 437 269 437 c 3
263 400 m 3
 174 400 122 345 122 218 c 3
 122 80 196 40 254 40 c 3
 301 40 330 51 360 82 c 1
 360 327 l 1
 350 385 l 1
 328 396 300 400 263 400 c 3
EndSplineSet
Validated: 1
EndChar

StartChar: uni0262
Encoding: 610 610 423
Width: 494
VWidth: -3
GlyphClass: 2
Flags: HMW
LayerCount: 2
Back
Fore
SplineSet
125 232 m 3
 125 103 185 31 281 31 c 3
 309 31 326 34 340 38 c 1
 340 176 l 1
 281 190 l 1
 281 208 l 1
 414 216 l 1
 414 30 l 1
 365 -1 325 -12 249 -12 c 3
 147 -12 50 57 50 205 c 3
 50 363 161 437 276 437 c 3
 333 437 377 427 395 420 c 1
 400 315 l 1
 362 309 l 1
 344 383 l 1
 328 391 300 397 271 397 c 3
 181 397 125 352 125 232 c 3
EndSplineSet
Validated: 1
EndChar

StartChar: uni0263
Encoding: 611 611 424
Width: 461
VWidth: -3
GlyphClass: 2
Flags: HMW
LayerCount: 2
Back
SplineSet
55 393 m 1
 2 407 l 1
 2 425 l 1
 184 425 l 1
 184 407 l 1
 140 391 l 1
 259 101 l 2
 317.333984375 -48.7060546875 327 -72 327 -127 c 3
 327 -196 287 -230 220 -230 c 3
 170.716796875 -230 139 -201 139 -148 c 3
 139 -95.048828125 169.041992188 -47.1259765625 199 24 c 2
 353 392 l 1
 298 407 l 1
 298 425 l 1
 464 425 l 1
 464 407 l 1
 401 389 l 17
 222 -12 l 2
 196.01953125 -70.529296875 181 -98 181 -145 c 3
 181 -188 195 -204 214 -204 c 3
 238 -204 252 -189 252 -137 c 3
 252 -100.846679688 246.833007812 -74.4677734375 222 -12 c 10
 55 393 l 1
EndSplineSet
Fore
SplineSet
2 425 m 1
 184 425 l 1
 184 407 l 1
 140 391 l 1
 245 135 l 1
 353 392 l 1
 298 407 l 1
 298 425 l 1
 464 425 l 1
 464 407 l 1
 401 389 l 1
 265 85 l 1
 318 -50 327 -74 327 -127 c 3
 327 -196 287 -230 220 -230 c 3
 171 -230 139 -201 139 -148 c 3
 139 -95 169 -47 199 24 c 2
 203 34 l 1
 55 393 l 1
 2 407 l 1
 2 425 l 1
222 -12 m 1
 196 -71 181 -98 181 -145 c 3
 181 -188 195 -204 214 -204 c 3
 238 -204 252 -189 252 -137 c 3
 252 -101 247 -74 222 -12 c 1
EndSplineSet
Validated: 1
EndChar

StartChar: uni0264
Encoding: 612 612 425
Width: 404
VWidth: -3
GlyphClass: 2
Flags: HMW
AnchorPoint: "bottom" 199 0 basechar 0
AnchorPoint: "top" 210 425 basechar 0
LayerCount: 2
Back
SplineSet
138 435 m 5
 266 209 l 6
 293.256835938 161.9765625 311 133 311 88 c 7
 311 20 262 -12 195 -12 c 7
 136.716796875 -12 97 11 97 66 c 7
 97 103.951171875 107.249372802 126.880344085 129 165 c 6
 226 335 l 6
 256.855660879 389.076931437 288 434 338 434 c 7
 367 434 377 431 394 426 c 5
 386 363 l 5
 371 357 l 5
 348 363 339 365 318 365 c 7
 292 365 272.419497165 341.866824455 253 307 c 6
 165 149 l 6
 149.380241932 120.955434379 141 102 141 67 c 7
 141 37 165 20 189 20 c 7
 216 20 235 31 235 78 c 7
 235 107.153320312 224.821289062 130.826171875 202 171 c 6
 81 384 l 5
 10 389 l 5
 10 407 l 5
 138 435 l 5
EndSplineSet
Fore
SplineSet
190 193 m 1
 165 149 l 2
 149 121 141 102 141 67 c 3
 141 37 165 20 189 20 c 3
 216 20 235 31 235 78 c 3
 235 107 225 131 202 171 c 2
 190 193 l 1
138 435 m 1
 210 307 l 1
 226 335 l 2
 257 389 288 434 338 434 c 3
 367 434 377 431 394 426 c 1
 386 363 l 1
 371 357 l 1
 348 363 339 365 318 365 c 3
 292 365 272 342 253 307 c 2
 232 269 l 1
 266 209 l 2
 293 162 311 133 311 88 c 3
 311 20 262 -12 195 -12 c 3
 137 -12 97 11 97 66 c 3
 97 104 107 127 129 165 c 2
 167 232 l 1
 81 384 l 1
 10 389 l 1
 10 407 l 1
 138 435 l 1
EndSplineSet
Validated: 1
EndChar

StartChar: uni0265
Encoding: 613 613 426
Width: 535
VWidth: -3
GlyphClass: 2
Flags: HMW
LayerCount: 2
Back
Fore
SplineSet
449 -196 m 1
 513 -212 l 1
 513 -230 l 1
 298 -230 l 1
 298 -212 l 1
 375 -189 l 1
 375 82 l 1
 338 34 294 -12 216 -12 c 3
 130 -12 91 41 91 142 c 2
 91 389 l 1
 27 403 l 1
 27 421 l 1
 165 429 l 1
 165 160 l 2
 165 67 195 41 251 41 c 3
 308 41 348 86 375 128 c 1
 375 388 l 1
 311 402 l 1
 311 420 l 1
 449 428 l 1
 449 -196 l 1
EndSplineSet
Validated: 1
EndChar

StartChar: uni0266
Encoding: 614 614 427
Width: 569
VWidth: -3
GlyphClass: 2
Flags: HMW
LayerCount: 2
Back
Fore
SplineSet
112 430 m 2
 112 621 190 684 259 684 c 3
 292 684 312 678 330 672 c 1
 321 612 l 1
 306 606 l 1
 291 615 254 632 234 632 c 3
 216 632 207 630 196 613 c 1
 186 579 186 534 186 469 c 2
 186 343 l 1
 223 391 267 437 345 437 c 7
 431 437 470 384 470 283 c 2
 470 34 l 1
 529 18 l 1
 529 0 l 1
 339 0 l 1
 339 18 l 1
 396 40 l 1
 396 265 l 2
 396 358 363 384 310 384 c 7
 253 384 213 339 186 297 c 1
 186 34 l 1
 240 18 l 1
 240 0 l 1
 45 0 l 1
 45 18 l 1
 112 43 l 1
 112 430 l 2
EndSplineSet
Validated: 1
EndChar

StartChar: uni0267
Encoding: 615 615 428
Width: 560
VWidth: -3
GlyphClass: 2
Flags: HMW
LayerCount: 2
Back
Fore
SplineSet
470 24 m 2
 470 -155 394 -230 312 -230 c 3
 279 -230 259 -224 241 -218 c 1
 250 -158 l 1
 265 -152 l 1
 280 -157 316 -174 336 -174 c 3
 360 -174 374 -171 385 -153 c 1
 395 -119 396 -80 396 -15 c 2
 396 265 l 2
 395.670216913 357.998830556 363 384 310 384 c 3
 253 384 213 339 186 297 c 1
 186 34 l 1
 240 18 l 1
 240 0 l 1
 45 0 l 1
 45 18 l 1
 112 43 l 1
 112 430 l 2
 112 621 190 684 259 684 c 3
 292 684 312 678 330 672 c 1
 321 612 l 1
 306 606 l 1
 291 615 254 632 234 632 c 3
 216 632 207 630 196 613 c 1
 186 579 186 534 186 469 c 2
 186 343 l 1
 223 391 267 437 345 437 c 3
 431 437 470 384 470 283 c 2
 470 24 l 2
EndSplineSet
Validated: 1
EndChar

StartChar: uni0268
Encoding: 616 616 429
Width: 300
VWidth: -3
GlyphClass: 2
UnlinkRmOvrlpSave: 1
Flags: HMW
LayerCount: 2
Back
Fore
SplineSet
272 232 m 1
 22 232 l 1
 22 248 l 1
 78 270 l 1
 272 270 l 1
 272 232 l 1
EndSplineSet
Refer: 73 105 N 1 0 0 1 10 0 2
EndChar

StartChar: uni0269
Encoding: 617 617 430
Width: 300
VWidth: 0
GlyphClass: 2
Flags: HMW
LayerCount: 2
Back
Fore
SplineSet
181 432 m 1
 181 96 l 6
 181 51 188 30 218 30 c 7
 233 30 247 35 261 43 c 5
 271 20 l 5
 234 -4 210 -12 184 -12 c 7
 139 -12 107 4 107 83 c 6
 107 389 l 1
 41 401 l 1
 41 419 l 1
 181 432 l 1
EndSplineSet
Validated: 1
EndChar

StartChar: uni026A
Encoding: 618 618 431
Width: 350
VWidth: -3
GlyphClass: 2
Flags: HMW
AnchorPoint: "bottom" 172 0 basechar 0
AnchorPoint: "top" 174 425 basechar 0
LayerCount: 2
Back
Fore
SplineSet
210 387 m 1
 210 34 l 1
 290 18 l 1
 290 0 l 1
 50 0 l 1
 50 18 l 1
 136 43 l 1
 136 386 l 1
 60 407 l 1
 60 425 l 1
 280 425 l 1
 280 407 l 1
 210 387 l 1
EndSplineSet
Validated: 1
EndChar

StartChar: uni026C
Encoding: 620 620 433
Width: 304
VWidth: -3
GlyphClass: 2
UnlinkRmOvrlpSave: 1
Flags: HMW
LayerCount: 2
Back
Fore
SplineSet
125 360 m 17
 106 392 91 400 73 400 c 3
 52 400 40 378 40 363 c 3
 40 336.69140625 61.05078125 309 124 309 c 10
 304 309 l 1
 304 271 l 25
 118 271 l 18
 27 271 -10 301.744140625 -10 355 c 3
 -10 413.008789062 25 437 66 437 c 3
 93 437 108 425 125 405 c 9
 125 360 l 17
EndSplineSet
Refer: 76 108 N 1 0 0 1 10 0 2
EndChar

StartChar: uni026D
Encoding: 621 621 434
Width: 284
VWidth: -3
GlyphClass: 2
Flags: HMW
AnchorPoint: "bottom" 158 0 basechar 0
AnchorPoint: "top" 150 678 basechar 0
LayerCount: 2
Back
Fore
SplineSet
115 -135 m 6
 115 647 l 1
 44 659 l 1
 44 677 l 1
 189 693 l 1
 189 -122 l 6
 189 -167 201 -187 231 -187 c 7
 246 -187 263 -183 277 -175 c 5
 286 -198 l 5
 249 -222 223 -230 197 -230 c 7
 152 -230 115 -214 115 -135 c 6
EndSplineSet
Validated: 1
EndChar

StartChar: uni026F
Encoding: 623 623 435
Width: 805
VWidth: -3
GlyphClass: 2
Flags: HMW
LayerCount: 2
Back
SplineSet
375 88 m 5
 338 36 292 -12 214 -12 c 7
 128 -12 91 41 91 142 c 6
 91 389 l 5
 27 403 l 5
 27 421 l 5
 165 429 l 5
 165 160 l 6
 165 67 193 41 249 41 c 7
 306 41 341 86 368 128 c 5
 375 88 l 5
442 429 m 5
 442 160 l 6
 442 67 470 41 526 41 c 7
 583 41 618 86 645 128 c 5
 645 388 l 5
 581 402 l 5
 581 420 l 5
 719 428 l 5
 719 77 l 5
 726 36 l 5
 773 29 l 5
 774 12 l 5
 651 -9 l 5
 649 1 l 5
 645 82 l 5
 608 34 569 -12 491 -12 c 7
 405 -12 368 41 368 128 c 6
 368 389 l 5
 304 403 l 5
 304 421 l 5
 442 429 l 5
EndSplineSet
Fore
SplineSet
165 429 m 5
 165 160 l 6
 165 67 193 41 249 41 c 7
 306 41 341 86 368 128 c 5
 368 389 l 5
 304 403 l 5
 304 421 l 5
 442 429 l 5
 442 160 l 6
 442 67 470 41 526 41 c 7
 583 41 618 86 645 128 c 5
 645 388 l 1
 581 402 l 5
 581 420 l 5
 719 428 l 1
 719 77 l 1
 726 36 l 1
 773 29 l 1
 774 12 l 1
 651 -9 l 1
 649 1 l 1
 645 82 l 5
 608 34 569 -12 491 -12 c 7
 421 -12 383 24 372 84 c 5
 336 34 290 -12 214 -12 c 7
 128 -12 91 41 91 142 c 6
 91 389 l 5
 27 403 l 5
 27 421 l 5
 165 429 l 5
EndSplineSet
Validated: 1
EndChar

StartChar: uni0270
Encoding: 624 624 436
Width: 805
VWidth: -3
GlyphClass: 2
Flags: HMW
LayerCount: 2
Back
Fore
SplineSet
165 429 m 1
 165 160 l 2
 165 67 193 41 249 41 c 3
 306 41 341 86 368 128 c 1
 368 389 l 1
 304 403 l 1
 304 421 l 1
 442 429 l 1
 442 160 l 2
 442 67 470 41 526 41 c 3
 583 41 618 86 645 128 c 1
 645 388 l 1
 581 402 l 1
 581 420 l 1
 719 428 l 1
 719 -196 l 1
 783 -212 l 1
 783 -230 l 1
 568 -230 l 1
 568 -212 l 1
 645 -189 l 1
 645 82 l 1
 608 34 569 -12 491 -12 c 3
 421 -12 383 24 372 84 c 1
 336 34 290 -12 214 -12 c 3
 128 -12 91 41 91 142 c 2
 91 389 l 1
 27 403 l 1
 27 421 l 1
 165 429 l 1
EndSplineSet
Validated: 1
EndChar

StartChar: uni0271
Encoding: 625 625 437
Width: 826
VWidth: -3
GlyphClass: 2
Flags: HMW
LayerCount: 2
Back
Fore
SplineSet
335 437 m 7
 404 437 441 403 453 338 c 1
 486 388 536 437 613 437 c 3
 699 437 736 384 736 283 c 2
 736 24 l 2
 736 -155 660 -230 578 -230 c 3
 545 -230 525 -224 507 -218 c 1
 516 -158 l 1
 531 -152 l 1
 546 -157 582 -174 602 -174 c 3
 626 -174 640 -171 651 -153 c 1
 661 -119 662 -80 662 -15 c 2
 662 265 l 2
 662 358 634 384 578 384 c 3
 522 384 486 340 458 297 c 1
 458 34 l 1
 512 18 l 1
 512 0 l 1
 327 0 l 1
 327 18 l 1
 384 40 l 1
 384 265 l 2
 384 358 356 384 300 384 c 3
 243 384 207 339 180 297 c 1
 180 34 l 1
 234 18 l 1
 234 0 l 1
 39 0 l 1
 39 18 l 1
 106 43 l 1
 106 389 l 1
 40 401 l 1
 40 419 l 1
 180 432 l 1
 180 343 l 1
 217 391 257 437 335 437 c 7
EndSplineSet
Validated: 1
EndChar

StartChar: uni0272
Encoding: 626 626 438
Width: 553
VWidth: -3
GlyphClass: 2
Flags: HMW
LayerCount: 2
Back
Fore
SplineSet
106 -15 m 2
 106 389 l 1
 40 401 l 1
 40 419 l 1
 180 432 l 1
 180 343 l 1
 217 391 260 437 338 437 c 3
 424 437 463 384 463 283 c 2
 463 34 l 1
 522 18 l 1
 522 0 l 1
 333 0 l 1
 333 18 l 1
 390 40 l 1
 390 265 l 2
 390 358 359 384 303 384 c 3
 246 384 207 339 180 297 c 1
 180 24 l 2
 180 -155 104 -230 22 -230 c 3
 -11 -230 -31 -224 -49 -218 c 1
 -40 -158 l 1
 -25 -152 l 1
 -10 -157 26 -174 46 -174 c 3
 70 -174 84 -171 95 -153 c 1
 105 -119 106 -80 106 -15 c 2
EndSplineSet
Validated: 1
EndChar

StartChar: uni0273
Encoding: 627 627 439
Width: 553
VWidth: -3
GlyphClass: 2
Flags: HMW
LayerCount: 2
Back
Fore
SplineSet
338 437 m 3
 424 437 463 384 463 283 c 2
 463 -122 l 2
 463 -167 475 -187 505 -187 c 3
 520 -187 537 -183 551 -175 c 1
 560 -198 l 1
 523 -222 497 -230 471 -230 c 3
 426 -230 390 -214 390 -135 c 2
 390 265 l 2
 390 358 359 384 303 384 c 3
 246 384 206 339 179 297 c 1
 179 34 l 1
 233 18 l 1
 233 0 l 1
 34 0 l 1
 34 18 l 1
 106 43 l 1
 106 389 l 1
 35 401 l 1
 35 419 l 1
 179 432 l 1
 179 343 l 1
 216 391 260 437 338 437 c 3
EndSplineSet
Validated: 1
EndChar

StartChar: uni0274
Encoding: 628 628 440
Width: 538
VWidth: 0
GlyphClass: 2
Flags: HMW
LayerCount: 2
Back
Fore
SplineSet
44 425 m 1
 184 425 l 1
 386 133 l 1
 386 389 l 1
 330 405 l 1
 330 425 l 1
 498 425 l 1
 498 405 l 1
 435 389 l 1
 435 -5 l 1
 390 -5 l 1
 159 330 l 1
 157 330 l 1
 157 36 l 1
 213 20 l 1
 213 0 l 1
 40 0 l 1
 40 20 l 1
 108 36 l 1
 108 389 l 1
 44 404 l 1
 44 425 l 1
EndSplineSet
Validated: 1
EndChar

StartChar: uni0275
Encoding: 629 629 441
Width: 484
VWidth: -3
GlyphClass: 2
UnlinkRmOvrlpSave: 1
Flags: HMW
AnchorPoint: "bottom" 236 0 basechar 0
AnchorPoint: "top" 246 425 basechar 0
LayerCount: 2
Back
Fore
SplineSet
374 213 m 1
 83 213 l 1
 83 229 l 1
 139 251 l 1
 374 251 l 1
 374 213 l 1
EndSplineSet
Refer: 79 111 N 1 0 0 1 0 0 2
EndChar

StartChar: uni0276
Encoding: 630 630 442
Width: 635
VWidth: -3
GlyphClass: 2
Flags: HMW
AnchorPoint: "top" 352 425 basechar 0
AnchorPoint: "bottom" 342 0 basechar 0
LayerCount: 2
Back
Fore
SplineSet
302 389 m 1
 256 389 l 2
 205 389 178 380 157 361 c 1
 135 327 120 297 120 220 c 3
 120 101 172 36 252 36 c 2
 302 36 l 1
 302 389 l 1
235 0 m 2
 151 0 40 44 40 200 c 3
 40 350 129 425 266 425 c 2
 498 425 l 1
 553 430 l 1
 572 430 l 1
 580 324 l 1
 546 320 l 1
 530 389 l 1
 376 389 l 1
 376 241 l 1
 477 241 l 1
 492 290 l 1
 520 290 l 1
 520 160 l 1
 492 160 l 1
 477 209 l 1
 376 209 l 1
 376 36 l 1
 543 36 l 1
 566 116 l 1
 600 111 l 1
 587 0 l 1
 235 0 l 2
EndSplineSet
Validated: 1
EndChar

StartChar: uni0277
Encoding: 631 631 443
Width: 590
VWidth: -3
GlyphClass: 2
Flags: HMW
AnchorPoint: "top" 299 425 basechar 0
AnchorPoint: "bottom" 289 0 basechar 0
LayerCount: 2
Back
Fore
SplineSet
540 204.5 m 3
 540 64.5 471 -12.5 389 -12.5 c 3
 331 -12.5 307 25.5 286 122.5 c 1
 262 20.5 225 -12.5 181 -12.5 c 3
 107 -12.5 50 44.5 50 201.5 c 3
 50 335.5 146 437 306 437 c 3
 471 437 540 335.5 540 204.5 c 3
463 183.5 m 3
 463 320.0546875 428 404.5 300 404.5 c 3
 173 404.5 128 320.5 128 206.5 c 3
 128 85.966796875 158.94140625 24.5 196 24.5 c 3
 229.836914062 24.5 252 83 276 232.5 c 1
 322 246.5 l 1
 348 140 367 21.5 409 21.5 c 3
 435 21.5 463 58.99609375 463 183.5 c 3
EndSplineSet
Validated: 1
EndChar

StartChar: uni0278
Encoding: 632 632 444
Width: 524
VWidth: -3
GlyphClass: 2
Flags: HMW
LayerCount: 2
Back
SplineSet
266 401 m 3
 154 401 120 337 120 220 c 3
 120 101 177 25 262 25 c 3
 374 25 408 89 408 206 c 3
 408 325 351 401 266 401 c 3
156 677 m 1
 301 693 l 1
 301 -196 l 1
 365 -212 l 1
 365 -230 l 1
 157 -230 l 1
 157 -212 l 1
 227 -187 l 1
 227 647 l 1
 156 659 l 1
 156 677 l 1
246 -12 m 3
 148 -12 40 44 40 205 c 3
 40 350 136 437 276 437 c 3
 374 437 484 383 484 222 c 3
 484 77 386 -12 246 -12 c 3
EndSplineSet
Fore
SplineSet
301 693 m 1
 301 436 l 1
 392 427 484 369 484 222 c 3
 484 97 411 14 301 -7 c 1
 301 -196 l 1
 365 -212 l 1
 365 -230 l 1
 157 -230 l 1
 157 -212 l 1
 227 -187 l 1
 227 -11 l 1
 135 -4 40 54 40 205 c 3
 40 332 114 415 227 433 c 1
 227 647 l 1
 156 659 l 1
 156 677 l 1
 301 693 l 1
301 396 m 1
 301 28 l 1
 382 42 408 104 408 206 c 3
 408 308 366 378 301 396 c 1
227 398 m 1
 146 384 120 322 120 220 c 3
 120 118 162 48 227 30 c 1
 227 398 l 1
EndSplineSet
Validated: 1
EndChar

StartChar: uni0279
Encoding: 633 633 445
Width: 363
VWidth: -3
GlyphClass: 2
Flags: HMW
LayerCount: 2
Back
Fore
SplineSet
277 432 m 1
 277 77 l 1
 284 36 l 1
 331 29 l 1
 332 12 l 1
 209 -9 l 1
 207 1 l 1
 203 90 l 1
 171 38 134 -9 79 -9 c 3
 50 -9 35 -5 18 0 c 1
 26 63 l 1
 41 69 l 1
 65 62 84 58 114 58 c 3
 151 58 177 91 203 137 c 1
 203 389 l 1
 137 401 l 1
 137 419 l 1
 277 432 l 1
EndSplineSet
Validated: 1
EndChar

StartChar: uni027A
Encoding: 634 634 446
Width: 363
VWidth: -3
GlyphClass: 2
Flags: HMW
LayerCount: 2
Back
Fore
SplineSet
277 693 m 1
 277 77 l 1
 284 36 l 1
 331 29 l 1
 332 12 l 1
 209 -9 l 1
 207 1 l 1
 203 90 l 1
 171 38 134 -9 79 -9 c 3
 50 -9 35 -5 18 0 c 1
 26 63 l 1
 41 69 l 1
 65 62 84 58 114 58 c 3
 151 58 177 91 203 137 c 1
 203 647 l 1
 132 659 l 1
 132 677 l 1
 277 693 l 1
EndSplineSet
Validated: 1
EndChar

StartChar: uni027B
Encoding: 635 635 447
Width: 363
VWidth: -3
GlyphClass: 2
Flags: HMW
LayerCount: 2
Back
Fore
SplineSet
277 432 m 1
 277 -122 l 6
 277 -167 289 -187 319 -187 c 7
 334 -187 351 -183 365 -175 c 5
 374 -198 l 5
 337 -222 311 -230 285 -230 c 7
 240 -230 203 -214 203 -135 c 6
 203 90 l 1
 171 38 134 -9 79 -9 c 3
 50 -9 35 -5 18 0 c 1
 26 63 l 1
 41 69 l 1
 65 62 84 58 114 58 c 3
 151 58 177 91 203 137 c 1
 203 389 l 1
 137 401 l 1
 137 419 l 1
 277 432 l 1
EndSplineSet
Validated: 1
EndChar

StartChar: uni027C
Encoding: 636 636 448
Width: 383
VWidth: -3
GlyphClass: 2
Flags: HMW
LayerCount: 2
Back
Fore
SplineSet
180 432 m 1
 180 335 l 1
 212 387 249 434 304 434 c 3
 333 434 348 430 365 425 c 1
 357 362 l 1
 342 356 l 1
 318 363 299 367 269 367 c 3
 232 367 206 334 180 288 c 1
 180 -195 l 1
 259 -212 l 1
 259 -230 l 1
 39 -230 l 1
 39 -212 l 1
 106 -187 l 1
 106 389 l 1
 40 401 l 1
 40 419 l 1
 180 432 l 1
EndSplineSet
Validated: 1
EndChar

StartChar: uni027D
Encoding: 637 637 449
Width: 383
VWidth: -3
GlyphClass: 2
Flags: HMW
LayerCount: 2
Back
Fore
SplineSet
180 -122 m 6
 180 -167 192 -187 222 -187 c 7
 237 -187 254 -183 268 -175 c 5
 277 -198 l 5
 240 -222 214 -230 188 -230 c 7
 143 -230 106 -214 106 -135 c 6
 106 389 l 1
 40 401 l 1
 40 419 l 1
 180 432 l 1
 180 335 l 1
 212 387 249 434 304 434 c 3
 333 434 348 430 365 425 c 1
 357 362 l 1
 342 356 l 1
 318 363 299 367 269 367 c 3
 232 367 206 334 180 288 c 1
 180 -122 l 6
EndSplineSet
Validated: 1
EndChar

StartChar: uni027E
Encoding: 638 638 450
Width: 359
VWidth: -3
GlyphClass: 2
Flags: HMW
LayerCount: 2
Back
Fore
SplineSet
329 427 m 1
 320 367 l 1
 305 361 l 1
 290 366 251 379 231 379 c 3
 207 379 200 378 189 360 c 1
 179 326 178 287 178 222 c 2
 178 38 l 1
 277 18 l 1
 277 0 l 1
 35 0 l 1
 35 18 l 1
 105 43 l 1
 105 183 l 2
 105 362 191 437 268 437 c 3
 301 437 311 433 329 427 c 1
EndSplineSet
Validated: 1
EndChar

StartChar: uni027F
Encoding: 639 639 451
Width: 380
VWidth: -3
GlyphClass: 2
Flags: HMW
LayerCount: 2
Back
Fore
SplineSet
175 437 m 7
 243 437 291 397.990234375 291 289 c 6
 291 -196 l 1
 350 -212 l 1
 350 -230 l 1
 117 -230 l 1
 117 -212 l 1
 217 -187 l 1
 217 269 l 6
 217 353.991210938 199 388 146 388 c 7
 104 388 85 383 45 358 c 5
 30 383 l 5
 81 420 114 437 175 437 c 7
EndSplineSet
Validated: 1
EndChar

StartChar: uni0280
Encoding: 640 640 452
Width: 495
VWidth: 0
GlyphClass: 2
Flags: HMW
LayerCount: 2
Back
Fore
SplineSet
194 389 m 1
 194 31 l 1
 253 20 l 1
 253 0 l 1
 50 0 l 1
 50 18 l 1
 120 43 l 1
 120 389 l 1
 54 407 l 1
 54 425 l 1
 276 425 l 2
 370 425 421 408.022460938 421 325 c 3
 421 261 360 218 303 205 c 1
 423 63 l 1
 465 18 l 1
 465 0 l 1
 374 0 l 1
 217 211 l 1
 217 222 l 17
 306 222 341 261.967773438 341 319 c 3
 341 377.0078125 305 389 253 389 c 2
 194 389 l 1
EndSplineSet
Validated: 1
EndChar

StartChar: uni0281
Encoding: 641 641 453
Width: 485
VWidth: 0
GlyphClass: 2
Flags: HMW
LayerCount: 2
Back
Fore
SplineSet
264 244 m 1
 362 237 431 196 431 132 c 3
 431 45.9775390625 375 0 262 0 c 2
 49 0 l 1
 49 18 l 1
 115 43 l 1
 115 389 l 1
 51 403 l 1
 51 421 l 1
 189 429 l 1
 189 36 l 1
 254 36 l 2
 320 36 351 60.9921875 351 117 c 3
 351 174.032226562 286 201 204 205 c 9
 204 217 l 1
 314 384 l 9
 284 402 l 1
 284 425 l 1
 429 425 l 1
 429 402 l 1
 360 381 l 1
 264 244 l 1
EndSplineSet
Validated: 1
EndChar

StartChar: uni0282
Encoding: 642 642 454
Width: 393
VWidth: 0
GlyphClass: 2
Flags: HMW
LayerCount: 2
Back
Fore
SplineSet
176 -12 m 3
 165.53125 -12 142 -11 129 -9 c 1
 129 -122 l 2
 129 -166.968585034 141 -187 171 -187 c 3
 186 -187 203 -183 217 -175 c 1
 226 -198 l 1
 189 -222 163 -230 137 -230 c 3
 92 -230 55 -214 55 -135 c 2
 55 45 l 1
 68 53 l 1
 100 42 141 26 186 26 c 3
 248 26 275 46 275 90 c 3
 275 135 235 154 174 182 c 0
 93 219 55 252 55 319 c 3
 55 380 106 437 209 437 c 3
 258 437 289 428 318 415 c 1
 320 310 l 1
 286 307 l 1
 267 379 l 1
 252 394 230 402 191 402 c 3
 139 402 114 379 114 343 c 3
 114 298 166 275 219 250 c 0
 302 211 343 185 343 115 c 3
 343 48 293 -12 176 -12 c 3
EndSplineSet
Validated: 1
EndChar

StartChar: uni0284
Encoding: 644 644 455
Width: 310
VWidth: -3
GlyphClass: 2
Flags: HMW
LayerCount: 2
Back
Fore
SplineSet
270 684 m 7
 303 684 318 678 336 672 c 1
 327 612 l 1
 312 606 l 1
 297 611 261 628 241 628 c 3
 217 628 207 625 196 607 c 1
 186 573 185 534 185 469 c 2
 185 270 l 1
 268 270 l 1
 268 232 l 1
 185 232 l 1
 185 24 l 2
 185 -155 109 -230 27 -230 c 3
 -6 -230 -21 -224 -39 -218 c 1
 -30 -158 l 1
 -15 -152 l 1
 0 -157 36 -174 56 -174 c 3
 80 -174 90 -171 101 -153 c 1
 111 -119 112 -80 112 -15 c 2
 112 232 l 1
 18 232 l 1
 18 248 l 1
 74 270 l 1
 112 270 l 1
 112 430 l 2
 112 609 188 684 270 684 c 7
EndSplineSet
Validated: 1
EndChar

StartChar: uni0285
Encoding: 645 645 456
Width: 380
VWidth: -3
GlyphClass: 2
Flags: HMW
LayerCount: 2
Back
Fore
SplineSet
291 -122 m 6
 291 -167 303 -187 333 -187 c 7
 348 -187 365 -183 379 -175 c 5
 388 -198 l 5
 351 -222 325 -230 299 -230 c 7
 254 -230 217 -214 217 -135 c 6
 217 269 l 2
 217 354 199 388 146 388 c 3
 104 388 95 383 55 358 c 1
 40 383 l 1
 91 420 114 437 175 437 c 3
 243 437 291 398 291 289 c 2
 291 -122 l 6
EndSplineSet
Validated: 1
EndChar

StartChar: uni0286
Encoding: 646 646 457
Width: 380
VWidth: -3
GlyphClass: 2
Flags: HMW
LayerCount: 2
Back
SplineSet
53 -115 m 7
 53 -177 77.98828125 -186 120 -186 c 7
 144 -186 160 -176 171 -158 c 5
 181 -124 182 -80 182 -15 c 6
 182 430 l 6
 182 609 258 684 340 684 c 7
 373 684 388 678 406 672 c 5
 397 612 l 5
 382 606 l 5
 367 611 331 628 311 628 c 7
 287 628 277 625 266 607 c 5
 256 573 255 534 255 469 c 6
 255 24 l 6
 255 -162 179 -230 97 -230 c 7
 29.9697265625 -230 -17 -203 -17 -133 c 7
 -17 -40.9951171875 65 -12 151 -12 c 6
 345 -12 l 5
 345 -50 l 5
 146 -50 l 6
 66 -50 53 -69 53 -115 c 7
EndSplineSet
Fore
SplineSet
146 -50 m 2
 66 -50 53 -69 53 -115 c 3
 53 -177 78 -186 120 -186 c 3
 144 -186 160 -176 171 -158 c 1
 179 -130 181 -96 182 -50 c 1
 146 -50 l 2
340 684 m 3
 373 684 388 678 406 672 c 1
 397 612 l 1
 382 606 l 1
 367 611 331 628 311 628 c 3
 287 628 277 625 266 607 c 1
 256 573 255 534 255 469 c 2
 255 24 l 2
 255 11 255 -1 254 -12 c 1
 345 -12 l 1
 345 -50 l 1
 250 -50 l 1
 232 -180 167 -230 97 -230 c 3
 30 -230 -17 -203 -17 -133 c 3
 -17 -41 65 -12 151 -12 c 2
 182 -12 l 1
 182 430 l 2
 182 609 258 684 340 684 c 3
EndSplineSet
Validated: 1
EndChar

StartChar: uni0287
Encoding: 647 647 458
Width: 348
VWidth: 0
GlyphClass: 2
Flags: HMW
LayerCount: 2
Back
Fore
SplineSet
169 437 m 7
 213 437 241 410 241 318 c 2
 241 38 l 1
 301 38 l 1
 301 0 l 1
 241 0 l 1
 241 -83 l 1
 181 -122 l 1
 167 -122 l 1
 167 0 l 1
 42 0 l 1
 42 16 l 1
 83 38 l 1
 167 38 l 1
 167 305 l 2
 167 361 154 386 115 386 c 3
 94 386 76 380 57 366 c 1
 44 386 l 1
 81 419 122 437 169 437 c 7
EndSplineSet
Validated: 1
EndChar

StartChar: uni0288
Encoding: 648 648 459
Width: 348
VWidth: 0
GlyphClass: 2
Flags: HMW
LayerCount: 2
Back
Fore
SplineSet
167 547 m 1
 181 547 l 1
 181 425 l 1
 291 425 l 1
 291 387 l 1
 181 387 l 1
 181 -98 l 2
 181 -154 194 -179 233 -179 c 7
 254 -179 272 -173 291 -159 c 1
 304 -179 l 1
 267 -212 226 -230 179 -230 c 7
 135 -230 107 -203 107 -111 c 2
 107 387 l 1
 40 387 l 1
 40 403 l 1
 81 425 l 1
 107 425 l 1
 107 508 l 1
 167 547 l 1
EndSplineSet
Validated: 1
EndChar

StartChar: uni0289
Encoding: 649 649 460
Width: 535
VWidth: -3
GlyphClass: 2
UnlinkRmOvrlpSave: 1
Flags: HMW
AnchorPoint: "bottom" 281 0 basechar 0
AnchorPoint: "top" 267 425 basechar 0
LayerCount: 2
Back
Fore
SplineSet
504 232 m 1
 27 232 l 1
 27 248 l 1
 83 270 l 1
 504 270 l 1
 504 232 l 1
EndSplineSet
Refer: 85 117 N 1 0 0 1 0 0 2
EndChar

StartChar: uni028A
Encoding: 650 650 461
Width: 556
VWidth: -3
GlyphClass: 2
Flags: HMW
AnchorPoint: "bottom" 272 0 basechar 0
AnchorPoint: "top" 282 425 basechar 0
LayerCount: 2
Back
Fore
SplineSet
400 189 m 3
 400 301 347 352 312 377 c 1
 333 425 l 1
 481 425 l 1
 481 403 l 1
 400 379 l 17
 435 350 480 295 480 209 c 3
 480 66 391 -12 262 -12 c 3
 187 -12 76 31 76 177 c 3
 76 276.529296875 119.18359375 321.918945312 175 369 c 1
 75 398 l 1
 75 425 l 1
 244 425 l 1
 251 399 l 25
 203 349 l 1
 177 313 156 274 156 197 c 3
 156 88 208 29 278 29 c 3
 363 29 400 84 400 189 c 3
EndSplineSet
Validated: 1
EndChar

StartChar: uni028B
Encoding: 651 651 462
Width: 464
GlyphClass: 2
Flags: HMW
LayerCount: 2
Back
Fore
SplineSet
155 429 m 1
 191 139 l 2
 201.375976562 55.416015625 221 39 251 39 c 3
 305 39 352 159.454101562 352 250 c 3
 352 324.008789062 326 373 312 392 c 1
 365 437 l 1
 387 433 l 1
 401 424 419 391.248046875 419 343 c 3
 419 172.986328125 327 -12 221 -12 c 3
 167.991210938 -12 131.438476562 13.6806640625 118 120 c 2
 84 389 l 1
 20 403 l 1
 20 421 l 1
 155 429 l 1
EndSplineSet
Validated: 1
EndChar

StartChar: uni028F
Encoding: 655 655 466
Width: 424
VWidth: 0
GlyphClass: 2
Flags: HMW
AnchorPoint: "top" 223 425 basechar 0
AnchorPoint: "bottom" 213 0 basechar 0
LayerCount: 2
Back
SplineSet
172 184 m 5
 246 184 l 5
 246 34 l 5
 310 18 l 5
 310 0 l 5
 102 0 l 5
 102 18 l 5
 172 43 l 5
 172 184 l 5
5 425 m 5
 182 425 l 5
 182 407 l 5
 143 391 l 5
 227 225 l 5
 308 392 l 13
 258 407 l 5
 258 425 l 5
 419 425 l 5
 419 407 l 5
 356 389 l 21
 217 127 l 5
 199 127 l 5
 58 393 l 5
 5 407 l 5
 5 425 l 5
EndSplineSet
Fore
SplineSet
5 425 m 1
 182 425 l 1
 182 407 l 1
 143 391 l 1
 227 225 l 1
 308 392 l 1
 258 407 l 1
 258 425 l 1
 419 425 l 1
 419 407 l 1
 356 389 l 1
 246 182 l 1
 246 34 l 1
 310 18 l 1
 310 0 l 1
 102 0 l 1
 102 18 l 1
 172 43 l 1
 172 178 l 1
 58 393 l 1
 5 407 l 1
 5 425 l 1
EndSplineSet
Validated: 1
EndChar

StartChar: uni0290
Encoding: 656 656 467
Width: 427
VWidth: 0
GlyphClass: 2
Flags: HMW
LayerCount: 2
Back
Fore
SplineSet
71 430 m 5
 91 430 l 5
 146 425 l 5
 364 425 l 5
 373 408 l 5
 137 36 l 5
 292 36 l 1
 336 46 l 1
 360 46 l 1
 360 -122 l 2
 360 -167 372 -187 402 -187 c 3
 417 -187 434 -183 448 -175 c 1
 457 -198 l 1
 420 -222 394 -230 368 -230 c 3
 323 -230 286 -214 286 -135 c 2
 286 0 l 1
 47 0 l 5
 40 18 l 5
 274 389 l 5
 114 389 l 5
 94 308 l 5
 57 312 l 5
 71 430 l 5
EndSplineSet
Validated: 1
EndChar

StartChar: uni0291
Encoding: 657 657 468
Width: 427
VWidth: 0
GlyphClass: 2
Flags: HMW
LayerCount: 2
Back
SplineSet
71 430 m 5
 91 430 l 5
 146 425 l 5
 364 425 l 5
 373 408 l 5
 137 36 l 5
 342 36 l 6
 374 36 383 40 402 53 c 5
 412 68 415 87 415 102 c 7
 415 135 408 166 357 166 c 7
 304 166 276 80 237 -80 c 13
 207 -68 l 21
 254 90 268 196 370 196 c 7
 414 196 456 171 456 113 c 7
 456 87 448.549804688 52.5498046875 426 30 c 4
 397 1 363 0 336 0 c 6
 47 0 l 5
 40 18 l 5
 274 389 l 5
 114 389 l 5
 94 308 l 5
 57 312 l 5
 71 430 l 5
EndSplineSet
Fore
SplineSet
71 430 m 1
 91 430 l 1
 146 425 l 1
 364 425 l 1
 373 408 l 1
 137 36 l 1
 237 36 l 1
 266 135 292 196 370 196 c 3
 414 196 456 171 456 113 c 3
 456 87 449 53 426 30 c 0
 397 1 363 0 336 0 c 2
 257 -0 l 1
 250 -24 244 -51 237 -80 c 1
 207 -68 l 1
 214 -44 220 -21 226 0 c 1
 47 0 l 1
 40 18 l 1
 274 389 l 1
 114 389 l 1
 94 308 l 1
 57 312 l 1
 71 430 l 1
357 166 m 7
 319 166 294 121 268 36 c 1
 342 36 l 2
 374 36 383 40 402 53 c 1
 412 68 415 87 415 102 c 3
 415 135 408 166 357 166 c 7
EndSplineSet
Validated: 1
EndChar

StartChar: uni0292
Encoding: 658 658 469
Width: 419
VWidth: 0
GlyphClass: 2
Flags: HMW
LayerCount: 2
Back
Fore
SplineSet
71 430 m 1
 91 430 l 1
 146 425 l 1
 335 425 l 1
 344 408 l 1
 181 163 l 1
 206 161 248.021484375 153.05859375 271 144 c 0
 330.453153523 120.562369228 369 73 369 2 c 3
 369 -159 222 -230 36 -230 c 1
 36 -194 l 1
 207 -194 291 -137 291 -24 c 3
 291 35 268 71 231 91 c 0
 198 109 170 113 125 115 c 1
 111 127 l 1
 266 367 l 1
 114 367 l 1
 94 312 l 1
 57 316 l 1
 71 430 l 1
EndSplineSet
Validated: 1
EndChar

StartChar: uni0293
Encoding: 659 659 470
Width: 419
VWidth: 0
GlyphClass: 2
Flags: HMW
LayerCount: 2
Back
SplineSet
71 430 m 5
 91 430 l 5
 146 425 l 5
 335 425 l 5
 344 408 l 5
 181 163 l 5
 206 161 249.24125809 152.634421393 271 144 c 4
 334 119 369 73 369 2 c 7
 369 -159 269.264648438 -230 154 -230 c 7
 69.9697265625 -230 0 -199 0 -125 c 7
 0 -42.9951171875 76 -12 142 -12 c 6
 362 -12 l 5
 362 -50 l 5
 143 -50 l 6
 99 -50 70 -63 70 -114 c 7
 70 -165 103.810546875 -193 170 -193 c 7
 252.1796875 -193 291 -137 291 -24 c 7
 291 35 268 71 231 91 c 4
 198 109 170 113 125 115 c 5
 111 127 l 5
 266 367 l 5
 114 367 l 5
 94 312 l 5
 57 316 l 5
 71 430 l 5
EndSplineSet
Fore
SplineSet
71 430 m 1
 91 430 l 1
 146 425 l 1
 335 425 l 1
 344 408 l 1
 181 163 l 1
 206 161 249 153 271 144 c 0
 334 119 369 73 369 2 c 3
 369 -159 269 -230 154 -230 c 3
 70 -230 0 -199 0 -125 c 3
 0 -43 76 -12 142 -12 c 2
 291 -12 l 1
 288 40 265 72 231 91 c 0
 198 109 170 113 125 115 c 1
 111 127 l 1
 266 367 l 1
 114 367 l 1
 94 312 l 1
 57 316 l 1
 71 430 l 1
143 -50 m 2
 99 -50 70 -63 70 -114 c 3
 70 -165 104 -193 170 -193 c 3
 246 -193 284 -146 290 -50 c 1
 143 -50 l 2
EndSplineSet
Validated: 1
EndChar

StartChar: uni0294
Encoding: 660 660 471
Width: 412
VWidth: -3
GlyphClass: 2
Flags: HMW
LayerCount: 2
Back
Fore
SplineSet
233 309 m 1
 233 34 l 1
 297 18 l 1
 297 0 l 1
 89 0 l 1
 89 18 l 1
 159 43 l 1
 159 311 l 1
 253 352 292 411 292 509 c 3
 292 596 241 640 177 640 c 3
 134 640 88 632 49 608 c 1
 34 633 l 1
 87 670 137 690 208 690 c 3
 312 690 372 624 372 528 c 3
 372 403 291 348 233 309 c 1
EndSplineSet
Validated: 1
EndChar

StartChar: uni0295
Encoding: 661 661 472
Width: 413
VWidth: -3
GlyphClass: 2
Flags: HMW
LayerCount: 2
Back
Fore
SplineSet
213 295 m 1
 150 309 41 348 41 473 c 3
 41 621 162 690 267 690 c 3
 308 690 341 682 359 675 c 1
 367 570 l 1
 329 564 l 1
 308 638 l 1
 293 644 265 649 242 649 c 3
 182 649 116 610 116 500 c 3
 116 389 191 346 287 335 c 1
 287 34 l 1
 351 18 l 1
 351 0 l 1
 143 0 l 1
 143 18 l 1
 213 43 l 1
 213 295 l 1
EndSplineSet
Validated: 1
EndChar

StartChar: uni0296
Encoding: 662 662 473
Width: 448
VWidth: -3
GlyphClass: 2
Flags: HMW
LayerCount: 2
Back
Fore
SplineSet
156 -12 m 3
 103 -12 70 -4 35 8 c 1
 29 116 l 1
 65 119 l 1
 83 47 l 1
 102 35 126 26 166 26 c 3
 254 26 327 68 327 178 c 3
 327 289 264 332 156 343 c 1
 156 647 l 1
 85 659 l 1
 85 677 l 1
 230 693 l 1
 230 383 l 1
 308 369 402 330 402 205 c 3
 402 57 291 -12 156 -12 c 3
EndSplineSet
Validated: 1
EndChar

StartChar: uni0297
Encoding: 663 663 474
Width: 653
VWidth: 0
GlyphClass: 2
Flags: HMW
LayerCount: 2
Back
Fore
SplineSet
384 -230 m 3
 199 -230 87 -122.445681124 87 202 c 3
 87 516.014330883 199 650 400 650 c 3
 488 650 548 632 582 617 c 1
 584 491 l 1
 547 487 l 5
 529 575 l 1
 502 590 437 607 388 607 c 3
 243 607 162 526.198242188 162 221 c 3
 162 -103.038085938 273 -183 412 -183 c 3
 461 -183 505 -176 532 -165 c 1
 549 -65 l 1
 593 -68 l 1
 585 -188 l 1
 551 -203 480 -230 384 -230 c 3
EndSplineSet
Validated: 1
EndChar

StartChar: uni0299
Encoding: 665 665 476
Width: 490
VWidth: 0
GlyphClass: 2
Flags: HMW
LayerCount: 2
Back
Fore
SplineSet
54 425 m 1
 263 425 l 2
 368 425 417 408 417 328 c 3
 417 274 380 239 342 226 c 1
 391 217 440 192 440 124 c 3
 440 38 384 0 259 0 c 2
 50 0 l 1
 50 18 l 1
 120 43 l 1
 120 389 l 1
 54 407 l 1
 54 425 l 1
194 201 m 1
 194 36 l 1
 253 36 l 2
 325 36 361 55 361 119 c 3
 361 171 340 201 250 201 c 2
 194 201 l 1
194 389 m 1
 194 232 l 1
 244 232 l 2
 314 232 341 262 341 318 c 3
 341 375 308 389 250 389 c 2
 194 389 l 1
EndSplineSet
Validated: 1
EndChar

StartChar: uni029A
Encoding: 666 666 477
Width: 480
VWidth: -3
GlyphClass: 2
Flags: HMW
AnchorPoint: "top" 241 425 basechar 0
AnchorPoint: "bottom" 231 0 basechar 0
LayerCount: 2
Back
Fore
SplineSet
213 -12 m 3
 95 -12 50 35 50 89 c 3
 50 147 100 188 163 209 c 1
 102 225 58 268 58 312 c 3
 58 356 83 437 236 437 c 3
 337 437 440 388 440 222 c 3
 440 72 343 -12 213 -12 c 3
228 27 m 3
 320 27 360 90 360 207 c 3
 360 326 312 399 232 399 c 3
 150.94140625 399 133 354 133 327 c 3
 133 278.163085938 200 246 235 239 c 1
 238 212 l 1
 161 184 128 159 128 113 c 3
 128 72 156.849609375 27 228 27 c 3
EndSplineSet
Validated: 1
EndChar

StartChar: uni029B
Encoding: 667 667 478
Width: 494
VWidth: -3
GlyphClass: 2
Flags: HMW
LayerCount: 2
Back
Fore
SplineSet
483 684 m 7
 516 684 531 678 549 672 c 1
 540 612 l 1
 525 606 l 1
 510 611 474 628 454 628 c 3
 430 628 420 625 409 607 c 1
 399 573 398 502 398 395 c 1
 388 382 l 1
 372 387 323 397 271 397 c 3
 181 397 125 352 125 232 c 3
 125 103 185 31 281 31 c 3
 309 31 326 34 340 38 c 1
 340 176 l 1
 281 190 l 1
 281 208 l 1
 414 216 l 1
 414 30 l 1
 365 -1 325 -12 249 -12 c 3
 147 -12 50 57 50 205 c 3
 50 363 161 437 276 437 c 3
 297 437 310 436 325 434 c 1
 325 609 401 684 483 684 c 7
EndSplineSet
Validated: 1
EndChar

StartChar: uni029C
Encoding: 668 668 479
Width: 580
VWidth: -3
GlyphClass: 2
Flags: HMW
LayerCount: 2
Back
Fore
SplineSet
56 425 m 1
 248 425 l 1
 248 407 l 1
 194 386 l 1
 194 249 l 5
 392 249 l 5
 392 386 l 1
 338 407 l 1
 338 425 l 1
 530 425 l 1
 530 407 l 1
 466 386 l 1
 466 34 l 1
 530 18 l 1
 530 0 l 1
 332 0 l 1
 332 18 l 1
 392 43 l 1
 392 211 l 5
 194 211 l 5
 194 34 l 1
 248 18 l 1
 248 0 l 1
 50 0 l 1
 50 18 l 1
 120 43 l 1
 120 386 l 1
 56 407 l 1
 56 425 l 1
EndSplineSet
Validated: 1
EndChar

StartChar: uni029D
Encoding: 669 669 480
Width: 360
VWidth: -3
GlyphClass: 2
Flags: HMW
LayerCount: 2
Back
SplineSet
260 616 m 7
 260 589 237 566 210 566 c 7
 183 566 161 589 161 616 c 7
 161 643 183 665 210 665 c 7
 237 665 260 643 260 616 c 7
256 432 m 5
 256 24 l 6
 256 -162 179 -230 97 -230 c 7
 29.9697265625 -230 -17 -203 -17 -133 c 7
 -17 -40.9951171875 65 -12 151 -12 c 6
 345 -12 l 5
 345 -50 l 5
 146 -50 l 6
 66 -50 53 -69 53 -115 c 7
 53 -177 77.98828125 -186 120 -186 c 7
 144 -186 160 -176 171 -158 c 5
 181 -124 182 -80 182 -15 c 6
 182 389 l 5
 116 401 l 5
 116 419 l 5
 256 432 l 5
EndSplineSet
Fore
SplineSet
256 432 m 1
 256 24 l 2
 256 11 256 -1 255 -12 c 1
 345 -12 l 1
 345 -50 l 1
 251 -50 l 1
 233 -180 167 -230 97 -230 c 3
 30 -230 -17 -203 -17 -133 c 3
 -17 -41 65 -12 151 -12 c 2
 182 -12 l 1
 182 389 l 1
 116 401 l 1
 116 419 l 1
 256 432 l 1
260 616 m 7
 260 589 237 566 210 566 c 7
 183 566 161 589 161 616 c 7
 161 643 183 665 210 665 c 7
 237 665 260 643 260 616 c 7
182 -50 m 1
 146 -50 l 2
 66 -50 53 -69 53 -115 c 3
 53 -177 78 -186 120 -186 c 3
 144 -186 160 -176 171 -158 c 1
 179 -130 181 -96 182 -50 c 1
EndSplineSet
Validated: 1
EndChar

StartChar: uni029E
Encoding: 670 670 481
Width: 516
VWidth: 0
GlyphClass: 2
Flags: HMW
LayerCount: 2
Back
Fore
SplineSet
415 429 m 1
 415 -196 l 1
 464 -212 l 1
 464 -230 l 1
 265 -230 l 1
 265 -212 l 1
 341 -187 l 1
 341 389 l 1
 287 403 l 1
 287 421 l 1
 415 429 l 1
163 41 m 9
 193 23 l 1
 193 0 l 1
 44 0 l 1
 44 23 l 1
 111 44 l 1
 261 189 l 1
 115 364 l 1
 68 407 l 1
 68 425 l 1
 159 425 l 1
 332 208 l 1
 163 41 l 9
EndSplineSet
Validated: 1
EndChar

StartChar: uni029F
Encoding: 671 671 482
Width: 440
VWidth: -3
GlyphClass: 2
Flags: HMW
LayerCount: 2
Back
Fore
SplineSet
56 425 m 1
 258 425 l 1
 258 407 l 1
 194 386 l 1
 194 36 l 1
 363 36 l 1
 386 116 l 1
 420 111 l 1
 407 0 l 1
 50 0 l 1
 50 18 l 1
 120 43 l 1
 120 386 l 1
 56 407 l 1
 56 425 l 1
EndSplineSet
Validated: 1
EndChar

StartChar: uni02A0
Encoding: 672 672 483
Width: 529
VWidth: -3
GlyphClass: 2
Flags: HMW
LayerCount: 2
Back
Fore
SplineSet
507 684 m 3
 540 684 560 678 578 672 c 1
 569 612 l 1
 554 606 l 1
 539 615 502 632 482 632 c 3
 464 632 455 630 444 613 c 1
 434 579 434 534 434 469 c 2
 434 -196 l 1
 498 -212 l 1
 498 -230 l 1
 290 -230 l 1
 290 -212 l 1
 360 -187 l 1
 360 48 l 1
 325 11 280 -12 218 -12 c 3
 131 -12 44 49 44 199 c 3
 44 341 132 437 269 437 c 3
 300 437 338 429 360 421 c 1
 360 430 l 2
 360 621 438 684 507 684 c 3
263 400 m 3
 174 400 122 345 122 218 c 3
 122 80 196 40 254 40 c 3
 301 40 330 51 360 82 c 1
 360 380 l 1
 335 391 305 400 263 400 c 3
EndSplineSet
Validated: 1
EndChar

StartChar: uni02A1
Encoding: 673 673 484
Width: 412
VWidth: -3
GlyphClass: 2
UnlinkRmOvrlpSave: 1
Flags: HMW
LayerCount: 2
Back
Fore
SplineSet
314 211 m 1
 62 211 l 1
 62 227 l 1
 118 249 l 1
 314 249 l 1
 314 211 l 1
EndSplineSet
Refer: 471 660 N 1 0 0 1 0 0 2
EndChar

StartChar: uni02A2
Encoding: 674 674 485
Width: 413
VWidth: -3
GlyphClass: 2
UnlinkRmOvrlpSave: 1
Flags: HMW
LayerCount: 2
Back
Fore
SplineSet
362 211 m 1
 110 211 l 1
 110 227 l 1
 166 249 l 1
 362 249 l 1
 362 211 l 1
EndSplineSet
Refer: 472 661 N 1 0 0 1 0 0 2
EndChar

StartChar: uni02AC
Encoding: 684 684 486
Width: 640
VWidth: -3
GlyphClass: 2
Flags: HMW
LayerCount: 2
Back
Fore
SplineSet
51 690 m 1
 233 690 l 1
 233 672 l 1
 187 656 l 1
 247 484 l 1
 315 675 l 1
 353 675 l 1
 426 479 l 1
 483 657 l 9
 428 672 l 1
 428 690 l 1
 594 690 l 1
 594 672 l 1
 531 654 l 17
 421 369 l 1
 393 369 l 1
 317 578 l 1
 244 369 l 1
 216 369 l 1
 104 658 l 1
 51 672 l 1
 51 690 l 1
51 309 m 1
 233 309 l 1
 233 291 l 1
 187 275 l 1
 247 103 l 1
 315 294 l 1
 353 294 l 1
 426 98 l 1
 483 276 l 9
 428 291 l 1
 428 309 l 1
 594 309 l 1
 594 291 l 1
 531 273 l 17
 421 -12 l 1
 393 -12 l 1
 317 197 l 1
 244 -12 l 1
 216 -12 l 1
 104 277 l 1
 51 291 l 1
 51 309 l 1
EndSplineSet
Validated: 1
EndChar

StartChar: uni02AD
Encoding: 685 685 487
Width: 500
VWidth: 0
GlyphClass: 2
Flags: HMW
LayerCount: 2
Back
Fore
SplineSet
50 406 m 1
 450 406 l 1
 450 272 l 1
 417 272 l 1
 404 352 l 1
 96 352 l 1
 83 272 l 1
 50 272 l 1
 50 406 l 1
50 134 m 1
 450 134 l 1
 450 0 l 1
 417 0 l 1
 404 80 l 1
 96 80 l 1
 83 0 l 1
 50 0 l 1
 50 134 l 1
EndSplineSet
Validated: 1
EndChar

StartChar: uni02AE
Encoding: 686 686 488
Width: 535
VWidth: -3
GlyphClass: 2
Flags: HMW
LayerCount: 2
Back
Fore
SplineSet
49 679 m 3
 117 679 165 639.990234375 165 531 c 2
 165 160 l 2
 165 67 195 41 251 41 c 3
 308 41 348 86 375 128 c 1
 375 388 l 1
 311 402 l 1
 311 420 l 1
 449 428 l 1
 449 -196 l 1
 513 -212 l 1
 513 -230 l 1
 298 -230 l 1
 298 -212 l 1
 375 -189 l 1
 375 82 l 1
 338 34 294 -12 216 -12 c 3
 130 -12 91 41 91 142 c 2
 91 511 l 2
 91 595.991210938 73 630 20 630 c 3
 -22 630 -31 625 -71 600 c 1
 -86 625 l 1
 -35 662 -12 679 49 679 c 3
EndSplineSet
Validated: 1
EndChar

StartChar: uni02AF
Encoding: 687 687 489
Width: 535
VWidth: -3
GlyphClass: 2
Flags: HMW
LayerCount: 2
Back
Fore
SplineSet
49 679 m 7
 117 679 165 639.990234375 165 531 c 2
 165 160 l 2
 165 67 195 41 251 41 c 3
 308 41 348 86 375 128 c 1
 375 388 l 1
 311 402 l 1
 311 420 l 1
 449 428 l 1
 449 -122 l 2
 449 -167 461 -187 491 -187 c 3
 506 -187 523 -183 537 -175 c 1
 546 -198 l 1
 509 -222 483 -230 457 -230 c 3
 412 -230 375 -214 375 -135 c 2
 375 82 l 1
 338 34 294 -12 216 -12 c 3
 130 -12 91 41 91 142 c 2
 91 511 l 2
 91 595.991210938 73 630 20 630 c 3
 -22 630 -31 625 -71 600 c 1
 -86 625 l 1
 -35 662 -12 679 49 679 c 7
EndSplineSet
Validated: 1
EndChar

StartChar: uni27E8
Encoding: 10216 10216 490
Width: 280
VWidth: 0
GlyphClass: 2
Flags: HMW
LayerCount: 2
Back
Fore
SplineSet
54 272 m 1
 190 686 l 1
 226 675 l 1
 93 272 l 1
 226 -132 l 1
 190 -143 l 1
 54 272 l 1
EndSplineSet
Validated: 1
EndChar

StartChar: uni23A7
Encoding: 9127 9127 492
Width: 404
VWidth: 0
GlyphClass: 2
Flags: HMW
LayerCount: 2
Back
Fore
SplineSet
174 -230 m 9
 174 479 l 2
 174 674 311 758 399 770 c 1
 404 749 l 1
 345 731 230 690 230 489 c 2
 230 -230 l 17
 174 -230 l 9
EndSplineSet
Validated: 1
EndChar

StartChar: uni23A8
Encoding: 9128 9128 493
Width: 404
VWidth: 0
GlyphClass: 2
Flags: HMW
LayerCount: 2
Back
Fore
SplineSet
174 -230 m 9
 174 128 l 2
 174 214 161 250 102 259 c 9
 102 279 l 17
 161 288 174 324 174 410 c 2
 174 770 l 17
 230 770 l 9
 230 434 l 2
 230 320 206 285 164 269 c 1
 206 253 230 218 230 104 c 2
 230 -230 l 17
 174 -230 l 9
EndSplineSet
Validated: 1
EndChar

StartChar: uni23A9
Encoding: 9129 9129 494
Width: 404
VWidth: 0
GlyphClass: 2
Flags: HMW
LayerCount: 2
Back
Fore
SplineSet
174 770 m 17
 230 770 l 9
 230 51 l 2
 230 -150 345 -191 404 -209 c 1
 399 -230 l 1
 311 -218 174 -134 174 61 c 2
 174 770 l 17
EndSplineSet
Validated: 1
EndChar

StartChar: uni239B
Encoding: 9115 9115 495
Width: 390
VWidth: 0
GlyphClass: 2
Flags: HMW
LayerCount: 2
Back
Fore
SplineSet
80 -230 m 1
 80 265 254 649 371 770 c 1
 390 752 l 1
 292 628 135 284 135 -230 c 1
 80 -230 l 1
EndSplineSet
Validated: 1
EndChar

StartChar: uni239D
Encoding: 9117 9117 497
Width: 390
VWidth: 0
GlyphClass: 2
Flags: HMW
LayerCount: 2
Back
Fore
SplineSet
80 770 m 1
 135 770 l 1
 135 256 292 -88 390 -212 c 1
 371 -230 l 1
 254 -109 80 275 80 770 c 1
EndSplineSet
Validated: 1
EndChar

StartChar: uni23A1
Encoding: 9121 9121 501
Width: 310
VWidth: 0
GlyphClass: 2
Flags: HMW
LayerCount: 2
Back
Fore
SplineSet
110 -230 m 1
 110 770 l 1
 242 770 l 1
 242 747 l 1
 165 734 l 1
 165 -230 l 1
 110 -230 l 1
EndSplineSet
Validated: 1
EndChar

StartChar: uni23A2
Encoding: 9122 9122 502
Width: 310
VWidth: 0
GlyphClass: 2
Flags: HMW
LayerCount: 2
Back
Fore
SplineSet
165 770 m 1
 165 -230 l 25
 110 -230 l 1
 110 770 l 1
 165 770 l 1
EndSplineSet
Validated: 1
EndChar

StartChar: uni23A3
Encoding: 9123 9123 503
Width: 310
VWidth: 0
GlyphClass: 2
Flags: HMW
LayerCount: 2
Back
Fore
SplineSet
110 770 m 1
 165 770 l 1
 165 -194 l 1
 242 -207 l 1
 242 -230 l 1
 110 -230 l 1
 110 770 l 1
EndSplineSet
Validated: 1
EndChar

StartChar: arrowboth
Encoding: 8596 8596 510
Width: 760
VWidth: 0
GlyphClass: 2
Flags: HMW
LayerCount: 2
Back
Fore
SplineSet
659 216 m 1
 102 216 l 1
 252 72 l 1
 225 46 l 1
 40 234 l 1
 225 422 l 1
 250 399 l 1
 101 248 l 1
 658 248 l 1
 508 392 l 1
 535 418 l 1
 720 230 l 1
 535 42 l 1
 510 65 l 1
 659 216 l 1
EndSplineSet
Validated: 1
EndChar

StartChar: u1D434
Encoding: 65536 119860 511
Width: 610
GlyphClass: 2
Flags: HMW
AnchorPoint: "bottom" 494 0 basechar 0
AnchorPoint: "top" 359 638 basechar 0
LayerCount: 2
Back
Fore
SplineSet
358 650 m 1
 390 650 l 1
 518 36 l 1
 574 20 l 1
 574 0 l 1
 369 0 l 1
 369 20 l 1
 434 39 l 1
 400 216 l 1
 187 216 l 1
 99 38 l 1
 169 20 l 1
 169 0 l 1
 -21 0 l 1
 -21 20 l 1
 44 37 l 1
 358 650 l 1
393 253 m 1
 341 528 l 1
 205 253 l 1
 393 253 l 1
EndSplineSet
Validated: 1
EndChar

StartChar: u1D435
Encoding: 65537 119861 512
Width: 584
GlyphClass: 2
Flags: HMW
LayerCount: 2
Back
Fore
SplineSet
292 39 m 2
 405 39 446 92 446 190 c 3
 446 289 411 315 311 315 c 2
 213 315 l 1
 170 39 l 1
 292 39 l 2
111 638 m 1
 354 638 l 2
 485 638 535 609 535 510 c 3
 535 422 458 358 400 341 c 1
 468 331 530 294 530 200 c 3
 530 81 447 0 288 0 c 2
 14 0 l 1
 14 20 l 1
 92 45 l 1
 180 599 l 1
 111 618 l 1
 111 638 l 1
218 350 m 1
 303 350 l 2
 394 350 451 401 451 499 c 3
 451 589 406 600 325 600 c 2
 257 600 l 1
 218 350 l 1
EndSplineSet
Validated: 1
EndChar

StartChar: u1D436
Encoding: 65538 119862 513
Width: 565
GlyphClass: 2
Flags: HMW
AnchorPoint: "top" 395 638 basechar 0
AnchorPoint: "bottom" 298 0 basechar 0
LayerCount: 2
Back
Fore
SplineSet
407 607 m 3
 218 607 140 426 140 244 c 3
 140 144 200 36 329 36 c 3
 375 36 421 42 448 53 c 1
 476 153 l 1
 520 150 l 1
 492 30 l 1
 458 15 383 -12 294 -12 c 3
 118 -12 58 115 58 241 c 3
 58 462 198 650 426 650 c 3
 508 650 557 632 586 617 c 1
 558 486 l 1
 521 491 l 1
 527 580 l 1
 505 595 453 607 407 607 c 3
EndSplineSet
Validated: 1
EndChar

StartChar: u1D437
Encoding: 65539 119863 514
Width: 646
GlyphClass: 2
Flags: HMW
AnchorPoint: "bottom" 245 0 basechar 0
AnchorPoint: "top" 345 638 basechar 0
LayerCount: 2
Back
Fore
SplineSet
170 39 m 1
 269 39 l 2
 410 39 526 142 526 391 c 3
 526 566 459 600 317 600 c 2
 257 600 l 1
 170 39 l 1
263 0 m 2
 14 0 l 1
 14 20 l 1
 92 45 l 1
 180 599 l 1
 111 618 l 1
 111 638 l 1
 336 638 l 2
 528 638 611 583 611 392 c 3
 611 137 446 0 263 0 c 2
EndSplineSet
Validated: 1
EndChar

StartChar: u1D438
Encoding: 65540 119864 515
Width: 563
GlyphClass: 2
Flags: HMW
AnchorPoint: "bottom" 271 0 basechar 0
AnchorPoint: "top" 339 638 basechar 0
LayerCount: 2
Back
Fore
SplineSet
111 638 m 1
 534 638 l 1
 517 513 l 1
 482 510 l 1
 482 596 l 1
 258 596 l 1
 219 353 l 1
 394 353 l 1
 412 409 l 1
 447 409 l 1
 423 256 l 1
 388 256 l 1
 387 312 l 1
 213 312 l 1
 170 44 l 1
 426 44 l 1
 466 139 l 1
 502 134 l 1
 466 0 l 1
 14 0 l 1
 14 20 l 1
 92 45 l 1
 180 599 l 1
 111 618 l 1
 111 638 l 1
EndSplineSet
Validated: 1
EndChar

StartChar: u1D439
Encoding: 65541 119865 516
Width: 489
GlyphClass: 2
Flags: HMW
LayerCount: 2
Back
Fore
SplineSet
110 638 m 1
 528 638 l 1
 511 513 l 1
 476 510 l 1
 476 596 l 1
 257 596 l 1
 217 343 l 1
 387 343 l 1
 405 399 l 1
 440 399 l 1
 416 246 l 1
 381 246 l 1
 380 302 l 1
 210 302 l 1
 168 39 l 1
 247 20 l 1
 247 0 l 1
 14 0 l 1
 14 20 l 1
 92 45 l 1
 179 599 l 1
 110 618 l 1
 110 638 l 1
EndSplineSet
Validated: 1
EndChar

StartChar: u1D43A
Encoding: 65542 119866 517
Width: 630
GlyphClass: 2
Flags: HMW
AnchorPoint: "bottom" 299 0 basechar 0
AnchorPoint: "top" 385 638 basechar 0
LayerCount: 2
Back
Fore
SplineSet
511 37 m 1
 477 17 380 -12 291 -12 c 3
 115 -12 55 115 55 241 c 3
 55 462 195 650 423 650 c 3
 505 650 554 632 583 617 c 1
 555 489 l 1
 518 489 l 1
 524 581 l 1
 502 596 450 607 404 607 c 3
 215 607 137 426 137 244 c 3
 137 144 197 31 326 31 c 3
 372 31 410 36 437 46 c 1
 469 250 l 1
 388 266 l 1
 388 286 l 1
 594 286 l 1
 594 266 l 1
 547 250 l 1
 511 37 l 1
EndSplineSet
Validated: 1
EndChar

StartChar: u1D43B
Encoding: 65543 119867 518
Width: 680
GlyphClass: 2
Flags: HMW
AnchorPoint: "bottom" 307 0 basechar 0
AnchorPoint: "top" 395 638 basechar 0
LayerCount: 2
Back
Fore
SplineSet
112 638 m 1
 330 638 l 1
 330 618 l 1
 257 593 l 1
 219 352 l 1
 509 352 l 1
 548 599 l 1
 484 618 l 1
 484 638 l 1
 702 638 l 1
 702 618 l 1
 624 593 l 1
 536 39 l 1
 605 20 l 1
 605 0 l 1
 387 0 l 1
 387 20 l 1
 460 45 l 1
 502 309 l 1
 212 309 l 1
 169 39 l 1
 233 20 l 1
 233 0 l 1
 15 0 l 1
 15 20 l 1
 93 45 l 1
 181 599 l 1
 112 618 l 1
 112 638 l 1
EndSplineSet
Validated: 1
EndChar

StartChar: u1D43C
Encoding: 65544 119868 519
Width: 335
GlyphClass: 2
Flags: HMW
AnchorPoint: "bottom" 144 0 basechar 0
AnchorPoint: "top" 230 638 basechar 0
LayerCount: 2
Back
Fore
SplineSet
120 638 m 1
 343 638 l 1
 343 618 l 1
 265 593 l 1
 177 39 l 1
 246 20 l 1
 246 0 l 1
 23 0 l 1
 23 20 l 1
 101 45 l 1
 189 599 l 1
 120 618 l 1
 120 638 l 1
EndSplineSet
Validated: 1
EndChar

StartChar: u1D43D
Encoding: 65545 119869 520
Width: 335
GlyphClass: 2
Flags: HMW
AnchorPoint: "bottom" 61 -230 basechar 0
AnchorPoint: "top" 223 638 basechar 0
LayerCount: 2
Back
Fore
SplineSet
179 599 m 1
 110 618 l 1
 110 638 l 1
 333 638 l 1
 333 618 l 1
 255 593 l 1
 170 61 l 2
 156 -26 90 -164 -26 -230 c 1
 -35 -213 l 1
 46 -149 77 -41 87 22 c 2
 179 599 l 1
EndSplineSet
Validated: 1
EndChar

StartChar: u1D43E
Encoding: 65546 119870 521
Width: 615
GlyphClass: 2
Flags: HMW
AnchorPoint: "bottom" 299 0 basechar 0
AnchorPoint: "top" 365 638 basechar 0
LayerCount: 2
Back
Fore
SplineSet
257 593 m 1
 169 39 l 1
 228 20 l 1
 228 0 l 1
 15 0 l 1
 15 20 l 1
 93 45 l 1
 181 599 l 1
 112 618 l 1
 112 638 l 1
 325 638 l 1
 325 618 l 1
 257 593 l 1
525 599 m 1
 307 341 l 1
 498 63 l 1
 532 21 l 1
 529 0 l 1
 439 0 l 1
 234 327 l 1
 274 365 l 1
 469 598 l 1
 421 617 l 1
 421 638 l 1
 594 638 l 1
 594 617 l 1
 525 599 l 1
EndSplineSet
Validated: 1
EndChar

StartChar: u1D43F
Encoding: 65547 119871 522
Width: 545
GlyphClass: 2
Flags: HMW
AnchorPoint: "bottom" 275 0 basechar 0
AnchorPoint: "top" 228 638 basechar 0
LayerCount: 2
Back
Fore
SplineSet
169 44 m 1
 416 44 l 1
 457 139 l 1
 493 134 l 1
 457 0 l 1
 14 0 l 1
 14 20 l 1
 92 45 l 1
 181 599 l 1
 112 618 l 1
 112 638 l 1
 335 638 l 1
 335 618 l 1
 257 593 l 1
 169 44 l 1
EndSplineSet
Validated: 1
EndChar

StartChar: u1D440
Encoding: 65548 119872 523
Width: 834
GlyphClass: 2
Flags: HMW
LayerCount: 2
Back
Fore
SplineSet
110 638 m 1
 295 638 l 1
 405 130 l 1
 666 638 l 1
 844 638 l 1
 844 617 l 1
 768 598 l 1
 680 39 l 1
 753 21 l 1
 753 0 l 1
 532 0 l 1
 532 21 l 1
 603 39 l 1
 689 584 l 1
 686 584 l 1
 386 8 l 1
 353 8 l 1
 227 581 l 1
 222 581 l 1
 135 39 l 1
 199 21 l 1
 199 0 l 1
 6 0 l 1
 6 21 l 1
 86 39 l 1
 175 598 l 1
 110 617 l 1
 110 638 l 1
EndSplineSet
Validated: 1
EndChar

StartChar: u1D441
Encoding: 65549 119873 524
Width: 656
GlyphClass: 2
Flags: HMW
AnchorPoint: "bottom" 305 0 basechar 0
AnchorPoint: "top" 375 638 basechar 0
LayerCount: 2
Back
Fore
SplineSet
105 638 m 1
 255 638 l 1
 492 128 l 1
 566 600 l 1
 490 617 l 1
 490 638 l 1
 680 638 l 1
 680 617 l 1
 615 600 l 1
 519 -8 l 1
 470 -8 l 1
 212 548 l 1
 130 39 l 1
 206 21 l 1
 206 0 l 1
 1 0 l 1
 1 21 l 1
 81 39 l 1
 170 598 l 1
 105 617 l 1
 105 638 l 1
EndSplineSet
Validated: 1
EndChar

StartChar: u1D442
Encoding: 65550 119874 525
Width: 660
GlyphClass: 2
Flags: HMW
AnchorPoint: "bottom" 307 0 basechar 0
AnchorPoint: "top" 395 638 basechar 0
LayerCount: 2
Back
Fore
SplineSet
383 609 m 3
 228 609 140 473 140 273 c 3
 140 147 196 30 318 30 c 3
 474 30 562 165 562 365 c 3
 562 491 506 609 383 609 c 3
296 -12 m 3
 127 -12 56 112 56 257 c 3
 56 483 217 650 406 650 c 3
 575 650 646 526 646 381 c 3
 646 155 485 -12 296 -12 c 3
EndSplineSet
Validated: 1
EndChar

StartChar: u1D443
Encoding: 65551 119875 526
Width: 536
GlyphClass: 2
Flags: HMW
LayerCount: 2
Back
Fore
SplineSet
111 638 m 1
 346 638 l 2
 480 638 545 611 545 492 c 3
 545 354 416 256 252 256 c 2
 236 256 l 1
 241 289 l 1
 256 289 l 2
 377 289 458 358 458 487 c 3
 458 590 400 600 317 600 c 2
 258 600 l 1
 168 39 l 1
 247 20 l 1
 247 0 l 1
 14 0 l 1
 14 20 l 1
 92 45 l 1
 180 599 l 1
 111 618 l 1
 111 638 l 1
EndSplineSet
Validated: 1
EndChar

StartChar: u1D444
Encoding: 65552 119876 527
Width: 660
GlyphClass: 2
Flags: HMW
LayerCount: 2
Back
Fore
SplineSet
511 -71 m 1
 511 -86 l 1
 475 -138 l 1
 459 -138 l 1
 256 -44 l 1
 267 -16 l 1
 511 -71 l 1
EndSplineSet
Refer: 525 119874 N 1 0 0 1 0 0 2
Validated: 1
EndChar

StartChar: u1D445
Encoding: 65553 119877 528
Width: 576
GlyphClass: 2
Flags: HMW
AnchorPoint: "bottom" 285 0 basechar 0
AnchorPoint: "top" 325 638 basechar 0
LayerCount: 2
Back
Fore
SplineSet
257 600 m 1
 167 39 l 1
 236 20 l 1
 236 0 l 1
 13 0 l 1
 13 20 l 1
 91 45 l 1
 179 599 l 1
 110 618 l 1
 110 638 l 1
 335 638 l 2
 476 638 522 601 522 505 c 0
 522 376 402 326 322 310 c 1
 486 63 l 1
 523 21 l 1
 520 0 l 1
 431 0 l 1
 238 316 l 1
 240 327 l 1
 339 327 434 366 434 500 c 0
 434 575 404 600 310 600 c 2
 257 600 l 1
EndSplineSet
Validated: 1
EndChar

StartChar: u1D446
Encoding: 65554 119878 529
Width: 477
GlyphClass: 2
Flags: HMW
AnchorPoint: "bottom" 205 0 basechar 0
AnchorPoint: "top" 305 638 basechar 0
LayerCount: 2
Back
Fore
SplineSet
79 58 m 1
 109 42 155 26 200 26 c 3
 281 26 342 53 342 134 c 3
 342 203 306 236 229 287 c 0
 134 350 98 399 98 466 c 3
 98 553 178 650 313 650 c 3
 386 650 430 636 452 626 c 1
 434 503 l 1
 398 505 l 1
 398 591 l 1
 379 602 331 614 297 614 c 3
 223 614 170 576 170 496 c 3
 170 434 216 402 286 356 c 0
 381 293 422 250 422 180 c 3
 422 78 340 -12 181 -12 c 3
 104 -12 67 1 25 20 c 1
 33 155 l 1
 73 156 l 1
 79 58 l 1
EndSplineSet
Validated: 1
EndChar

StartChar: u1D447
Encoding: 65555 119879 530
Width: 557
GlyphClass: 2
Flags: HMW
AnchorPoint: "bottom" 258 0 basechar 0
AnchorPoint: "top" 345 638 basechar 0
LayerCount: 2
Back
Fore
SplineSet
105 643 m 1
 125 643 l 1
 174 638 l 1
 533 638 l 1
 583 643 l 1
 602 643 l 1
 588 502 l 1
 553 500 l 1
 546 602 l 1
 386 602 l 1
 297 39 l 1
 366 20 l 1
 366 0 l 1
 143 0 l 1
 143 20 l 1
 221 45 l 1
 309 602 l 1
 147 602 l 1
 108 500 l 1
 74 502 l 1
 105 643 l 1
EndSplineSet
Validated: 1
EndChar

StartChar: u1D448
Encoding: 65556 119880 531
Width: 637
GlyphClass: 2
Flags: HMW
AnchorPoint: "bottom" 289 0 basechar 0
AnchorPoint: "top" 390 638 basechar 0
LayerCount: 2
Back
Fore
SplineSet
111 638 m 1
 309 638 l 1
 309 618 l 1
 248 596 l 1
 193 242 l 2
 171 99 209 39 307 39 c 3
 399 39 461 81 487 245 c 2
 542 596 l 1
 480 618 l 1
 480 638 l 1
 658 638 l 1
 658 618 l 1
 594 596 l 1
 539 246 l 2
 514 89 436 -12 283 -12 c 3
 137 -12 90 67 118 243 c 2
 174 596 l 1
 111 618 l 1
 111 638 l 1
EndSplineSet
Validated: 33
EndChar

StartChar: u1D449
Encoding: 65557 119881 532
Width: 554
GlyphClass: 2
Flags: HMW
LayerCount: 2
Back
Fore
SplineSet
556 599 m 5
 261 -12 l 5
 229 -12 l 5
 121 601 l 5
 63 617 l 5
 63 638 l 5
 257 638 l 5
 257 617 l 5
 202 598 l 5
 281 116 l 1
 501 598 l 5
 439 617 l 5
 439 638 l 5
 627 638 l 5
 627 617 l 5
 556 599 l 5
EndSplineSet
Validated: 1
EndChar

StartChar: u1D44A
Encoding: 65558 119882 533
Width: 863
GlyphClass: 2
Flags: HMW
AnchorPoint: "bottom" 402 0 basechar 0
AnchorPoint: "top" 508 638 basechar 0
LayerCount: 2
Back
Fore
SplineSet
85 638 m 1
 280 638 l 1
 280 617 l 1
 224 598 l 1
 288 130 l 1
 487 598 l 1
 529 598 l 1
 589 129 l 1
 788 598 l 1
 727 617 l 1
 727 638 l 1
 915 638 l 1
 915 617 l 1
 844 599 l 1
 568 -12 l 1
 536 -12 l 1
 469 454 l 17
 264 -12 l 1
 233 -12 l 1
 143 601 l 1
 85 617 l 1
 85 638 l 1
EndSplineSet
Validated: 1
EndChar

StartChar: u1D44B
Encoding: 65559 119883 534
Width: 592
GlyphClass: 2
Flags: HMW
LayerCount: 2
Back
Fore
SplineSet
126 638 m 1
 298 638 l 1
 298 617 l 1
 260 601 l 1
 337 380 l 1
 476 597 l 1
 446 617 l 1
 446 638 l 1
 596 638 l 1
 596 617 l 1
 529 598 l 1
 352 341 l 1
 477 34 l 1
 521 21 l 1
 521 0 l 1
 367 0 l 1
 367 21 l 1
 390 32 l 1
 298 287 l 1
 131 42 l 1
 176 21 l 1
 176 0 l 1
 9 0 l 1
 9 21 l 1
 77 41 l 1
 283 327 l 1
 171 603 l 1
 126 617 l 1
 126 638 l 1
EndSplineSet
Validated: 1
EndChar

StartChar: u1D44C
Encoding: 65560 119884 535
Width: 528
GlyphClass: 2
Flags: HMW
AnchorPoint: "bottom" 242 0 basechar 0
AnchorPoint: "top" 338 638 basechar 0
LayerCount: 2
Back
Fore
SplineSet
85 638 m 1
 266 638 l 1
 266 617 l 1
 225 598 l 1
 308 339 l 1
 461 597 l 1
 414 617 l 1
 414 638 l 1
 576 638 l 1
 576 617 l 1
 512 598 l 1
 317 293 l 1
 276 39 l 1
 342 20 l 1
 342 0 l 1
 131 0 l 1
 131 20 l 1
 203 45 l 1
 243 292 l 1
 139 601 l 1
 85 617 l 1
 85 638 l 1
EndSplineSet
Validated: 1
EndChar

StartChar: u1D44D
Encoding: 65561 119885 536
Width: 531
GlyphClass: 2
Flags: HMW
AnchorPoint: "bottom" 245 0 basechar 0
AnchorPoint: "top" 301 638 basechar 0
LayerCount: 2
Back
Fore
SplineSet
132 643 m 5
 150 643 l 1
 198 638 l 1
 500 638 l 1
 506 621 l 1
 123 44 l 1
 393 44 l 1
 432 143 l 1
 469 138 l 1
 429 0 l 1
 20 0 l 1
 17 18 l 1
 397 594 l 1
 171 594 l 1
 134 500 l 1
 98 502 l 1
 132 643 l 5
EndSplineSet
Validated: 1
EndChar

StartChar: u1D44E
Encoding: 65562 119886 537
Width: 486
GlyphClass: 2
Flags: HMW
AnchorPoint: "bottom" 235 0 basechar 0
AnchorPoint: "top" 287 425 basechar 0
LayerCount: 2
Back
Fore
SplineSet
352 437 m 3
 381 437 414 430 435 422 c 1
 393 248 l 1
 368 101 l 9
 368 44 l 1
 426 39 l 1
 428 15 l 1
 282 -8 l 1
 280 5 l 1
 311 174 l 1
 256 56 190 -12 130 -12 c 3
 91 -12 43 9 43 111 c 3
 43 263 145 437 352 437 c 3
279 389 m 3
 158 389 118 262 118 136 c 3
 118 64 141 45 169 45 c 3
 211 45 287 156 339 329 c 1
 349 377 l 1
 334 383 304 389 279 389 c 3
EndSplineSet
Validated: 1
EndChar

StartChar: u1D44F
Encoding: 65563 119887 538
Width: 487
GlyphClass: 2
Flags: HMW
LayerCount: 2
Back
Fore
SplineSet
239 690 m 5
 163 248 l 1
 218 366 292 437 352 437 c 3
 391 437 444 416 444 314 c 3
 444 162 342 -12 140 -12 c 3
 111 -12 75 -3 52 5 c 1
 149 579 l 5
 149 638 l 5
 91 643 l 5
 89 667 l 5
 239 690 l 5
313 381 m 3
 271 381 190 268 138 94 c 1
 130 49 l 1
 145 43 181 36 213 36 c 3
 334 36 369 163 369 289 c 3
 369 361 341 381 313 381 c 3
EndSplineSet
Validated: 1
EndChar

StartChar: u1D450
Encoding: 65564 119888 539
Width: 391
GlyphClass: 2
Flags: HMW
AnchorPoint: "bottom" 166 0 basechar 0
AnchorPoint: "top" 260 425 basechar 0
LayerCount: 2
Back
Fore
SplineSet
310 437 m 3
 339 437 360 427 377 411 c 1
 352 353 l 1
 339 348 l 1
 317 362 290 377 256 377 c 3
 150 377 113 273 113 165 c 3
 113 79 154 45 200 45 c 3
 242 45 298 84 334 123 c 1
 355 101 l 1
 298 41 228 -12 161 -12 c 3
 102 -12 43 20 43 133 c 3
 43 285 184 437 310 437 c 3
EndSplineSet
Validated: 1
EndChar

StartChar: u1D451
Encoding: 65565 119889 540
Width: 495
GlyphClass: 2
Flags: HMW
AnchorPoint: "bottom" 235 0 basechar 0
AnchorPoint: "top" 435 685 basechar 0
LayerCount: 2
Back
Fore
SplineSet
482 690 m 1
 382 92 l 1
 382 43 l 1
 440 38 l 1
 442 14 l 1
 294 -9 l 1
 292 4 l 1
 323 176 l 1
 268 58 195 -12 135 -12 c 3
 96 -12 43 9 43 111 c 3
 43 257 167 437 337 437 c 3
 350 437 360 435 369 432 c 1
 392 579 l 25
 392 638 l 1
 334 643 l 1
 332 667 l 1
 482 690 l 1
289 389 m 3
 161 389 118 262 118 136 c 3
 118 64 146 45 174 45 c 3
 216 45 299 158 351 331 c 1
 358 370 l 1
 343 381 314 389 289 389 c 3
EndSplineSet
Validated: 1
EndChar

StartChar: u1D452
Encoding: 65566 119890 541
Width: 418
GlyphClass: 2
Flags: HMW
AnchorPoint: "bottom" 191 0 basechar 0
AnchorPoint: "top" 245 425 basechar 0
LayerCount: 2
Back
Fore
SplineSet
281 437 m 3
 332 437 362 399 362 352 c 3
 362 274 271 219 122 203 c 1
 121 189 121 176 121 161 c 3
 121 71 159 45 205 45 c 3
 247 45 311 84 347 123 c 1
 368 101 l 1
 311 41 233 -12 166 -12 c 3
 107 -12 48 20 48 133 c 3
 48 290 174 437 281 437 c 3
245 391 m 3
 179 391 139 331 126 234 c 1
 258 247 287 294 287 344 c 3
 287 369 267 391 245 391 c 3
EndSplineSet
Validated: 1
EndChar

StartChar: u1D453
Encoding: 65567 119891 542
Width: 296
GlyphClass: 2
Flags: HMW
LayerCount: 2
Back
Fore
SplineSet
360 687 m 7
 382 687 403 678 419 663 c 5
 394 605 l 5
 381 600 l 5
 356 616 330 626 298 626 c 7
 268 626 240 607 226 516 c 6
 212 425 l 1
 308 425 l 1
 301 387 l 1
 207 387 l 1
 150 11 l 2
 133 -99 78 -158 33 -190 c 0
 -4 -216 -31 -230 -66 -230 c 3
 -88 -230 -109 -221 -125 -206 c 1
 -100 -148 l 1
 -87 -143 l 1
 -62 -159 -36 -169 -4 -169 c 3
 26 -169 54 -150 68 -59 c 2
 135 387 l 1
 77 387 l 1
 80 403 l 1
 141 425 l 1
 144 446 l 6
 161 556 216 615 261 647 c 4
 298 673 325 687 360 687 c 7
EndSplineSet
Validated: 1
EndChar

StartChar: u1D454
Encoding: 65568 119892 543
Width: 475
GlyphClass: 2
Flags: HMW
AnchorPoint: "bottom" 137 -230 basechar 0
AnchorPoint: "top" 305 425 basechar 0
LayerCount: 2
Back
Fore
SplineSet
361 437 m 3
 390 437 423 430 444 422 c 1
 402 248 l 1
 361 7 l 2
 338 -130 275 -177 228 -206 c 0
 192 -228 159 -230 102 -230 c 3
 62 -230 21 -218 -5 -198 c 1
 19 -141 l 1
 33 -132 l 1
 72 -162 130 -179 175 -179 c 3
 231 -179 261 -169 279 -63 c 2
 320 174 l 1
 265 56 194 -12 134 -12 c 3
 95 -12 42 9 42 111 c 3
 42 263 154 437 361 437 c 3
288 389 m 3
 167 389 117 262 117 136 c 3
 117 64 145 45 173 45 c 3
 215 45 296 156 348 329 c 1
 358 377 l 1
 343 383 313 389 288 389 c 3
EndSplineSet
Validated: 1
EndChar

StartChar: u1D455
Encoding: 65569 119893 544
Width: 513
GlyphClass: 2
Flags: HMW
AnchorPoint: "bottom" 235 0 basechar 0
AnchorPoint: "top" 315 678 basechar 0
LayerCount: 2
Back
Fore
SplineSet
249 690 m 1
 170 220 l 1
 231 367 303 437 368 437 c 3
 404 437 455 407 440 322 c 2
 400 102 l 9
 400 43 l 1
 458 38 l 1
 460 14 l 1
 321 -9 l 1
 317 3 l 1
 330 113 l 1
 366 303 l 2
 375 353 358 382 330 382 c 3
 289 382 207 269 148 94 c 1
 133 10 l 1
 61 -12 l 1
 55 -1 l 1
 94 175 l 1
 159 579 l 9
 159 638 l 1
 101 643 l 1
 99 667 l 1
 249 690 l 1
EndSplineSet
Validated: 33
EndChar

StartChar: u1D456
Encoding: 65570 119894 545
Width: 268
GlyphClass: 2
Flags: HMW
LayerCount: 2
Back
Fore
SplineSet
170 665 m 3
 197 665 220 643 220 616 c 3
 220 589 197 566 170 566 c 3
 143 566 121 589 121 616 c 3
 121 643 143 665 170 665 c 3
200 437 m 5
 144 102 l 5
 144 43 l 1
 202 38 l 1
 204 14 l 1
 65 -9 l 1
 61 3 l 1
 74 113 l 5
 112 326 l 13
 112 385 l 5
 55 390 l 5
 53 414 l 5
 200 437 l 5
EndSplineSet
Validated: 1
EndChar

StartChar: u1D457
Encoding: 65571 119895 546
Width: 255
GlyphClass: 2
Flags: HMW
LayerCount: 2
Back
Fore
SplineSet
178 665 m 3
 205 665 228 643 228 616 c 3
 228 589 205 566 178 566 c 3
 151 566 129 589 129 616 c 3
 129 643 151 665 178 665 c 3
207 437 m 5
 148 65 l 6
 132 -38 80 -113 54 -145 c 4
 25 -181 -34 -230 -82 -230 c 7
 -102 -230 -116 -225 -127 -212 c 5
 -106 -152 l 5
 -93 -147 l 5
 -68 -163 -49 -164 -19 -164 c 7
 25 -164 49 -105 71 32 c 6
 119 326 l 13
 119 385 l 5
 62 390 l 5
 60 414 l 5
 207 437 l 5
EndSplineSet
Validated: 1
EndChar

StartChar: u1D458
Encoding: 65572 119896 547
Width: 478
GlyphClass: 2
Flags: HMW
AnchorPoint: "top" 305 678 basechar 0
AnchorPoint: "bottom" 214 0 basechar 0
LayerCount: 2
Back
Fore
SplineSet
248 690 m 1
 145 94 l 1
 133 9 l 1
 61 -12 l 1
 55 -1 l 1
 92 175 l 1
 158 579 l 9
 158 638 l 1
 100 643 l 1
 98 667 l 1
 248 690 l 1
398 437 m 3
 417 437 438 431 447 423 c 1
 428 358 l 1
 420 354 l 1
 399 360 384 366 362 366 c 3
 335 366 313 331 237 234 c 1
 334 76 l 1
 371 43 l 1
 420 43 l 1
 422 19 l 1
 302 -9 l 1
 175 208 l 1
 205 240 l 1
 285 339 291 354 313 383 c 0
 336 413 363 437 398 437 c 3
EndSplineSet
Validated: 1
EndChar

StartChar: u1D459
Encoding: 65573 119897 548
Width: 259
GlyphClass: 2
Flags: HMW
AnchorPoint: "bottom" 115 0 basechar 0
AnchorPoint: "top" 185 680 basechar 0
LayerCount: 2
Back
Fore
SplineSet
236 690 m 1
 138 102 l 1
 138 43 l 1
 196 38 l 1
 198 14 l 1
 59 -9 l 1
 55 3 l 1
 68 113 l 1
 146 579 l 9
 146 638 l 1
 88 643 l 1
 86 667 l 1
 236 690 l 1
EndSplineSet
Validated: 1
EndChar

StartChar: u1D45A
Encoding: 65574 119898 549
Width: 752
GlyphClass: 2
Flags: HMW
LayerCount: 2
Back
Fore
SplineSet
207 437 m 1
 168 220 l 1
 229 367 300 437 365 437 c 3
 401 437 449 407 434 322 c 2
 418 232 l 1
 478 371 547 437 610 437 c 3
 646 437 694 407 679 322 c 2
 639 102 l 1
 639 43 l 1
 697 38 l 1
 699 14 l 1
 560 -9 l 1
 556 3 l 1
 569 113 l 1
 605 303 l 2
 614 353 600 382 572 382 c 3
 531 382 450 269 391 94 c 1
 376 10 l 1
 304 -12 l 1
 298 -1 l 1
 337 175 l 1
 360 303 l 2
 369 353 355 382 327 382 c 3
 286 382 205 269 146 94 c 1
 131 10 l 1
 59 -12 l 1
 53 -1 l 1
 92 175 l 1
 117 326 l 9
 117 385 l 1
 60 390 l 1
 58 414 l 1
 207 437 l 1
EndSplineSet
Validated: 33
EndChar

StartChar: u1D45B
Encoding: 65575 119899 550
Width: 509
GlyphClass: 2
Flags: HMW
AnchorPoint: "bottom" 239 0 basechar 0
AnchorPoint: "top" 281 425 basechar 0
LayerCount: 2
Back
Fore
SplineSet
207 437 m 1
 168 220 l 1
 229 367 301 437 366 437 c 3
 402 437 451 407 436 322 c 2
 396 102 l 1
 396 43 l 1
 454 38 l 1
 456 14 l 1
 317 -9 l 1
 313 3 l 1
 326 113 l 1
 362 303 l 2
 371 353 356 382 328 382 c 3
 287 382 205 269 146 94 c 1
 131 10 l 1
 59 -12 l 1
 53 -1 l 1
 92 175 l 1
 117 326 l 9
 117 385 l 1
 60 390 l 1
 58 414 l 1
 207 437 l 1
EndSplineSet
Validated: 33
EndChar

StartChar: u1D45C
Encoding: 65576 119900 551
Width: 451
GlyphClass: 2
Flags: HMW
AnchorPoint: "bottom" 195 0 basechar 0
AnchorPoint: "top" 265 425 basechar 0
LayerCount: 2
Back
Fore
SplineSet
285 437 m 3
 344 437 408 405 408 292 c 3
 408 79 238 -12 171 -12 c 3
 111 -12 48 20 48 133 c 3
 48 346 217 437 285 437 c 3
246 389 m 3
 167 389 123 294 123 165 c 3
 123 79 163 37 210 37 c 3
 288 37 333 131 333 260 c 3
 333 346 292 389 246 389 c 3
EndSplineSet
Validated: 1
EndChar

StartChar: u1D45D
Encoding: 65577 119901 552
Width: 493
GlyphClass: 2
Flags: HMW
LayerCount: 2
Back
Fore
SplineSet
202 437 m 1
 168 248 l 1
 223 366 298 437 358 437 c 3
 397 437 450 416 450 314 c 3
 450 162 350 -12 148 -12 c 3
 141 -12 133 -12 124 -11 c 1
 87 -208 l 1
 15 -230 l 1
 9 -219 l 1
 62 13 l 1
 112 326 l 9
 112 385 l 1
 55 390 l 1
 53 414 l 1
 202 437 l 1
319 381 m 7
 277 381 196 268 144 94 c 1
 136 49 l 1
 151 43 189 36 221 36 c 3
 342 36 375 163 375 289 c 3
 375 361 347 381 319 381 c 7
EndSplineSet
Validated: 1
EndChar

StartChar: u1D45E
Encoding: 65578 119902 553
Width: 476
GlyphClass: 2
Flags: HMW
LayerCount: 2
Back
Fore
SplineSet
361 437 m 3
 390 437 423 430 444 422 c 1
 403 248 l 1
 340 -117 l 5
 340 -176 l 5
 406 -181 l 5
 408 -205 l 1
 255 -230 l 1
 251 -217 l 1
 321 174 l 1
 266 56 195 -12 135 -12 c 3
 96 -12 43 9 43 111 c 3
 43 263 154 437 361 437 c 3
288 389 m 3
 167 389 118 262 118 136 c 3
 118 64 146 45 174 45 c 3
 216 45 296 156 348 329 c 1
 358 377 l 1
 343 383 313 389 288 389 c 3
EndSplineSet
Validated: 1
EndChar

StartChar: u1D45F
Encoding: 65579 119903 554
Width: 366
GlyphClass: 2
Flags: HMW
AnchorPoint: "bottom" 93 0 basechar 0
AnchorPoint: "top" 245 425 basechar 0
LayerCount: 2
Back
Fore
SplineSet
205 437 m 1
 170 240 l 1
 226 374 274 437 339 437 c 3
 361 437 375 429 383 422 c 1
 354 350 l 1
 344 345 l 1
 328 355 315 357 295 357 c 3
 241 357 168 202 144 94 c 1
 129 9 l 1
 59 -12 l 5
 53 -1 l 1
 90 175 l 1
 115 326 l 9
 115 385 l 1
 58 390 l 1
 56 414 l 1
 205 437 l 1
EndSplineSet
Validated: 1
EndChar

StartChar: u1D460
Encoding: 65580 119904 555
Width: 342
GlyphClass: 2
Flags: HMW
AnchorPoint: "bottom" 137 0 basechar 0
AnchorPoint: "top" 211 425 basechar 0
LayerCount: 2
Back
Fore
SplineSet
255 437 m 3
 284 437 305 432 324 423 c 1
 304 361 l 1
 286 356 l 1
 264 372 225 386 180 386 c 3
 145 386 122 371 122 339 c 3
 122 300 154 279 196 249 c 0
 254 208 290 176 290 118 c 3
 290 46 205 -12 121 -12 c 7
 73 -12 23 4 4 15 c 5
 19 78 l 5
 37 83 l 5
 59 67 117 36 162 36 c 7
 214 36 229 53 229 83 c 3
 229 124 208 143 153 182 c 0
 98 221 62 253 62 299 c 3
 62 379 164 437 255 437 c 3
EndSplineSet
Validated: 1
EndChar

StartChar: u1D461
Encoding: 65581 119905 556
Width: 293
GlyphClass: 2
Flags: HMW
AnchorPoint: "top" 258 514 basechar 0
AnchorPoint: "bottom" 122 0 basechar 0
LayerCount: 2
Back
Fore
SplineSet
193 540 m 1
 204 529 l 1
 186 425 l 1
 280 425 l 1
 273 387 l 1
 179 387 l 1
 133 125 l 2
 123 69 130 44 163 44 c 3
 181 44 213 60 232 73 c 1
 242 54 l 1
 207 21 148 -12 107 -12 c 3
 68 -12 43 7 60 105 c 2
 110 387 l 1
 53 387 l 1
 56 403 l 1
 94 425 l 1
 117 425 l 1
 133 518 l 1
 193 540 l 1
EndSplineSet
Validated: 33
EndChar

StartChar: u1D462
Encoding: 65582 119906 557
Width: 512
GlyphClass: 2
Flags: HMW
AnchorPoint: "bottom" 237 0 basechar 0
AnchorPoint: "top" 279 425 basechar 0
LayerCount: 2
Back
Fore
SplineSet
199 437 m 1
 184 312 l 1
 150 122 l 2
 141 72 156 43 184 43 c 3
 225 43 307 156 366 331 c 1
 381 415 l 1
 453 437 l 1
 459 426 l 1
 420 250 l 1
 395 102 l 1
 395 43 l 1
 453 38 l 1
 455 14 l 1
 309 -9 l 1
 307 4 l 1
 344 205 l 1
 283 58 211 -12 146 -12 c 3
 110 -12 61 18 76 103 c 2
 112 311 l 9
 112 385 l 1
 55 390 l 1
 53 414 l 1
 199 437 l 1
EndSplineSet
Validated: 33
EndChar

StartChar: u1D463
Encoding: 65583 119907 558
Width: 439
GlyphClass: 2
Flags: HMW
LayerCount: 2
Back
Fore
SplineSet
189 437 m 1
 167 86 l 2
 165 49 171 39 189 39 c 3
 243 39 340 199 340 303 c 3
 340 331 333 373 322 392 c 1
 383 437 l 1
 404 433 l 1
 416 424 421 399 421 381 c 3
 421 250 261 -12 150 -12 c 3
 114 -12 95 0 98 67 c 2
 111 326 l 9
 107 385 l 1
 50 390 l 1
 48 414 l 1
 189 437 l 1
EndSplineSet
Validated: 33
EndChar

StartChar: u1D464
Encoding: 65584 119908 559
Width: 660
GlyphClass: 2
Flags: HMW
AnchorPoint: "bottom" 276 0 basechar 0
AnchorPoint: "top" 372 425 basechar 0
LayerCount: 2
Back
Fore
SplineSet
189 437 m 1
 167 86 l 2
 165 49 171 39 189 39 c 3
 243 39 335 199 335 303 c 3
 335 331 328 373 317 392 c 1
 378 437 l 1
 399 433 l 1
 411 424 417 399 417 381 c 3
 417 355 411 312 406 290 c 2
 393 86 l 2
 391 49 397 39 415 39 c 3
 469 39 561 199 561 303 c 3
 561 331 554 373 543 392 c 1
 604 437 l 1
 625 433 l 1
 637 424 642 399 642 381 c 3
 642 250 487 -12 376 -12 c 3
 340 -12 321 0 324 67 c 2
 328 158 l 1
 286 62 207 -12 150 -12 c 3
 114 -12 95 0 98 67 c 2
 111 326 l 9
 107 385 l 1
 50 390 l 1
 48 414 l 1
 189 437 l 1
EndSplineSet
Validated: 33
EndChar

StartChar: u1D465
Encoding: 65585 119909 560
Width: 425
GlyphClass: 2
Flags: HMW
LayerCount: 2
Back
Fore
SplineSet
191 437 m 1
 234 269 l 1
 272 335 284 357 303 383 c 0
 324 412 350 437 385 437 c 3
 406 437 421 434 433 425 c 1
 417 362 l 1
 404 355 l 1
 383 361 371 366 349 366 c 3
 320 366 298 325 244 231 c 1
 290 76 l 1
 317 43 l 1
 371 43 l 1
 373 19 l 1
 239 -9 l 1
 193 177 l 1
 144 94 133 71 112 42 c 0
 91 13 65 -12 30 -12 c 3
 9 -12 -6 -9 -18 0 c 1
 -2 63 l 1
 11 70 l 1
 32 64 44 59 66 59 c 3
 96 59 122 108 183 214 c 1
 141 352 l 1
 114 385 l 1
 60 385 l 1
 58 409 l 1
 191 437 l 1
EndSplineSet
Validated: 1
EndChar

StartChar: u1D466
Encoding: 65586 119910 561
Width: 479
GlyphClass: 2
Flags: HMW
AnchorPoint: "bottom" 170 -230 basechar 0
AnchorPoint: "top" 265 425 basechar 0
LayerCount: 2
Back
Fore
SplineSet
186 437 m 1
 171 312 l 1
 137 122 l 2
 128 72 143 43 171 43 c 3
 212 43 294 156 353 331 c 1
 368 415 l 1
 440 437 l 1
 446 426 l 1
 407 249 l 1
 366 7 l 2
 343 -129 280 -177 233 -206 c 0
 197 -228 164 -230 107 -230 c 3
 67 -230 26 -218 0 -198 c 1
 24 -141 l 1
 38 -132 l 1
 77 -162 135 -179 180 -179 c 3
 236 -179 265 -169 284 -63 c 2
 331 205 l 1
 270 58 198 -12 133 -12 c 3
 97 -12 48 18 63 103 c 2
 99 311 l 9
 99 385 l 1
 42 390 l 1
 40 414 l 1
 186 437 l 1
EndSplineSet
Validated: 33
EndChar

StartChar: u1D467
Encoding: 65587 119911 562
Width: 401
GlyphClass: 2
Flags: HMW
AnchorPoint: "bottom" 161 0 basechar 0
AnchorPoint: "top" 215 425 basechar 0
LayerCount: 2
Back
Fore
SplineSet
88 437 m 1
 128 437 l 1
 277 409 l 2
 301 404 317 409 360 437 c 1
 378 413 l 1
 302 335 l 1
 115 92 l 1
 250 64 l 2
 292 55 313 65 337 105 c 1
 359 101 l 1
 322 -12 l 1
 277 -12 l 1
 111 20 l 2
 80 26 54 18 11 -12 c 1
 -7 12 l 1
 79 102 l 1
 265 345 l 1
 175 362 l 2
 132 371 102 360 78 320 c 1
 56 324 l 1
 88 437 l 1
EndSplineSet
Validated: 33
EndChar

StartChar: uni23AA
Encoding: 9130 9130 563
Width: 404
VWidth: 0
GlyphClass: 2
Flags: HMW
LayerCount: 2
Back
Fore
SplineSet
230 770 m 1
 230 -230 l 25
 174 -230 l 1
 174 770 l 1
 230 770 l 1
EndSplineSet
Validated: 1
EndChar

StartChar: zero.oldstyleproportional
Encoding: 63280 63280 565
Width: 508
VWidth: -3
GlyphClass: 3
Flags: HMW
LayerCount: 2
Back
Fore
SplineSet
258 397 m 3
 216 397 190 388 169 369 c 1
 147 335 130 297 130 220 c 3
 130 101 184 29 254 29 c 3
 296 29 321 39 342 58 c 1
 364 92 378 130 378 207 c 3
 378 326 328 397 258 397 c 3
238 -12 m 3
 161 -12 50 44 50 200 c 3
 50 350 139 437 268 437 c 3
 345 437 458 383 458 227 c 3
 458 77 367 -12 238 -12 c 3
EndSplineSet
Validated: 1
Ligature2: "Old style closing tag-1" zero.onumflag less slash o n u m greater
EndChar

StartChar: one.oldstyleproportional
Encoding: 63281 63281 566
Width: 360
VWidth: -3
GlyphClass: 3
Flags: HMW
LayerCount: 2
Back
Fore
SplineSet
220 387 m 1
 220 34 l 1
 300 18 l 1
 300 0 l 1
 60 0 l 1
 60 18 l 1
 146 43 l 1
 146 386 l 1
 70 407 l 1
 70 425 l 1
 290 425 l 1
 290 407 l 1
 220 387 l 1
EndSplineSet
Validated: 1
Ligature2: "Old style closing tag-1" one.onumflag less slash o n u m greater
EndChar

StartChar: two.oldstyleproportional
Encoding: 63282 63282 567
Width: 427
VWidth: 0
GlyphClass: 3
Flags: HMW
LayerCount: 2
Back
Fore
SplineSet
195 388 m 3
 153 388 124 380 84 355 c 1
 69 380 l 1
 125 417 171 437 231 437 c 3
 303 437 344 392 344 318 c 3
 344 223 238 126 143 64 c 1
 329 64 l 9
 356 103 l 1
 377 98 l 1
 360 0 l 1
 56 0 l 1
 50 32 l 1
 205 139 268 224 268 305 c 3
 268 362 235 388 195 388 c 3
EndSplineSet
Validated: 1
Ligature2: "Old style closing tag-1" two.onumflag less slash o n u m greater
EndChar

StartChar: three.oldstyleproportional
Encoding: 63283 63283 568
Width: 427
VWidth: 0
GlyphClass: 3
Flags: HMW
LayerCount: 2
Back
Fore
SplineSet
242 73 m 0
 209 91 176 97 131 97 c 1
 127 126 l 1
 221 168 251 212 251 289 c 3
 251 352 210 387 167 387 c 3
 125 387 104 379 65 355 c 1
 50 380 l 1
 104 417 144 437 206 437 c 3
 282 437 329 387 329 308 c 3
 329 222 258 163 214 138 c 1
 243 137 260 134 282 126 c 0
 342 104 377 61 377 -8 c 3
 377 -159 240 -230 54 -230 c 1
 54 -194 l 1
 225 -194 302 -137 302 -34 c 3
 302 9 279 53 242 73 c 0
EndSplineSet
Validated: 1
Ligature2: "Old style closing tag-1" three.onumflag less slash o n u m greater
EndChar

StartChar: four.oldstyleproportional
Encoding: 63284 63284 569
Width: 514
VWidth: -3
GlyphClass: 3
Flags: HMW
LayerCount: 2
Back
Fore
SplineSet
320 453 m 1
 341 453 l 1
 341 417 l 1
 91 74 l 1
 305 74 l 1
 305 259 l 1
 359 287 l 1
 380 287 l 1
 380 74 l 1
 479 74 l 1
 479 23 l 1
 380 23 l 1
 380 -140 l 1
 329 -166 l 1
 305 -166 l 1
 305 23 l 1
 39 23 l 1
 30 44 l 1
 320 453 l 1
EndSplineSet
Validated: 1
LCarets2: 7 0 0 0 0 0 0 0
Ligature2: "Old style closing tag-1" four.onumflag less slash o n u m greater
EndChar

StartChar: five.oldstyleproportional
Encoding: 63285 63285 570
Width: 423
VWidth: 0
GlyphClass: 3
Flags: HMW
LayerCount: 2
Back
Fore
SplineSet
50 -230 m 1
 50 -195 l 1
 221 -195 295 -135 295 -32 c 3
 295 12 280 50 237 71 c 0
 201 89 145 94 67 94 c 1
 57 103 l 1
 102 425 l 1
 328 425 l 1
 335 412 l 1
 325 361 l 1
 132 361 l 1
 106 153 l 1
 185 153 238 149 282 131 c 0
 343 105 373 61 373 -8 c 3
 373 -159 236 -230 50 -230 c 1
EndSplineSet
Validated: 1
Ligature2: "Old style closing tag-1" five.onumflag less slash o n u m greater
EndChar

StartChar: six.oldstyleproportional
Encoding: 63286 63286 571
Width: 480
VWidth: 0
GlyphClass: 3
Flags: HMW
LayerCount: 2
Back
SplineSet
139 270 m 1
 139 303 l 1
 169 334 215 361 275 361 c 3
 376 361 420 293 420 194 c 3
 420 77 342 -13 236 -13 c 3
 128 -13 60 62 60 219 c 3
 60 427 222 576 378 638 c 9
 394 611 l 17
 266 550 139 445 139 226 c 3
 139 89 193 29 248 29 c 3
 313 29 347 68 347 162 c 3
 347 264 304 313 243 313 c 3
 198 313 169 296 139 270 c 1
EndSplineSet
Fore
SplineSet
243 313 m 3
 199 313 170 297 141 272 c 1
 140 257 139 242 139 226 c 3
 139 89 193 29 248 29 c 3
 313 29 347 68 347 162 c 3
 347 264 304 313 243 313 c 3
378 638 m 1
 394 611 l 1
 284 558 174 473 146 310 c 1
 176 338 219 361 275 361 c 3
 376 361 420 293 420 194 c 3
 420 77 342 -13 236 -13 c 3
 128 -13 60 62 60 219 c 3
 60 427 222 576 378 638 c 1
EndSplineSet
Validated: 1
LCarets2: 7 0 0 0 0 0 0 0
Ligature2: "Old style closing tag-1" six.onumflag less slash o n u m greater
EndChar

StartChar: seven.oldstyleproportional
Encoding: 63287 63287 572
Width: 380
VWidth: 0
GlyphClass: 3
Flags: HMW
LayerCount: 2
Back
Fore
SplineSet
30 378 m 1
 40 425 l 1
 344 425 l 1
 360 406 l 1
 126 -209 l 9
 68 -182 l 17
 156 -2 232 179 306 361 c 1
 40 361 l 1
 30 378 l 1
EndSplineSet
Validated: 1
Ligature2: "Old style closing tag-1" seven.onumflag less slash o n u m greater
EndChar

StartChar: eight.oldstyleproportional
Encoding: 63288 63288 573
Width: 509
VWidth: 0
GlyphClass: 3
Flags: HMW
LayerCount: 2
Back
SplineSet
289 334 m 9
 264 351 l 1
 314 381 343 441 343 491 c 3
 343 567 308 604 248 604 c 3
 201 604 159 562 159 505 c 3
 159 340 439 331 439 162 c 3
 439 66 365 -12 249 -12 c 3
 146 -12 70 38 70 141 c 3
 70 223 154 294 217 325 c 9
 237 306 l 17
 170 267 134 228 134 151 c 3
 134 72 183 28 254 28 c 3
 318 28 365 67 365 137 c 3
 365 278 93 308 93 480 c 3
 93 559 153 638 255 638 c 3
 356 638 404 577 404 500 c 3
 404 419 329 356 289 334 c 9
EndSplineSet
Fore
SplineSet
226 299 m 1
 166 262 134 224 134 151 c 3
 134 72 183 28 254 28 c 3
 318 28 365 67 365 137 c 3
 365 209 295 251 226 299 c 1
255 638 m 3
 356 638 404 577 404 500 c 3
 404 423 336 362 295 337 c 1
 366 292 439 248 439 162 c 3
 439 66 365 -12 249 -12 c 3
 146 -12 70 38 70 141 c 3
 70 216 141 283 201 317 c 1
 144 359 93 406 93 480 c 3
 93 559 153 638 255 638 c 3
248 604 m 3
 201 604 159 562 159 505 c 3
 159 434 210 392 269 354 c 1
 316 385 343 443 343 491 c 3
 343 567 308 604 248 604 c 3
EndSplineSet
Validated: 1
LCarets2: 7 0 0 0 0 0 0 0
Ligature2: "Old style closing tag-1" eight.onumflag less slash o n u m greater
EndChar

StartChar: nine.oldstyleproportional
Encoding: 63289 63289 574
Width: 465
VWidth: 0
GlyphClass: 3
Flags: HMW
LayerCount: 2
Back
SplineSet
326 159 m 1
 326 126 l 1
 296 90 257 68 197 68 c 3
 116 68 50 131 50 230 c 3
 50 347 125 437 231 437 c 3
 339 437 405 362 405 205 c 3
 405 -13 262 -168 116 -230 c 9
 100 -203 l 17
 218 -142 326 -23 326 198 c 3
 326 335 284 395 219 395 c 3
 144 395 123 356 123 262 c 3
 123 160 173 116 224 116 c 3
 269 116 296 128 326 159 c 1
EndSplineSet
Fore
SplineSet
219 395 m 3
 144 395 123 356 123 262 c 3
 123 160 173 116 224 116 c 3
 268 116 295 128 325 158 c 1
 326 171 326 184 326 198 c 3
 326 335 284 395 219 395 c 3
231 437 m 3
 339 437 405 362 405 205 c 3
 405 -13 262 -168 116 -230 c 1
 100 -203 l 1
 203 -150 299 -52 321 120 c 1
 292 87 254 68 197 68 c 3
 116 68 50 131 50 230 c 3
 50 347 125 437 231 437 c 3
EndSplineSet
Validated: 1
LCarets2: 7 0 0 0 0 0 0 0
Ligature2: "Old style closing tag-1" nine.onumflag less slash o n u m greater
EndChar

StartChar: u1D703
Encoding: 65588 120579 575
Width: 530
VWidth: 0
GlyphClass: 2
Flags: HMW
LayerCount: 2
Back
Fore
SplineSet
329 638 m 3
 439 638 473 560 473 415 c 3
 473 189 353 -12 209 -12 c 3
 99 -12 65 66 65 211 c 3
 65 437 186 638 329 638 c 3
150 328 m 1
 181 339 l 1
 391 339 l 1
 392 359 393 379 393 399 c 3
 393 525 379 593 306 593 c 3
 219 593 166 480 150 328 c 1
148 301 m 1
 146 277 145 252 145 227 c 3
 145 101 159 33 232 33 c 3
 319 33 372 148 388 301 c 1
 148 301 l 1
EndSplineSet
Validated: 1
EndChar

